<?xml version="1.0" encoding="UTF-8" ?>
<svg version="1.1" width="640" height="640" xmlns="http://www.w3.org/2000/svg" shape-rendering="crispEdges">
<rect x="260" y="0" width="120" height="20" fill="#230019" />
<rect x="220" y="10" width="40" height="20" fill="#230019" />
<rect x="380" y="10" width="40" height="20" fill="#230019" />
<rect x="190" y="20" width="30" height="20" fill="#230019" />
<rect x="260" y="20" width="90" height="10" fill="#254351" />
<rect x="350" y="20" width="20" height="20" fill="#19374B" />
<rect x="370" y="20" width="10" height="10" fill="#230019" />
<rect x="420" y="20" width="30" height="20" fill="#230019" />
<rect x="170" y="30" width="20" height="20" fill="#230019" />
<rect x="220" y="30" width="10" height="10" fill="#230019" />
<rect x="230" y="30" width="30" height="10" fill="#254351" />
<rect x="260" y="30" width="90" height="10" fill="#19374B" />
<rect x="370" y="30" width="40" height="20" fill="#19374B" />
<rect x="410" y="30" width="10" height="10" fill="#230019" />
<rect x="450" y="30" width="20" height="20" fill="#230019" />
<rect x="150" y="40" width="20" height="20" fill="#230019" />
<rect x="190" y="40" width="10" height="10" fill="#230019" />
<rect x="200" y="40" width="30" height="10" fill="#254351" />
<rect x="230" y="40" width="40" height="10" fill="#19374B" />
<rect x="270" y="40" width="100" height="190" fill="#230019" />
<rect x="410" y="40" width="30" height="20" fill="#19374B" />
<rect x="440" y="40" width="10" height="10" fill="#230019" />
<rect x="470" y="40" width="20" height="20" fill="#230019" />
<rect x="140" y="50" width="10" height="30" fill="#230019" />
<rect x="170" y="50" width="10" height="10" fill="#230019" />
<rect x="180" y="50" width="20" height="10" fill="#254351" />
<rect x="200" y="50" width="30" height="10" fill="#19374B" />
<rect x="230" y="50" width="40" height="190" fill="#230019" />
<rect x="370" y="50" width="40" height="190" fill="#230019" />
<rect x="440" y="50" width="20" height="20" fill="#19374B" />
<rect x="460" y="50" width="10" height="10" fill="#230019" />
<rect x="490" y="50" width="10" height="30" fill="#230019" />
<rect x="130" y="60" width="10" height="30" fill="#230019" />
<rect x="150" y="60" width="10" height="10" fill="#230019" />
<rect x="160" y="60" width="20" height="10" fill="#254351" />
<rect x="180" y="60" width="30" height="10" fill="#19374B" />
<rect x="210" y="60" width="20" height="210" fill="#230019" />
<rect x="410" y="60" width="20" height="210" fill="#230019" />
<rect x="430" y="60" width="10" height="10" fill="#19374B" />
<rect x="460" y="60" width="20" height="20" fill="#19374B" />
<rect x="480" y="60" width="10" height="10" fill="#230019" />
<rect x="500" y="60" width="10" height="30" fill="#230019" />
<rect x="110" y="70" width="20" height="20" fill="#230019" />
<rect x="150" y="70" width="10" height="10" fill="#254351" />
<rect x="160" y="70" width="30" height="10" fill="#19374B" />
<rect x="190" y="70" width="20" height="220" fill="#230019" />
<rect x="430" y="70" width="20" height="220" fill="#230019" />
<rect x="450" y="70" width="10" height="10" fill="#19374B" />
<rect x="480" y="70" width="10" height="30" fill="#19374B" />
<rect x="510" y="70" width="20" height="20" fill="#230019" />
<rect x="100" y="80" width="10" height="30" fill="#230019" />
<rect x="140" y="80" width="10" height="10" fill="#254351" />
<rect x="150" y="80" width="20" height="10" fill="#19374B" />
<rect x="170" y="80" width="20" height="240" fill="#230019" />
<rect x="450" y="80" width="20" height="240" fill="#230019" />
<rect x="470" y="80" width="10" height="10" fill="#19374B" />
<rect x="490" y="80" width="10" height="30" fill="#19374B" />
<rect x="530" y="80" width="10" height="30" fill="#230019" />
<rect x="90" y="90" width="10" height="30" fill="#230019" />
<rect x="110" y="90" width="10" height="10" fill="#230019" />
<rect x="120" y="90" width="20" height="10" fill="#254351" />
<rect x="140" y="90" width="20" height="10" fill="#19374B" />
<rect x="160" y="90" width="10" height="260" fill="#230019" />
<rect x="470" y="90" width="10" height="260" fill="#230019" />
<rect x="500" y="90" width="20" height="30" fill="#19374B" />
<rect x="520" y="90" width="10" height="10" fill="#230019" />
<rect x="540" y="90" width="10" height="30" fill="#230019" />
<rect x="80" y="100" width="10" height="40" fill="#230019" />
<rect x="110" y="100" width="10" height="10" fill="#254351" />
<rect x="120" y="100" width="30" height="10" fill="#19374B" />
<rect x="150" y="100" width="10" height="270" fill="#230019" />
<rect x="480" y="100" width="10" height="270" fill="#230019" />
<rect x="520" y="100" width="10" height="40" fill="#19374B" />
<rect x="550" y="100" width="10" height="40" fill="#230019" />
<rect x="70" y="110" width="10" height="40" fill="#230019" />
<rect x="100" y="110" width="10" height="10" fill="#254351" />
<rect x="110" y="110" width="30" height="10" fill="#19374B" />
<rect x="140" y="110" width="10" height="270" fill="#230019" />
<rect x="490" y="110" width="10" height="270" fill="#230019" />
<rect x="530" y="110" width="10" height="40" fill="#19374B" />
<rect x="560" y="110" width="10" height="40" fill="#230019" />
<rect x="90" y="120" width="10" height="20" fill="#254351" />
<rect x="100" y="120" width="30" height="10" fill="#19374B" />
<rect x="130" y="120" width="10" height="270" fill="#230019" />
<rect x="500" y="120" width="10" height="270" fill="#230019" />
<rect x="510" y="120" width="10" height="10" fill="#19374B" />
<rect x="540" y="120" width="10" height="40" fill="#19374B" />
<rect x="60" y="130" width="10" height="30" fill="#230019" />
<rect x="100" y="130" width="20" height="10" fill="#19374B" />
<rect x="120" y="130" width="10" height="280" fill="#230019" />
<rect x="510" y="130" width="10" height="280" fill="#230019" />
<rect x="570" y="130" width="10" height="30" fill="#230019" />
<rect x="50" y="140" width="10" height="40" fill="#230019" />
<rect x="80" y="140" width="10" height="10" fill="#254351" />
<rect x="90" y="140" width="20" height="10" fill="#19374B" />
<rect x="110" y="140" width="10" height="280" fill="#230019" />
<rect x="520" y="140" width="10" height="280" fill="#230019" />
<rect x="550" y="140" width="10" height="40" fill="#19374B" />
<rect x="580" y="140" width="10" height="40" fill="#230019" />
<rect x="40" y="150" width="10" height="50" fill="#230019" />
<rect x="70" y="150" width="10" height="10" fill="#254351" />
<rect x="80" y="150" width="20" height="10" fill="#19374B" />
<rect x="100" y="150" width="10" height="290" fill="#230019" />
<rect x="530" y="150" width="10" height="290" fill="#230019" />
<rect x="560" y="150" width="10" height="50" fill="#19374B" />
<rect x="590" y="150" width="10" height="50" fill="#230019" />
<rect x="60" y="160" width="10" height="20" fill="#254351" />
<rect x="70" y="160" width="20" height="20" fill="#19374B" />
<rect x="90" y="160" width="10" height="300" fill="#230019" />
<rect x="540" y="160" width="10" height="300" fill="#230019" />
<rect x="570" y="160" width="10" height="60" fill="#19374B" />
<rect x="30" y="170" width="10" height="60" fill="#230019" />
<rect x="600" y="170" width="10" height="60" fill="#230019" />
<rect x="50" y="180" width="10" height="10" fill="#254351" />
<rect x="60" y="180" width="20" height="20" fill="#19374B" />
<rect x="80" y="180" width="10" height="280" fill="#230019" />
<rect x="550" y="180" width="10" height="280" fill="#230019" />
<rect x="580" y="180" width="10" height="80" fill="#19374B" />
<rect x="20" y="190" width="10" height="80" fill="#230019" />
<rect x="50" y="190" width="10" height="70" fill="#19374B" />
<rect x="610" y="190" width="10" height="80" fill="#230019" />
<rect x="40" y="200" width="10" height="240" fill="#19374B" />
<rect x="60" y="200" width="10" height="20" fill="#19374B" />
<rect x="70" y="200" width="10" height="240" fill="#230019" />
<rect x="560" y="200" width="10" height="240" fill="#230019" />
<rect x="590" y="200" width="10" height="200" fill="#19374B" />
<rect x="10" y="220" width="10" height="200" fill="#230019" />
<rect x="60" y="220" width="10" height="200" fill="#230019" />
<rect x="570" y="220" width="10" height="200" fill="#230019" />
<rect x="620" y="220" width="10" height="200" fill="#230019" />
<rect x="30" y="230" width="10" height="180" fill="#19374B" />
<rect x="270" y="230" width="100" height="30" fill="#22021B" />
<rect x="600" y="230" width="10" height="160" fill="#19374B" />
<rect x="230" y="240" width="20" height="10" fill="#230019" />
<rect x="250" y="240" width="20" height="30" fill="#22021B" />
<rect x="370" y="240" width="20" height="30" fill="#22021B" />
<rect x="390" y="240" width="20" height="10" fill="#230019" />
<rect x="230" y="250" width="10" height="10" fill="#230019" />
<rect x="240" y="250" width="10" height="30" fill="#22021B" />
<rect x="390" y="250" width="10" height="30" fill="#22021B" />
<rect x="400" y="250" width="10" height="10" fill="#230019" />
<rect x="0" y="260" width="10" height="120" fill="#230019" />
<rect x="50" y="260" width="10" height="120" fill="#230019" />
<rect x="230" y="260" width="10" height="30" fill="#22021B" />
<rect x="270" y="260" width="10" height="10" fill="#22021B" />
<rect x="280" y="260" width="80" height="60" fill="#22041D" />
<rect x="360" y="260" width="10" height="10" fill="#22021B" />
<rect x="400" y="260" width="10" height="30" fill="#22021B" />
<rect x="580" y="260" width="10" height="120" fill="#230019" />
<rect x="630" y="260" width="10" height="120" fill="#230019" />
<rect x="20" y="270" width="10" height="100" fill="#19374B" />
<rect x="210" y="270" width="10" height="10" fill="#230019" />
<rect x="220" y="270" width="10" height="10" fill="#22041D" />
<rect x="250" y="270" width="10" height="10" fill="#22021B" />
<rect x="260" y="270" width="20" height="60" fill="#22041D" />
<rect x="360" y="270" width="20" height="60" fill="#22041D" />
<rect x="380" y="270" width="10" height="10" fill="#22021B" />
<rect x="410" y="270" width="10" height="10" fill="#22041D" />
<rect x="420" y="270" width="10" height="10" fill="#230019" />
<rect x="610" y="270" width="10" height="100" fill="#19374B" />
<rect x="210" y="280" width="10" height="10" fill="#22041D" />
<rect x="220" y="280" width="10" height="20" fill="#22021B" />
<rect x="240" y="280" width="20" height="60" fill="#22041D" />
<rect x="380" y="280" width="20" height="60" fill="#22041D" />
<rect x="410" y="280" width="10" height="20" fill="#22021B" />
<rect x="420" y="280" width="10" height="10" fill="#22041D" />
<rect x="190" y="290" width="10" height="10" fill="#230019" />
<rect x="200" y="290" width="10" height="10" fill="#22041D" />
<rect x="210" y="290" width="10" height="20" fill="#22021B" />
<rect x="230" y="290" width="10" height="70" fill="#22041D" />
<rect x="400" y="290" width="10" height="70" fill="#22041D" />
<rect x="420" y="290" width="10" height="20" fill="#22021B" />
<rect x="430" y="290" width="10" height="10" fill="#22041D" />
<rect x="440" y="290" width="10" height="10" fill="#230019" />
<rect x="190" y="300" width="20" height="30" fill="#22021B" />
<rect x="220" y="300" width="10" height="80" fill="#22041D" />
<rect x="410" y="300" width="10" height="80" fill="#22041D" />
<rect x="430" y="300" width="20" height="30" fill="#22021B" />
<rect x="210" y="310" width="10" height="80" fill="#22041D" />
<rect x="420" y="310" width="10" height="80" fill="#22041D" />
<rect x="170" y="320" width="10" height="20" fill="#230019" />
<rect x="180" y="320" width="10" height="10" fill="#22041D" />
<rect x="280" y="320" width="10" height="10" fill="#22041D" />
<rect x="290" y="320" width="60" height="170" fill="#210C24" />
<rect x="350" y="320" width="10" height="10" fill="#22041D" />
<rect x="450" y="320" width="10" height="10" fill="#22041D" />
<rect x="460" y="320" width="10" height="20" fill="#230019" />
<rect x="180" y="330" width="20" height="10" fill="#22021B" />
<rect x="200" y="330" width="10" height="80" fill="#22041D" />
<rect x="260" y="330" width="10" height="10" fill="#22041D" />
<rect x="270" y="330" width="20" height="160" fill="#210C24" />
<rect x="350" y="330" width="20" height="160" fill="#210C24" />
<rect x="370" y="330" width="10" height="10" fill="#22041D" />
<rect x="430" y="330" width="10" height="80" fill="#22041D" />
<rect x="440" y="330" width="20" height="10" fill="#22021B" />
<rect x="170" y="340" width="20" height="20" fill="#22021B" />
<rect x="190" y="340" width="10" height="80" fill="#22041D" />
<rect x="240" y="340" width="10" height="10" fill="#22041D" />
<rect x="250" y="340" width="20" height="150" fill="#210C24" />
<rect x="370" y="340" width="20" height="150" fill="#210C24" />
<rect x="390" y="340" width="10" height="10" fill="#22041D" />
<rect x="440" y="340" width="10" height="80" fill="#22041D" />
<rect x="450" y="340" width="20" height="20" fill="#22021B" />
<rect x="160" y="350" width="10" height="50" fill="#22021B" />
<rect x="240" y="350" width="10" height="150" fill="#210C24" />
<rect x="390" y="350" width="10" height="150" fill="#210C24" />
<rect x="470" y="350" width="10" height="50" fill="#22021B" />
<rect x="170" y="360" width="10" height="10" fill="#22021B" />
<rect x="180" y="360" width="10" height="80" fill="#22041D" />
<rect x="230" y="360" width="10" height="140" fill="#210C24" />
<rect x="400" y="360" width="10" height="140" fill="#210C24" />
<rect x="450" y="360" width="10" height="80" fill="#22041D" />
<rect x="460" y="360" width="10" height="10" fill="#22021B" />
<rect x="20" y="370" width="10" height="80" fill="#230019" />
<rect x="150" y="370" width="10" height="100" fill="#22021B" />
<rect x="170" y="370" width="10" height="90" fill="#22041D" />
<rect x="460" y="370" width="10" height="90" fill="#22041D" />
<rect x="480" y="370" width="10" height="100" fill="#22021B" />
<rect x="610" y="370" width="10" height="80" fill="#230019" />
<rect x="50" y="380" width="10" height="80" fill="#19374B" />
<rect x="140" y="380" width="10" height="110" fill="#22021B" />
<rect x="220" y="380" width="10" height="120" fill="#210C24" />
<rect x="410" y="380" width="10" height="120" fill="#210C24" />
<rect x="490" y="380" width="10" height="110" fill="#22021B" />
<rect x="580" y="380" width="10" height="40" fill="#19374B" />
<rect x="130" y="390" width="10" height="130" fill="#22021B" />
<rect x="210" y="390" width="10" height="120" fill="#210C24" />
<rect x="420" y="390" width="10" height="120" fill="#210C24" />
<rect x="500" y="390" width="10" height="130" fill="#22021B" />
<rect x="600" y="390" width="10" height="20" fill="#1F2439" />
<rect x="160" y="400" width="10" height="90" fill="#22041D" />
<rect x="470" y="400" width="10" height="90" fill="#22041D" />
<rect x="590" y="400" width="10" height="40" fill="#1F2439" />
<rect x="30" y="410" width="10" height="60" fill="#230019" />
<rect x="120" y="410" width="10" height="100" fill="#22021B" />
<rect x="200" y="410" width="10" height="100" fill="#210C24" />
<rect x="430" y="410" width="10" height="100" fill="#210C24" />
<rect x="510" y="410" width="10" height="100" fill="#22021B" />
<rect x="600" y="410" width="10" height="60" fill="#230019" />
<rect x="60" y="420" width="10" height="60" fill="#19374B" />
<rect x="110" y="420" width="10" height="80" fill="#22021B" />
<rect x="190" y="420" width="10" height="90" fill="#210C24" />
<rect x="440" y="420" width="10" height="90" fill="#210C24" />
<rect x="520" y="420" width="10" height="80" fill="#22021B" />
<rect x="570" y="420" width="10" height="20" fill="#19374B" />
<rect x="580" y="420" width="10" height="40" fill="#1F2439" />
<rect x="40" y="440" width="10" height="50" fill="#230019" />
<rect x="70" y="440" width="10" height="50" fill="#19374B" />
<rect x="100" y="440" width="10" height="50" fill="#22021B" />
<rect x="180" y="440" width="10" height="80" fill="#210C24" />
<rect x="450" y="440" width="10" height="80" fill="#210C24" />
<rect x="530" y="440" width="10" height="50" fill="#22021B" />
<rect x="560" y="440" width="10" height="30" fill="#19374B" />
<rect x="570" y="440" width="10" height="40" fill="#1F2439" />
<rect x="590" y="440" width="10" height="50" fill="#230019" />
<rect x="50" y="460" width="10" height="40" fill="#230019" />
<rect x="80" y="460" width="10" height="40" fill="#19374B" />
<rect x="90" y="460" width="10" height="20" fill="#22021B" />
<rect x="170" y="460" width="10" height="60" fill="#210C24" />
<rect x="460" y="460" width="10" height="60" fill="#210C24" />
<rect x="540" y="460" width="10" height="20" fill="#22021B" />
<rect x="550" y="460" width="10" height="20" fill="#19374B" />
<rect x="580" y="460" width="10" height="40" fill="#230019" />
<rect x="150" y="470" width="10" height="40" fill="#22041D" />
<rect x="480" y="470" width="10" height="40" fill="#22041D" />
<rect x="560" y="470" width="10" height="20" fill="#1F2439" />
<rect x="60" y="480" width="10" height="30" fill="#230019" />
<rect x="90" y="480" width="10" height="40" fill="#19374B" />
<rect x="540" y="480" width="10" height="10" fill="#19374B" />
<rect x="550" y="480" width="10" height="20" fill="#1F2439" />
<rect x="570" y="480" width="10" height="30" fill="#230019" />
<rect x="70" y="490" width="10" height="40" fill="#230019" />
<rect x="100" y="490" width="10" height="40" fill="#19374B" />
<rect x="140" y="490" width="10" height="40" fill="#22041D" />
<rect x="160" y="490" width="10" height="40" fill="#210C24" />
<rect x="250" y="490" width="10" height="10" fill="#210C24" />
<rect x="260" y="490" width="120" height="100" fill="#1F2439" />
<rect x="380" y="490" width="10" height="10" fill="#210C24" />
<rect x="470" y="490" width="10" height="40" fill="#210C24" />
<rect x="490" y="490" width="10" height="40" fill="#22041D" />
<rect x="530" y="490" width="10" height="10" fill="#19374B" />
<rect x="540" y="490" width="10" height="30" fill="#1F2439" />
<rect x="560" y="490" width="10" height="40" fill="#230019" />
<rect x="80" y="500" width="10" height="40" fill="#230019" />
<rect x="110" y="500" width="10" height="40" fill="#19374B" />
<rect x="220" y="500" width="40" height="80" fill="#1F2439" />
<rect x="380" y="500" width="40" height="80" fill="#1F2439" />
<rect x="520" y="500" width="10" height="20" fill="#19374B" />
<rect x="530" y="500" width="10" height="30" fill="#1F2439" />
<rect x="550" y="500" width="10" height="40" fill="#230019" />
<rect x="120" y="510" width="10" height="40" fill="#19374B" />
<rect x="150" y="510" width="10" height="30" fill="#210C24" />
<rect x="190" y="510" width="30" height="60" fill="#1F2439" />
<rect x="420" y="510" width="30" height="60" fill="#1F2439" />
<rect x="480" y="510" width="10" height="30" fill="#210C24" />
<rect x="510" y="510" width="10" height="20" fill="#19374B" />
<rect x="90" y="520" width="10" height="30" fill="#230019" />
<rect x="130" y="520" width="10" height="30" fill="#19374B" />
<rect x="170" y="520" width="20" height="40" fill="#1F2439" />
<rect x="450" y="520" width="20" height="40" fill="#1F2439" />
<rect x="500" y="520" width="10" height="20" fill="#19374B" />
<rect x="520" y="520" width="10" height="20" fill="#1F2439" />
<rect x="540" y="520" width="10" height="30" fill="#230019" />
<rect x="100" y="530" width="10" height="30" fill="#230019" />
<rect x="140" y="530" width="10" height="10" fill="#21061F" />
<rect x="160" y="530" width="10" height="20" fill="#1F2439" />
<rect x="470" y="530" width="10" height="20" fill="#1F2439" />
<rect x="490" y="530" width="10" height="10" fill="#21061F" />
<rect x="510" y="530" width="10" height="20" fill="#1F2439" />
<rect x="530" y="530" width="10" height="30" fill="#230019" />
<rect x="110" y="540" width="10" height="30" fill="#230019" />
<rect x="140" y="540" width="20" height="10" fill="#396D7D" />
<rect x="480" y="540" width="20" height="10" fill="#396D7D" />
<rect x="500" y="540" width="10" height="10" fill="#1F2439" />
<rect x="520" y="540" width="10" height="30" fill="#230019" />
<rect x="120" y="550" width="20" height="20" fill="#230019" />
<rect x="140" y="550" width="20" height="10" fill="#19374B" />
<rect x="160" y="550" width="10" height="10" fill="#396D7D" />
<rect x="470" y="550" width="10" height="10" fill="#396D7D" />
<rect x="480" y="550" width="10" height="10" fill="#19374B" />
<rect x="490" y="550" width="10" height="10" fill="#1F2439" />
<rect x="500" y="550" width="20" height="20" fill="#230019" />
<rect x="140" y="560" width="10" height="30" fill="#230019" />
<rect x="150" y="560" width="20" height="10" fill="#19374B" />
<rect x="170" y="560" width="20" height="10" fill="#396D7D" />
<rect x="450" y="560" width="20" height="10" fill="#396D7D" />
<rect x="470" y="560" width="10" height="10" fill="#19374B" />
<rect x="480" y="560" width="10" height="10" fill="#1F2439" />
<rect x="490" y="560" width="10" height="30" fill="#230019" />
<rect x="130" y="570" width="10" height="10" fill="#230019" />
<rect x="150" y="570" width="10" height="30" fill="#230019" />
<rect x="160" y="570" width="30" height="10" fill="#19374B" />
<rect x="190" y="570" width="20" height="10" fill="#396D7D" />
<rect x="210" y="570" width="10" height="10" fill="#1F2439" />
<rect x="420" y="570" width="10" height="10" fill="#1F2439" />
<rect x="430" y="570" width="20" height="10" fill="#396D7D" />
<rect x="450" y="570" width="10" height="10" fill="#19374B" />
<rect x="460" y="570" width="20" height="10" fill="#1F2439" />
<rect x="480" y="570" width="10" height="30" fill="#230019" />
<rect x="500" y="570" width="10" height="10" fill="#230019" />
<rect x="160" y="580" width="20" height="20" fill="#230019" />
<rect x="180" y="580" width="30" height="10" fill="#19374B" />
<rect x="210" y="580" width="20" height="10" fill="#396D7D" />
<rect x="230" y="580" width="30" height="10" fill="#1F2439" />
<rect x="380" y="580" width="30" height="10" fill="#1F2439" />
<rect x="410" y="580" width="20" height="10" fill="#396D7D" />
<rect x="430" y="580" width="10" height="10" fill="#19374B" />
<rect x="440" y="580" width="20" height="10" fill="#1F2439" />
<rect x="460" y="580" width="20" height="20" fill="#230019" />
<rect x="180" y="590" width="20" height="20" fill="#230019" />
<rect x="200" y="590" width="30" height="10" fill="#19374B" />
<rect x="230" y="590" width="40" height="10" fill="#396D7D" />
<rect x="270" y="590" width="100" height="10" fill="#1F2439" />
<rect x="370" y="590" width="40" height="10" fill="#396D7D" />
<rect x="410" y="590" width="30" height="10" fill="#1F2439" />
<rect x="440" y="590" width="20" height="20" fill="#230019" />
<rect x="170" y="600" width="10" height="10" fill="#230019" />
<rect x="200" y="600" width="30" height="20" fill="#230019" />
<rect x="230" y="600" width="40" height="10" fill="#19374B" />
<rect x="270" y="600" width="100" height="10" fill="#396D7D" />
<rect x="370" y="600" width="40" height="10" fill="#1F2439" />
<rect x="410" y="600" width="30" height="20" fill="#230019" />
<rect x="460" y="600" width="10" height="10" fill="#230019" />
<rect x="190" y="610" width="10" height="10" fill="#230019" />
<rect x="230" y="610" width="40" height="20" fill="#230019" />
<rect x="270" y="610" width="100" height="10" fill="#1F2439" />
<rect x="370" y="610" width="40" height="20" fill="#230019" />
<rect x="440" y="610" width="10" height="10" fill="#230019" />
<rect x="220" y="620" width="10" height="10" fill="#230019" />
<rect x="270" y="620" width="100" height="20" fill="#230019" />
<rect x="410" y="620" width="10" height="10" fill="#230019" />
<rect x="260" y="630" width="10" height="10" fill="#230019" />
<rect x="370" y="630" width="10" height="10" fill="#230019" />
</svg>