<?xml version="1.0" encoding="UTF-8" ?>
<svg version="1.1" width="640" height="640" xmlns="http://www.w3.org/2000/svg" shape-rendering="crispEdges">
<rect x="260" y="0" width="120" height="20" fill="#230019" />
<rect x="220" y="10" width="40" height="20" fill="#230019" />
<rect x="380" y="10" width="40" height="20" fill="#230019" />
<rect x="190" y="20" width="30" height="20" fill="#230019" />
<rect x="260" y="20" width="110" height="10" fill="#254351" />
<rect x="370" y="20" width="10" height="10" fill="#230019" />
<rect x="420" y="20" width="30" height="20" fill="#230019" />
<rect x="170" y="30" width="20" height="20" fill="#230019" />
<rect x="220" y="30" width="10" height="10" fill="#230019" />
<rect x="230" y="30" width="30" height="10" fill="#254351" />
<rect x="260" y="30" width="110" height="10" fill="#19374B" />
<rect x="370" y="30" width="40" height="10" fill="#254351" />
<rect x="410" y="30" width="10" height="10" fill="#230019" />
<rect x="450" y="30" width="20" height="20" fill="#230019" />
<rect x="150" y="40" width="20" height="20" fill="#230019" />
<rect x="190" y="40" width="10" height="10" fill="#230019" />
<rect x="200" y="40" width="30" height="10" fill="#254351" />
<rect x="230" y="40" width="40" height="10" fill="#19374B" />
<rect x="270" y="40" width="100" height="20" fill="#230019" />
<rect x="370" y="40" width="70" height="10" fill="#19374B" />
<rect x="440" y="40" width="10" height="10" fill="#230019" />
<rect x="470" y="40" width="20" height="20" fill="#230019" />
<rect x="140" y="50" width="10" height="30" fill="#230019" />
<rect x="170" y="50" width="10" height="10" fill="#230019" />
<rect x="180" y="50" width="20" height="10" fill="#254351" />
<rect x="200" y="50" width="30" height="10" fill="#19374B" />
<rect x="230" y="50" width="40" height="20" fill="#230019" />
<rect x="370" y="50" width="40" height="20" fill="#230019" />
<rect x="410" y="50" width="50" height="10" fill="#19374B" />
<rect x="460" y="50" width="10" height="10" fill="#230019" />
<rect x="490" y="50" width="10" height="30" fill="#230019" />
<rect x="130" y="60" width="10" height="30" fill="#230019" />
<rect x="150" y="60" width="10" height="10" fill="#230019" />
<rect x="160" y="60" width="20" height="10" fill="#254351" />
<rect x="180" y="60" width="30" height="10" fill="#19374B" />
<rect x="210" y="60" width="20" height="20" fill="#230019" />
<rect x="270" y="60" width="10" height="10" fill="#230019" />
<rect x="280" y="60" width="80" height="30" fill="#254351" />
<rect x="360" y="60" width="10" height="10" fill="#230019" />
<rect x="410" y="60" width="20" height="20" fill="#230019" />
<rect x="430" y="60" width="50" height="10" fill="#19374B" />
<rect x="480" y="60" width="10" height="10" fill="#230019" />
<rect x="500" y="60" width="10" height="30" fill="#230019" />
<rect x="110" y="70" width="20" height="20" fill="#230019" />
<rect x="150" y="70" width="10" height="10" fill="#254351" />
<rect x="160" y="70" width="30" height="10" fill="#19374B" />
<rect x="190" y="70" width="20" height="20" fill="#230019" />
<rect x="230" y="70" width="10" height="10" fill="#230019" />
<rect x="240" y="70" width="40" height="20" fill="#254351" />
<rect x="360" y="70" width="40" height="20" fill="#254351" />
<rect x="400" y="70" width="10" height="10" fill="#230019" />
<rect x="430" y="70" width="20" height="20" fill="#230019" />
<rect x="450" y="70" width="40" height="10" fill="#19374B" />
<rect x="510" y="70" width="20" height="20" fill="#230019" />
<rect x="100" y="80" width="10" height="30" fill="#230019" />
<rect x="140" y="80" width="10" height="10" fill="#254351" />
<rect x="150" y="80" width="20" height="10" fill="#19374B" />
<rect x="170" y="80" width="20" height="20" fill="#230019" />
<rect x="210" y="80" width="10" height="10" fill="#230019" />
<rect x="220" y="80" width="20" height="60" fill="#254351" />
<rect x="400" y="80" width="20" height="60" fill="#254351" />
<rect x="420" y="80" width="10" height="10" fill="#230019" />
<rect x="450" y="80" width="20" height="20" fill="#230019" />
<rect x="470" y="80" width="30" height="10" fill="#19374B" />
<rect x="530" y="80" width="10" height="30" fill="#230019" />
<rect x="90" y="90" width="10" height="30" fill="#230019" />
<rect x="110" y="90" width="10" height="10" fill="#230019" />
<rect x="120" y="90" width="20" height="10" fill="#254351" />
<rect x="140" y="90" width="20" height="10" fill="#19374B" />
<rect x="160" y="90" width="10" height="30" fill="#230019" />
<rect x="190" y="90" width="10" height="10" fill="#230019" />
<rect x="200" y="90" width="20" height="50" fill="#254351" />
<rect x="240" y="90" width="10" height="50" fill="#254351" />
<rect x="250" y="90" width="50" height="10" fill="#A2B8B1" />
<rect x="300" y="90" width="40" height="80" fill="#254351" />
<rect x="340" y="90" width="50" height="10" fill="#A2B8B1" />
<rect x="390" y="90" width="10" height="50" fill="#254351" />
<rect x="420" y="90" width="20" height="50" fill="#254351" />
<rect x="440" y="90" width="10" height="10" fill="#230019" />
<rect x="470" y="90" width="10" height="30" fill="#230019" />
<rect x="480" y="90" width="40" height="10" fill="#19374B" />
<rect x="520" y="90" width="10" height="10" fill="#230019" />
<rect x="540" y="90" width="10" height="30" fill="#230019" />
<rect x="80" y="100" width="10" height="40" fill="#230019" />
<rect x="110" y="100" width="10" height="10" fill="#254351" />
<rect x="120" y="100" width="30" height="10" fill="#19374B" />
<rect x="150" y="100" width="10" height="30" fill="#230019" />
<rect x="170" y="100" width="10" height="10" fill="#230019" />
<rect x="180" y="100" width="20" height="50" fill="#254351" />
<rect x="250" y="100" width="10" height="210" fill="#A2B8B1" />
<rect x="260" y="100" width="30" height="50" fill="#254351" />
<rect x="290" y="100" width="10" height="210" fill="#A2B8B1" />
<rect x="340" y="100" width="10" height="210" fill="#A2B8B1" />
<rect x="350" y="100" width="30" height="50" fill="#254351" />
<rect x="380" y="100" width="10" height="210" fill="#A2B8B1" />
<rect x="440" y="100" width="20" height="50" fill="#254351" />
<rect x="460" y="100" width="10" height="10" fill="#230019" />
<rect x="480" y="100" width="10" height="30" fill="#230019" />
<rect x="490" y="100" width="40" height="10" fill="#19374B" />
<rect x="550" y="100" width="10" height="40" fill="#230019" />
<rect x="70" y="110" width="10" height="40" fill="#230019" />
<rect x="100" y="110" width="10" height="10" fill="#254351" />
<rect x="110" y="110" width="30" height="10" fill="#19374B" />
<rect x="140" y="110" width="10" height="30" fill="#230019" />
<rect x="170" y="110" width="10" height="50" fill="#254351" />
<rect x="460" y="110" width="10" height="50" fill="#254351" />
<rect x="490" y="110" width="10" height="30" fill="#230019" />
<rect x="500" y="110" width="40" height="10" fill="#19374B" />
<rect x="560" y="110" width="10" height="40" fill="#230019" />
<rect x="90" y="120" width="10" height="20" fill="#254351" />
<rect x="100" y="120" width="30" height="10" fill="#19374B" />
<rect x="130" y="120" width="10" height="30" fill="#230019" />
<rect x="160" y="120" width="10" height="40" fill="#254351" />
<rect x="470" y="120" width="10" height="40" fill="#254351" />
<rect x="500" y="120" width="10" height="30" fill="#230019" />
<rect x="510" y="120" width="40" height="10" fill="#19374B" />
<rect x="60" y="130" width="10" height="30" fill="#230019" />
<rect x="100" y="130" width="20" height="10" fill="#19374B" />
<rect x="120" y="130" width="10" height="30" fill="#230019" />
<rect x="150" y="130" width="10" height="40" fill="#254351" />
<rect x="480" y="130" width="10" height="40" fill="#254351" />
<rect x="510" y="130" width="10" height="30" fill="#230019" />
<rect x="520" y="130" width="30" height="10" fill="#19374B" />
<rect x="570" y="130" width="10" height="30" fill="#230019" />
<rect x="50" y="140" width="10" height="40" fill="#230019" />
<rect x="80" y="140" width="10" height="10" fill="#254351" />
<rect x="90" y="140" width="20" height="10" fill="#19374B" />
<rect x="110" y="140" width="10" height="30" fill="#230019" />
<rect x="140" y="140" width="10" height="50" fill="#254351" />
<rect x="200" y="140" width="50" height="10" fill="#A2B8B1" />
<rect x="390" y="140" width="50" height="10" fill="#A2B8B1" />
<rect x="490" y="140" width="10" height="50" fill="#254351" />
<rect x="520" y="140" width="10" height="30" fill="#230019" />
<rect x="530" y="140" width="30" height="10" fill="#19374B" />
<rect x="580" y="140" width="10" height="40" fill="#230019" />
<rect x="40" y="150" width="10" height="50" fill="#230019" />
<rect x="70" y="150" width="10" height="10" fill="#254351" />
<rect x="80" y="150" width="20" height="10" fill="#19374B" />
<rect x="100" y="150" width="10" height="40" fill="#230019" />
<rect x="130" y="150" width="10" height="60" fill="#254351" />
<rect x="180" y="150" width="20" height="10" fill="#A2B8B1" />
<rect x="200" y="150" width="50" height="40" fill="#254351" />
<rect x="260" y="150" width="10" height="10" fill="#A2B8B1" />
<rect x="270" y="150" width="20" height="10" fill="#254351" />
<rect x="350" y="150" width="20" height="10" fill="#254351" />
<rect x="370" y="150" width="10" height="10" fill="#A2B8B1" />
<rect x="390" y="150" width="50" height="40" fill="#254351" />
<rect x="440" y="150" width="20" height="10" fill="#A2B8B1" />
<rect x="500" y="150" width="10" height="60" fill="#254351" />
<rect x="530" y="150" width="10" height="40" fill="#230019" />
<rect x="540" y="150" width="30" height="10" fill="#19374B" />
<rect x="590" y="150" width="10" height="50" fill="#230019" />
<rect x="60" y="160" width="10" height="20" fill="#254351" />
<rect x="70" y="160" width="20" height="20" fill="#19374B" />
<rect x="90" y="160" width="10" height="50" fill="#230019" />
<rect x="120" y="160" width="10" height="320" fill="#254351" />
<rect x="160" y="160" width="20" height="10" fill="#A2B8B1" />
<rect x="180" y="160" width="20" height="60" fill="#254351" />
<rect x="260" y="160" width="10" height="20" fill="#254351" />
<rect x="270" y="160" width="20" height="10" fill="#A2B8B1" />
<rect x="350" y="160" width="20" height="10" fill="#A2B8B1" />
<rect x="370" y="160" width="10" height="20" fill="#254351" />
<rect x="440" y="160" width="20" height="60" fill="#254351" />
<rect x="460" y="160" width="20" height="10" fill="#A2B8B1" />
<rect x="510" y="160" width="10" height="320" fill="#254351" />
<rect x="540" y="160" width="10" height="50" fill="#230019" />
<rect x="550" y="160" width="30" height="20" fill="#19374B" />
<rect x="30" y="170" width="10" height="60" fill="#230019" />
<rect x="110" y="170" width="10" height="300" fill="#254351" />
<rect x="150" y="170" width="10" height="20" fill="#A2B8B1" />
<rect x="160" y="170" width="20" height="50" fill="#254351" />
<rect x="270" y="170" width="20" height="10" fill="#254351" />
<rect x="300" y="170" width="40" height="10" fill="#A2B8B1" />
<rect x="350" y="170" width="20" height="10" fill="#254351" />
<rect x="460" y="170" width="20" height="50" fill="#254351" />
<rect x="480" y="170" width="10" height="20" fill="#A2B8B1" />
<rect x="520" y="170" width="10" height="300" fill="#254351" />
<rect x="600" y="170" width="10" height="60" fill="#230019" />
<rect x="50" y="180" width="10" height="10" fill="#254351" />
<rect x="60" y="180" width="20" height="20" fill="#19374B" />
<rect x="80" y="180" width="10" height="50" fill="#230019" />
<rect x="260" y="180" width="30" height="10" fill="#A2B8B1" />
<rect x="300" y="180" width="40" height="10" fill="#254351" />
<rect x="350" y="180" width="30" height="10" fill="#A2B8B1" />
<rect x="550" y="180" width="10" height="50" fill="#230019" />
<rect x="560" y="180" width="30" height="20" fill="#19374B" />
<rect x="20" y="190" width="10" height="80" fill="#230019" />
<rect x="50" y="190" width="10" height="70" fill="#19374B" />
<rect x="100" y="190" width="10" height="260" fill="#254351" />
<rect x="140" y="190" width="10" height="20" fill="#A2B8B1" />
<rect x="150" y="190" width="10" height="30" fill="#254351" />
<rect x="200" y="190" width="40" height="10" fill="#254351" />
<rect x="240" y="190" width="10" height="10" fill="#A2B8B1" />
<rect x="260" y="190" width="30" height="30" fill="#254351" />
<rect x="300" y="190" width="10" height="20" fill="#A2B8B1" />
<rect x="310" y="190" width="20" height="20" fill="#254351" />
<rect x="330" y="190" width="10" height="20" fill="#A2B8B1" />
<rect x="350" y="190" width="30" height="30" fill="#254351" />
<rect x="390" y="190" width="10" height="10" fill="#A2B8B1" />
<rect x="400" y="190" width="40" height="10" fill="#254351" />
<rect x="480" y="190" width="10" height="30" fill="#254351" />
<rect x="490" y="190" width="10" height="20" fill="#A2B8B1" />
<rect x="530" y="190" width="10" height="260" fill="#254351" />
<rect x="610" y="190" width="10" height="80" fill="#230019" />
<rect x="40" y="200" width="10" height="240" fill="#19374B" />
<rect x="60" y="200" width="10" height="20" fill="#19374B" />
<rect x="70" y="200" width="10" height="70" fill="#230019" />
<rect x="200" y="200" width="30" height="10" fill="#254351" />
<rect x="230" y="200" width="10" height="10" fill="#A2B8B1" />
<rect x="240" y="200" width="10" height="20" fill="#254351" />
<rect x="390" y="200" width="10" height="20" fill="#254351" />
<rect x="400" y="200" width="10" height="10" fill="#A2B8B1" />
<rect x="410" y="200" width="30" height="10" fill="#254351" />
<rect x="560" y="200" width="10" height="70" fill="#230019" />
<rect x="570" y="200" width="30" height="20" fill="#19374B" />
<rect x="90" y="210" width="10" height="220" fill="#254351" />
<rect x="130" y="210" width="10" height="100" fill="#A2B8B1" />
<rect x="140" y="210" width="10" height="10" fill="#254351" />
<rect x="200" y="210" width="20" height="10" fill="#254351" />
<rect x="220" y="210" width="10" height="20" fill="#A2B8B1" />
<rect x="230" y="210" width="10" height="10" fill="#254351" />
<rect x="300" y="210" width="10" height="40" fill="#254351" />
<rect x="310" y="210" width="20" height="40" fill="#A2B8B1" />
<rect x="330" y="210" width="10" height="40" fill="#254351" />
<rect x="400" y="210" width="10" height="10" fill="#254351" />
<rect x="410" y="210" width="10" height="20" fill="#A2B8B1" />
<rect x="420" y="210" width="20" height="10" fill="#254351" />
<rect x="490" y="210" width="10" height="10" fill="#254351" />
<rect x="500" y="210" width="10" height="100" fill="#A2B8B1" />
<rect x="540" y="210" width="10" height="220" fill="#254351" />
<rect x="10" y="220" width="10" height="200" fill="#230019" />
<rect x="60" y="220" width="10" height="200" fill="#230019" />
<rect x="140" y="220" width="80" height="10" fill="#A2B8B1" />
<rect x="230" y="220" width="20" height="10" fill="#A2B8B1" />
<rect x="260" y="220" width="30" height="10" fill="#A2B8B1" />
<rect x="350" y="220" width="30" height="10" fill="#A2B8B1" />
<rect x="390" y="220" width="20" height="10" fill="#A2B8B1" />
<rect x="420" y="220" width="80" height="10" fill="#A2B8B1" />
<rect x="570" y="220" width="10" height="200" fill="#230019" />
<rect x="580" y="220" width="20" height="40" fill="#19374B" />
<rect x="620" y="220" width="10" height="200" fill="#230019" />
<rect x="30" y="230" width="10" height="180" fill="#19374B" />
<rect x="80" y="230" width="10" height="180" fill="#254351" />
<rect x="140" y="230" width="60" height="10" fill="#254351" />
<rect x="200" y="230" width="10" height="10" fill="#A2B8B1" />
<rect x="210" y="230" width="40" height="70" fill="#254351" />
<rect x="260" y="230" width="30" height="60" fill="#254351" />
<rect x="350" y="230" width="30" height="60" fill="#254351" />
<rect x="390" y="230" width="40" height="70" fill="#254351" />
<rect x="430" y="230" width="10" height="10" fill="#A2B8B1" />
<rect x="440" y="230" width="60" height="10" fill="#254351" />
<rect x="550" y="230" width="10" height="180" fill="#254351" />
<rect x="600" y="230" width="10" height="160" fill="#19374B" />
<rect x="140" y="240" width="50" height="10" fill="#254351" />
<rect x="190" y="240" width="10" height="20" fill="#A2B8B1" />
<rect x="200" y="240" width="10" height="60" fill="#254351" />
<rect x="430" y="240" width="10" height="60" fill="#254351" />
<rect x="440" y="240" width="10" height="20" fill="#A2B8B1" />
<rect x="450" y="240" width="50" height="10" fill="#254351" />
<rect x="140" y="250" width="10" height="20" fill="#A2B8B1" />
<rect x="150" y="250" width="40" height="10" fill="#254351" />
<rect x="300" y="250" width="10" height="20" fill="#A2B8B1" />
<rect x="310" y="250" width="20" height="140" fill="#254351" />
<rect x="330" y="250" width="10" height="20" fill="#A2B8B1" />
<rect x="450" y="250" width="40" height="10" fill="#254351" />
<rect x="490" y="250" width="10" height="20" fill="#A2B8B1" />
<rect x="0" y="260" width="10" height="120" fill="#230019" />
<rect x="50" y="260" width="10" height="120" fill="#230019" />
<rect x="150" y="260" width="30" height="10" fill="#254351" />
<rect x="180" y="260" width="10" height="30" fill="#A2B8B1" />
<rect x="190" y="260" width="10" height="40" fill="#254351" />
<rect x="440" y="260" width="10" height="40" fill="#254351" />
<rect x="450" y="260" width="10" height="30" fill="#A2B8B1" />
<rect x="460" y="260" width="30" height="10" fill="#254351" />
<rect x="580" y="260" width="10" height="120" fill="#230019" />
<rect x="590" y="260" width="10" height="140" fill="#19374B" />
<rect x="630" y="260" width="10" height="120" fill="#230019" />
<rect x="20" y="270" width="10" height="100" fill="#19374B" />
<rect x="70" y="270" width="10" height="100" fill="#254351" />
<rect x="140" y="270" width="10" height="30" fill="#254351" />
<rect x="150" y="270" width="10" height="20" fill="#A2B8B1" />
<rect x="160" y="270" width="20" height="20" fill="#254351" />
<rect x="300" y="270" width="10" height="100" fill="#254351" />
<rect x="330" y="270" width="10" height="100" fill="#254351" />
<rect x="460" y="270" width="20" height="20" fill="#254351" />
<rect x="480" y="270" width="10" height="20" fill="#A2B8B1" />
<rect x="490" y="270" width="10" height="30" fill="#254351" />
<rect x="560" y="270" width="10" height="100" fill="#254351" />
<rect x="610" y="270" width="10" height="100" fill="#19374B" />
<rect x="150" y="290" width="10" height="10" fill="#254351" />
<rect x="160" y="290" width="20" height="20" fill="#A2B8B1" />
<rect x="180" y="290" width="10" height="10" fill="#254351" />
<rect x="260" y="290" width="30" height="20" fill="#A2B8B1" />
<rect x="350" y="290" width="30" height="20" fill="#A2B8B1" />
<rect x="450" y="290" width="10" height="10" fill="#254351" />
<rect x="460" y="290" width="20" height="20" fill="#A2B8B1" />
<rect x="480" y="290" width="10" height="10" fill="#254351" />
<rect x="140" y="300" width="20" height="10" fill="#A2B8B1" />
<rect x="180" y="300" width="70" height="10" fill="#A2B8B1" />
<rect x="390" y="300" width="70" height="10" fill="#A2B8B1" />
<rect x="480" y="300" width="20" height="10" fill="#A2B8B1" />
<rect x="130" y="310" width="40" height="20" fill="#254351" />
<rect x="170" y="310" width="10" height="40" fill="#A2B8B1" />
<rect x="180" y="310" width="20" height="20" fill="#254351" />
<rect x="200" y="310" width="50" height="30" fill="#A2B8B1" />
<rect x="250" y="310" width="50" height="20" fill="#254351" />
<rect x="340" y="310" width="50" height="20" fill="#254351" />
<rect x="390" y="310" width="50" height="30" fill="#A2B8B1" />
<rect x="440" y="310" width="20" height="20" fill="#254351" />
<rect x="460" y="310" width="10" height="40" fill="#A2B8B1" />
<rect x="470" y="310" width="40" height="20" fill="#254351" />
<rect x="130" y="330" width="40" height="10" fill="#A2B8B1" />
<rect x="180" y="330" width="20" height="10" fill="#A2B8B1" />
<rect x="250" y="330" width="50" height="20" fill="#A2B8B1" />
<rect x="340" y="330" width="50" height="20" fill="#A2B8B1" />
<rect x="440" y="330" width="20" height="10" fill="#A2B8B1" />
<rect x="470" y="330" width="40" height="10" fill="#A2B8B1" />
<rect x="130" y="340" width="10" height="90" fill="#A2B8B1" />
<rect x="140" y="340" width="20" height="10" fill="#254351" />
<rect x="160" y="340" width="10" height="10" fill="#A2B8B1" />
<rect x="180" y="340" width="70" height="10" fill="#254351" />
<rect x="390" y="340" width="70" height="10" fill="#254351" />
<rect x="470" y="340" width="10" height="10" fill="#A2B8B1" />
<rect x="480" y="340" width="20" height="10" fill="#254351" />
<rect x="500" y="340" width="10" height="90" fill="#A2B8B1" />
<rect x="140" y="350" width="10" height="20" fill="#254351" />
<rect x="150" y="350" width="10" height="20" fill="#A2B8B1" />
<rect x="160" y="350" width="20" height="60" fill="#254351" />
<rect x="180" y="350" width="10" height="30" fill="#A2B8B1" />
<rect x="190" y="350" width="60" height="30" fill="#254351" />
<rect x="250" y="350" width="10" height="200" fill="#A2B8B1" />
<rect x="260" y="350" width="30" height="60" fill="#254351" />
<rect x="290" y="350" width="10" height="200" fill="#A2B8B1" />
<rect x="340" y="350" width="10" height="200" fill="#A2B8B1" />
<rect x="350" y="350" width="30" height="60" fill="#254351" />
<rect x="380" y="350" width="10" height="200" fill="#A2B8B1" />
<rect x="390" y="350" width="60" height="30" fill="#254351" />
<rect x="450" y="350" width="10" height="30" fill="#A2B8B1" />
<rect x="460" y="350" width="20" height="60" fill="#254351" />
<rect x="480" y="350" width="10" height="20" fill="#A2B8B1" />
<rect x="490" y="350" width="10" height="20" fill="#254351" />
<rect x="20" y="370" width="10" height="80" fill="#230019" />
<rect x="70" y="370" width="10" height="70" fill="#230019" />
<rect x="140" y="370" width="10" height="20" fill="#A2B8B1" />
<rect x="150" y="370" width="10" height="40" fill="#254351" />
<rect x="300" y="370" width="10" height="20" fill="#A2B8B1" />
<rect x="330" y="370" width="10" height="20" fill="#A2B8B1" />
<rect x="480" y="370" width="10" height="40" fill="#254351" />
<rect x="490" y="370" width="10" height="20" fill="#A2B8B1" />
<rect x="560" y="370" width="10" height="70" fill="#230019" />
<rect x="610" y="370" width="10" height="80" fill="#230019" />
<rect x="50" y="380" width="10" height="80" fill="#19374B" />
<rect x="180" y="380" width="10" height="30" fill="#254351" />
<rect x="190" y="380" width="10" height="20" fill="#A2B8B1" />
<rect x="200" y="380" width="50" height="20" fill="#254351" />
<rect x="390" y="380" width="50" height="20" fill="#254351" />
<rect x="440" y="380" width="10" height="20" fill="#A2B8B1" />
<rect x="450" y="380" width="10" height="30" fill="#254351" />
<rect x="580" y="380" width="10" height="40" fill="#19374B" />
<rect x="140" y="390" width="10" height="20" fill="#254351" />
<rect x="300" y="390" width="10" height="40" fill="#254351" />
<rect x="310" y="390" width="20" height="40" fill="#A2B8B1" />
<rect x="330" y="390" width="10" height="40" fill="#254351" />
<rect x="490" y="390" width="10" height="20" fill="#254351" />
<rect x="600" y="390" width="10" height="20" fill="#1F2439" />
<rect x="190" y="400" width="10" height="10" fill="#254351" />
<rect x="200" y="400" width="10" height="20" fill="#A2B8B1" />
<rect x="210" y="400" width="40" height="10" fill="#254351" />
<rect x="390" y="400" width="40" height="10" fill="#254351" />
<rect x="430" y="400" width="10" height="20" fill="#A2B8B1" />
<rect x="440" y="400" width="10" height="10" fill="#254351" />
<rect x="590" y="400" width="10" height="40" fill="#1F2439" />
<rect x="30" y="410" width="10" height="60" fill="#230019" />
<rect x="80" y="410" width="10" height="50" fill="#230019" />
<rect x="140" y="410" width="60" height="10" fill="#A2B8B1" />
<rect x="210" y="410" width="40" height="10" fill="#A2B8B1" />
<rect x="260" y="410" width="30" height="10" fill="#A2B8B1" />
<rect x="350" y="410" width="30" height="10" fill="#A2B8B1" />
<rect x="390" y="410" width="40" height="10" fill="#A2B8B1" />
<rect x="440" y="410" width="60" height="10" fill="#A2B8B1" />
<rect x="550" y="410" width="10" height="50" fill="#230019" />
<rect x="600" y="410" width="10" height="60" fill="#230019" />
<rect x="60" y="420" width="10" height="60" fill="#19374B" />
<rect x="140" y="420" width="80" height="10" fill="#254351" />
<rect x="220" y="420" width="10" height="10" fill="#A2B8B1" />
<rect x="230" y="420" width="20" height="10" fill="#254351" />
<rect x="260" y="420" width="30" height="30" fill="#254351" />
<rect x="350" y="420" width="30" height="30" fill="#254351" />
<rect x="390" y="420" width="20" height="10" fill="#254351" />
<rect x="410" y="420" width="10" height="10" fill="#A2B8B1" />
<rect x="420" y="420" width="80" height="10" fill="#254351" />
<rect x="570" y="420" width="10" height="20" fill="#19374B" />
<rect x="580" y="420" width="10" height="40" fill="#1F2439" />
<rect x="90" y="430" width="10" height="50" fill="#230019" />
<rect x="130" y="430" width="10" height="60" fill="#254351" />
<rect x="140" y="430" width="10" height="20" fill="#A2B8B1" />
<rect x="150" y="430" width="80" height="20" fill="#254351" />
<rect x="230" y="430" width="10" height="10" fill="#A2B8B1" />
<rect x="240" y="430" width="10" height="10" fill="#254351" />
<rect x="300" y="430" width="10" height="20" fill="#A2B8B1" />
<rect x="310" y="430" width="20" height="30" fill="#254351" />
<rect x="330" y="430" width="10" height="20" fill="#A2B8B1" />
<rect x="390" y="430" width="10" height="10" fill="#254351" />
<rect x="400" y="430" width="10" height="10" fill="#A2B8B1" />
<rect x="410" y="430" width="80" height="20" fill="#254351" />
<rect x="490" y="430" width="10" height="20" fill="#A2B8B1" />
<rect x="500" y="430" width="10" height="60" fill="#254351" />
<rect x="540" y="430" width="10" height="50" fill="#230019" />
<rect x="40" y="440" width="10" height="50" fill="#230019" />
<rect x="70" y="440" width="10" height="50" fill="#19374B" />
<rect x="230" y="440" width="10" height="50" fill="#254351" />
<rect x="240" y="440" width="10" height="10" fill="#A2B8B1" />
<rect x="390" y="440" width="10" height="10" fill="#A2B8B1" />
<rect x="400" y="440" width="10" height="50" fill="#254351" />
<rect x="560" y="440" width="10" height="30" fill="#19374B" />
<rect x="570" y="440" width="10" height="40" fill="#1F2439" />
<rect x="590" y="440" width="10" height="50" fill="#230019" />
<rect x="100" y="450" width="10" height="40" fill="#230019" />
<rect x="140" y="450" width="10" height="50" fill="#254351" />
<rect x="150" y="450" width="10" height="20" fill="#A2B8B1" />
<rect x="160" y="450" width="70" height="20" fill="#254351" />
<rect x="240" y="450" width="10" height="40" fill="#254351" />
<rect x="260" y="450" width="30" height="10" fill="#A2B8B1" />
<rect x="300" y="450" width="10" height="10" fill="#254351" />
<rect x="330" y="450" width="10" height="10" fill="#254351" />
<rect x="350" y="450" width="30" height="10" fill="#A2B8B1" />
<rect x="390" y="450" width="10" height="40" fill="#254351" />
<rect x="410" y="450" width="70" height="20" fill="#254351" />
<rect x="480" y="450" width="10" height="20" fill="#A2B8B1" />
<rect x="490" y="450" width="10" height="50" fill="#254351" />
<rect x="530" y="450" width="10" height="40" fill="#230019" />
<rect x="50" y="460" width="10" height="40" fill="#230019" />
<rect x="80" y="460" width="10" height="40" fill="#19374B" />
<rect x="260" y="460" width="30" height="10" fill="#254351" />
<rect x="300" y="460" width="40" height="10" fill="#A2B8B1" />
<rect x="350" y="460" width="30" height="10" fill="#254351" />
<rect x="550" y="460" width="10" height="20" fill="#19374B" />
<rect x="580" y="460" width="10" height="40" fill="#230019" />
<rect x="110" y="470" width="10" height="30" fill="#230019" />
<rect x="150" y="470" width="10" height="40" fill="#254351" />
<rect x="160" y="470" width="20" height="10" fill="#A2B8B1" />
<rect x="180" y="470" width="50" height="10" fill="#254351" />
<rect x="260" y="470" width="10" height="10" fill="#254351" />
<rect x="270" y="470" width="20" height="10" fill="#A2B8B1" />
<rect x="300" y="470" width="40" height="110" fill="#254351" />
<rect x="350" y="470" width="20" height="10" fill="#A2B8B1" />
<rect x="370" y="470" width="10" height="10" fill="#254351" />
<rect x="410" y="470" width="50" height="10" fill="#254351" />
<rect x="460" y="470" width="20" height="10" fill="#A2B8B1" />
<rect x="480" y="470" width="10" height="40" fill="#254351" />
<rect x="520" y="470" width="10" height="30" fill="#230019" />
<rect x="560" y="470" width="10" height="20" fill="#1F2439" />
<rect x="60" y="480" width="10" height="30" fill="#230019" />
<rect x="90" y="480" width="10" height="40" fill="#19374B" />
<rect x="120" y="480" width="10" height="30" fill="#230019" />
<rect x="160" y="480" width="20" height="40" fill="#254351" />
<rect x="180" y="480" width="20" height="10" fill="#A2B8B1" />
<rect x="200" y="480" width="30" height="10" fill="#254351" />
<rect x="260" y="480" width="10" height="10" fill="#A2B8B1" />
<rect x="270" y="480" width="20" height="60" fill="#254351" />
<rect x="350" y="480" width="20" height="60" fill="#254351" />
<rect x="370" y="480" width="10" height="10" fill="#A2B8B1" />
<rect x="410" y="480" width="30" height="10" fill="#254351" />
<rect x="440" y="480" width="20" height="10" fill="#A2B8B1" />
<rect x="460" y="480" width="20" height="40" fill="#254351" />
<rect x="510" y="480" width="10" height="30" fill="#230019" />
<rect x="540" y="480" width="10" height="10" fill="#19374B" />
<rect x="550" y="480" width="10" height="20" fill="#1F2439" />
<rect x="570" y="480" width="10" height="30" fill="#230019" />
<rect x="70" y="490" width="10" height="40" fill="#230019" />
<rect x="100" y="490" width="10" height="40" fill="#19374B" />
<rect x="130" y="490" width="10" height="30" fill="#230019" />
<rect x="180" y="490" width="20" height="50" fill="#254351" />
<rect x="200" y="490" width="50" height="10" fill="#A2B8B1" />
<rect x="260" y="490" width="10" height="50" fill="#254351" />
<rect x="370" y="490" width="10" height="50" fill="#254351" />
<rect x="390" y="490" width="50" height="10" fill="#A2B8B1" />
<rect x="440" y="490" width="20" height="50" fill="#254351" />
<rect x="500" y="490" width="10" height="30" fill="#230019" />
<rect x="530" y="490" width="10" height="10" fill="#19374B" />
<rect x="540" y="490" width="10" height="30" fill="#1F2439" />
<rect x="560" y="490" width="10" height="40" fill="#230019" />
<rect x="80" y="500" width="10" height="40" fill="#230019" />
<rect x="110" y="500" width="10" height="40" fill="#19374B" />
<rect x="140" y="500" width="10" height="30" fill="#230019" />
<rect x="200" y="500" width="50" height="50" fill="#254351" />
<rect x="390" y="500" width="50" height="50" fill="#254351" />
<rect x="490" y="500" width="10" height="30" fill="#230019" />
<rect x="520" y="500" width="10" height="20" fill="#19374B" />
<rect x="530" y="500" width="10" height="30" fill="#1F2439" />
<rect x="550" y="500" width="10" height="40" fill="#230019" />
<rect x="120" y="510" width="10" height="40" fill="#19374B" />
<rect x="150" y="510" width="10" height="30" fill="#230019" />
<rect x="480" y="510" width="10" height="30" fill="#230019" />
<rect x="510" y="510" width="10" height="20" fill="#19374B" />
<rect x="90" y="520" width="10" height="30" fill="#230019" />
<rect x="130" y="520" width="10" height="30" fill="#19374B" />
<rect x="160" y="520" width="10" height="30" fill="#230019" />
<rect x="170" y="520" width="10" height="10" fill="#254351" />
<rect x="460" y="520" width="10" height="10" fill="#254351" />
<rect x="470" y="520" width="10" height="30" fill="#230019" />
<rect x="500" y="520" width="10" height="20" fill="#19374B" />
<rect x="520" y="520" width="10" height="20" fill="#1F2439" />
<rect x="540" y="520" width="10" height="30" fill="#230019" />
<rect x="100" y="530" width="10" height="30" fill="#230019" />
<rect x="140" y="530" width="10" height="30" fill="#19374B" />
<rect x="170" y="530" width="10" height="30" fill="#230019" />
<rect x="460" y="530" width="10" height="30" fill="#230019" />
<rect x="490" y="530" width="10" height="20" fill="#19374B" />
<rect x="510" y="530" width="10" height="20" fill="#1F2439" />
<rect x="530" y="530" width="10" height="30" fill="#230019" />
<rect x="110" y="540" width="10" height="30" fill="#230019" />
<rect x="150" y="540" width="10" height="30" fill="#19374B" />
<rect x="180" y="540" width="20" height="20" fill="#230019" />
<rect x="260" y="540" width="30" height="10" fill="#A2B8B1" />
<rect x="350" y="540" width="30" height="10" fill="#A2B8B1" />
<rect x="440" y="540" width="20" height="20" fill="#230019" />
<rect x="480" y="540" width="10" height="20" fill="#19374B" />
<rect x="500" y="540" width="10" height="10" fill="#1F2439" />
<rect x="520" y="540" width="10" height="30" fill="#230019" />
<rect x="120" y="550" width="20" height="20" fill="#230019" />
<rect x="160" y="550" width="10" height="30" fill="#19374B" />
<rect x="200" y="550" width="20" height="20" fill="#230019" />
<rect x="220" y="550" width="80" height="10" fill="#254351" />
<rect x="340" y="550" width="80" height="10" fill="#254351" />
<rect x="420" y="550" width="20" height="20" fill="#230019" />
<rect x="470" y="550" width="10" height="20" fill="#19374B" />
<rect x="490" y="550" width="10" height="10" fill="#1F2439" />
<rect x="500" y="550" width="20" height="20" fill="#230019" />
<rect x="140" y="560" width="10" height="30" fill="#230019" />
<rect x="170" y="560" width="20" height="20" fill="#19374B" />
<rect x="190" y="560" width="10" height="10" fill="#230019" />
<rect x="220" y="560" width="20" height="20" fill="#230019" />
<rect x="240" y="560" width="60" height="10" fill="#254351" />
<rect x="340" y="560" width="60" height="10" fill="#254351" />
<rect x="400" y="560" width="20" height="20" fill="#230019" />
<rect x="440" y="560" width="10" height="10" fill="#230019" />
<rect x="450" y="560" width="20" height="10" fill="#19374B" />
<rect x="480" y="560" width="10" height="10" fill="#1F2439" />
<rect x="490" y="560" width="10" height="30" fill="#230019" />
<rect x="130" y="570" width="10" height="10" fill="#230019" />
<rect x="150" y="570" width="10" height="30" fill="#230019" />
<rect x="190" y="570" width="20" height="20" fill="#19374B" />
<rect x="210" y="570" width="10" height="10" fill="#230019" />
<rect x="240" y="570" width="40" height="20" fill="#230019" />
<rect x="280" y="570" width="20" height="10" fill="#254351" />
<rect x="340" y="570" width="20" height="10" fill="#254351" />
<rect x="360" y="570" width="40" height="20" fill="#230019" />
<rect x="420" y="570" width="10" height="10" fill="#230019" />
<rect x="430" y="570" width="30" height="10" fill="#19374B" />
<rect x="460" y="570" width="20" height="10" fill="#1F2439" />
<rect x="480" y="570" width="10" height="30" fill="#230019" />
<rect x="500" y="570" width="10" height="10" fill="#230019" />
<rect x="160" y="580" width="20" height="20" fill="#230019" />
<rect x="180" y="580" width="10" height="10" fill="#19374B" />
<rect x="210" y="580" width="20" height="20" fill="#19374B" />
<rect x="230" y="580" width="10" height="10" fill="#230019" />
<rect x="280" y="580" width="80" height="20" fill="#230019" />
<rect x="400" y="580" width="10" height="10" fill="#230019" />
<rect x="410" y="580" width="30" height="10" fill="#19374B" />
<rect x="440" y="580" width="20" height="10" fill="#1F2439" />
<rect x="460" y="580" width="20" height="20" fill="#230019" />
<rect x="180" y="590" width="20" height="20" fill="#230019" />
<rect x="200" y="590" width="10" height="10" fill="#19374B" />
<rect x="230" y="590" width="40" height="20" fill="#19374B" />
<rect x="270" y="590" width="10" height="10" fill="#230019" />
<rect x="360" y="590" width="10" height="10" fill="#230019" />
<rect x="370" y="590" width="40" height="10" fill="#19374B" />
<rect x="410" y="590" width="30" height="10" fill="#1F2439" />
<rect x="440" y="590" width="20" height="20" fill="#230019" />
<rect x="170" y="600" width="10" height="10" fill="#230019" />
<rect x="200" y="600" width="30" height="20" fill="#230019" />
<rect x="270" y="600" width="100" height="10" fill="#19374B" />
<rect x="370" y="600" width="40" height="10" fill="#1F2439" />
<rect x="410" y="600" width="30" height="20" fill="#230019" />
<rect x="460" y="600" width="10" height="10" fill="#230019" />
<rect x="190" y="610" width="10" height="10" fill="#230019" />
<rect x="230" y="610" width="40" height="20" fill="#230019" />
<rect x="270" y="610" width="100" height="10" fill="#1F2439" />
<rect x="370" y="610" width="40" height="20" fill="#230019" />
<rect x="440" y="610" width="10" height="10" fill="#230019" />
<rect x="220" y="620" width="10" height="10" fill="#230019" />
<rect x="270" y="620" width="100" height="20" fill="#230019" />
<rect x="410" y="620" width="10" height="10" fill="#230019" />
<rect x="260" y="630" width="10" height="10" fill="#230019" />
<rect x="370" y="630" width="10" height="10" fill="#230019" />
</svg>