<?xml version="1.0" encoding="UTF-8" ?>
<svg version="1.1" width="1600" height="1800" xmlns="http://www.w3.org/2000/svg" shape-rendering="crispEdges">
<rect x="990" y="310" width="10" height="30" fill="#A2B8B1" />
<rect x="970" y="350" width="10" height="20" fill="#A2B8B1" />
<rect x="960" y="360" width="10" height="30" fill="#A2B8B1" />
<rect x="980" y="390" width="10" height="30" fill="#A2B8B1" />
<rect x="960" y="420" width="10" height="30" fill="#A2B8B1" />
<rect x="970" y="440" width="20" height="30" fill="#A2B8B1" />
<rect x="960" y="460" width="10" height="10" fill="#A2B8B1" />
<rect x="990" y="460" width="20" height="10" fill="#A2B8B1" />
<rect x="950" y="470" width="70" height="10" fill="#230019" />
<rect x="950" y="480" width="10" height="40" fill="#230019" />
<rect x="960" y="480" width="10" height="40" fill="#396D7D" />
<rect x="970" y="480" width="40" height="30" fill="#557B78" />
<rect x="1010" y="480" width="10" height="40" fill="#719797" />
<rect x="1020" y="480" width="20" height="10" fill="#230019" />
<rect x="1020" y="490" width="10" height="30" fill="#230019" />
<rect x="1040" y="490" width="10" height="20" fill="#230019" />
<rect x="970" y="510" width="10" height="20" fill="#396D7D" />
<rect x="980" y="510" width="30" height="10" fill="#557B78" />
<rect x="1030" y="510" width="10" height="10" fill="#230019" />
<rect x="960" y="520" width="10" height="10" fill="#230019" />
<rect x="980" y="520" width="10" height="10" fill="#396D7D" />
<rect x="990" y="520" width="20" height="10" fill="#557B78" />
<rect x="1010" y="520" width="10" height="10" fill="#230019" />
<rect x="970" y="530" width="40" height="20" fill="#230019" />
<rect x="950" y="540" width="20" height="10" fill="#230019" />
<rect x="1010" y="540" width="20" height="10" fill="#230019" />
<rect x="760" y="550" width="160" height="10" fill="#1F2439" />
<rect x="920" y="550" width="10" height="10" fill="#19374B" />
<rect x="930" y="550" width="10" height="10" fill="#254351" />
<rect x="940" y="550" width="10" height="10" fill="#3C5F66" />
<rect x="950" y="550" width="20" height="10" fill="#396D7D" />
<rect x="970" y="550" width="30" height="10" fill="#557B78" />
<rect x="1000" y="550" width="50" height="10" fill="#719797" />
<rect x="1050" y="550" width="550" height="10" fill="#A2B8B1" />
<rect x="760" y="560" width="840" height="10" fill="#230019" />
<rect x="790" y="570" width="20" height="240" fill="#230019" />
<rect x="860" y="570" width="10" height="200" fill="#230019" />
<rect x="920" y="570" width="10" height="200" fill="#230019" />
<rect x="980" y="570" width="10" height="200" fill="#230019" />
<rect x="1040" y="570" width="10" height="10" fill="#A2B8B1" />
<rect x="1100" y="570" width="10" height="20" fill="#A2B8B1" />
<rect x="1160" y="570" width="10" height="30" fill="#A2B8B1" />
<rect x="1220" y="570" width="10" height="60" fill="#A2B8B1" />
<rect x="1280" y="570" width="10" height="80" fill="#A2B8B1" />
<rect x="1340" y="570" width="10" height="80" fill="#A2B8B1" />
<rect x="1400" y="570" width="10" height="80" fill="#A2B8B1" />
<rect x="1460" y="570" width="10" height="60" fill="#A2B8B1" />
<rect x="1520" y="570" width="10" height="30" fill="#A2B8B1" />
<rect x="1580" y="570" width="10" height="20" fill="#A2B8B1" />
<rect x="1040" y="580" width="10" height="10" fill="#719797" />
<rect x="1040" y="590" width="10" height="70" fill="#557B78" />
<rect x="1100" y="590" width="10" height="10" fill="#719797" />
<rect x="1580" y="590" width="10" height="10" fill="#719797" />
<rect x="1100" y="600" width="10" height="100" fill="#557B78" />
<rect x="1160" y="600" width="10" height="20" fill="#719797" />
<rect x="1520" y="600" width="10" height="20" fill="#719797" />
<rect x="1580" y="600" width="10" height="100" fill="#557B78" />
<rect x="1160" y="620" width="10" height="110" fill="#557B78" />
<rect x="1520" y="620" width="10" height="110" fill="#557B78" />
<rect x="1220" y="630" width="10" height="20" fill="#719797" />
<rect x="1460" y="630" width="10" height="20" fill="#719797" />
<rect x="1220" y="650" width="10" height="90" fill="#557B78" />
<rect x="1280" y="650" width="10" height="30" fill="#719797" />
<rect x="1340" y="650" width="10" height="30" fill="#719797" />
<rect x="1400" y="650" width="10" height="30" fill="#719797" />
<rect x="1460" y="650" width="10" height="90" fill="#557B78" />
<rect x="1040" y="660" width="10" height="110" fill="#230019" />
<rect x="1280" y="680" width="10" height="70" fill="#557B78" />
<rect x="1340" y="680" width="10" height="70" fill="#557B78" />
<rect x="1400" y="680" width="10" height="70" fill="#557B78" />
<rect x="1100" y="700" width="10" height="70" fill="#230019" />
<rect x="1580" y="700" width="10" height="70" fill="#230019" />
<rect x="1160" y="730" width="10" height="40" fill="#230019" />
<rect x="1520" y="730" width="10" height="40" fill="#230019" />
<rect x="1220" y="740" width="10" height="30" fill="#230019" />
<rect x="1460" y="740" width="10" height="30" fill="#230019" />
<rect x="1280" y="750" width="10" height="20" fill="#230019" />
<rect x="1340" y="750" width="10" height="20" fill="#230019" />
<rect x="1400" y="750" width="10" height="20" fill="#230019" />
<rect x="810" y="760" width="50" height="10" fill="#230019" />
<rect x="870" y="760" width="50" height="10" fill="#230019" />
<rect x="930" y="760" width="50" height="10" fill="#230019" />
<rect x="990" y="760" width="50" height="10" fill="#230019" />
<rect x="1050" y="760" width="50" height="10" fill="#230019" />
<rect x="1110" y="760" width="50" height="10" fill="#230019" />
<rect x="1170" y="760" width="50" height="10" fill="#230019" />
<rect x="1230" y="760" width="50" height="10" fill="#230019" />
<rect x="1290" y="760" width="50" height="10" fill="#230019" />
<rect x="1350" y="760" width="50" height="10" fill="#230019" />
<rect x="1410" y="760" width="50" height="10" fill="#230019" />
<rect x="1470" y="760" width="50" height="10" fill="#230019" />
<rect x="1530" y="760" width="50" height="10" fill="#230019" />
<rect x="1590" y="760" width="10" height="10" fill="#230019" />
<rect x="760" y="780" width="30" height="20" fill="#230019" />
<rect x="810" y="780" width="790" height="30" fill="#230019" />
<rect x="780" y="800" width="10" height="10" fill="#230019" />
<rect x="920" y="810" width="680" height="990" fill="#230019" />
</svg>