<?xml version="1.0" encoding="UTF-8" ?>
<svg version="1.1" width="1600" height="1600" xmlns="http://www.w3.org/2000/svg" shape-rendering="crispEdges">
<rect x="0" y="0" width="50" height="20" fill="#3C5F66" />
<rect x="50" y="0" width="10" height="30" fill="#1F2439" />
<rect x="60" y="0" width="80" height="20" fill="#3C5F66" />
<rect x="140" y="0" width="30" height="1600" fill="#230019" />
<rect x="0" y="20" width="50" height="10" fill="#1F2439" />
<rect x="60" y="20" width="80" height="10" fill="#1F2439" />
<rect x="0" y="30" width="10" height="50" fill="#1F2439" />
<rect x="10" y="30" width="80" height="10" fill="#254351" />
<rect x="90" y="30" width="10" height="50" fill="#1F2439" />
<rect x="100" y="30" width="40" height="10" fill="#254351" />
<rect x="10" y="40" width="10" height="10" fill="#254351" />
<rect x="20" y="40" width="70" height="10" fill="#3C5F66" />
<rect x="100" y="40" width="10" height="10" fill="#254351" />
<rect x="110" y="40" width="30" height="10" fill="#3C5F66" />
<rect x="10" y="50" width="70" height="10" fill="#3C5F66" />
<rect x="80" y="50" width="10" height="20" fill="#396D7D" />
<rect x="100" y="50" width="30" height="10" fill="#3C5F66" />
<rect x="130" y="50" width="10" height="20" fill="#396D7D" />
<rect x="10" y="60" width="50" height="10" fill="#3C5F66" />
<rect x="60" y="60" width="20" height="10" fill="#396D7D" />
<rect x="100" y="60" width="20" height="10" fill="#3C5F66" />
<rect x="120" y="60" width="10" height="10" fill="#396D7D" />
<rect x="10" y="70" width="80" height="10" fill="#1F2439" />
<rect x="100" y="70" width="40" height="10" fill="#1F2439" />
<rect x="0" y="80" width="30" height="10" fill="#254351" />
<rect x="30" y="80" width="20" height="20" fill="#3C5F66" />
<rect x="50" y="80" width="10" height="50" fill="#1F2439" />
<rect x="60" y="80" width="40" height="10" fill="#254351" />
<rect x="100" y="80" width="40" height="20" fill="#3C5F66" />
<rect x="0" y="90" width="30" height="20" fill="#3C5F66" />
<rect x="60" y="90" width="10" height="10" fill="#254351" />
<rect x="70" y="90" width="30" height="30" fill="#3C5F66" />
<rect x="30" y="100" width="10" height="10" fill="#3C5F66" />
<rect x="40" y="100" width="10" height="20" fill="#396D7D" />
<rect x="60" y="100" width="10" height="20" fill="#3C5F66" />
<rect x="100" y="100" width="30" height="10" fill="#3C5F66" />
<rect x="130" y="100" width="10" height="20" fill="#396D7D" />
<rect x="0" y="110" width="20" height="10" fill="#3C5F66" />
<rect x="20" y="110" width="20" height="10" fill="#396D7D" />
<rect x="100" y="110" width="10" height="10" fill="#3C5F66" />
<rect x="110" y="110" width="20" height="10" fill="#396D7D" />
<rect x="0" y="120" width="50" height="10" fill="#1F2439" />
<rect x="60" y="120" width="80" height="10" fill="#1F2439" />
<rect x="0" y="130" width="10" height="50" fill="#1F2439" />
<rect x="10" y="130" width="50" height="10" fill="#254351" />
<rect x="60" y="130" width="30" height="20" fill="#3C5F66" />
<rect x="90" y="130" width="10" height="50" fill="#1F2439" />
<rect x="100" y="130" width="20" height="40" fill="#396D7D" />
<rect x="120" y="130" width="20" height="10" fill="#557B78" />
<rect x="10" y="140" width="10" height="10" fill="#254351" />
<rect x="20" y="140" width="40" height="30" fill="#3C5F66" />
<rect x="120" y="140" width="10" height="30" fill="#396D7D" />
<rect x="130" y="140" width="10" height="10" fill="#557B78" />
<rect x="10" y="150" width="10" height="20" fill="#3C5F66" />
<rect x="60" y="150" width="20" height="10" fill="#3C5F66" />
<rect x="80" y="150" width="10" height="20" fill="#396D7D" />
<rect x="130" y="150" width="10" height="20" fill="#396D7D" />
<rect x="60" y="160" width="20" height="10" fill="#396D7D" />
<rect x="10" y="170" width="80" height="10" fill="#1F2439" />
<rect x="100" y="170" width="40" height="10" fill="#1F2439" />
<rect x="0" y="180" width="20" height="10" fill="#254351" />
<rect x="20" y="180" width="30" height="20" fill="#3C5F66" />
<rect x="50" y="180" width="10" height="50" fill="#1F2439" />
<rect x="60" y="180" width="40" height="40" fill="#396D7D" />
<rect x="100" y="180" width="40" height="10" fill="#557B78" />
<rect x="0" y="190" width="20" height="30" fill="#3C5F66" />
<rect x="100" y="190" width="30" height="30" fill="#396D7D" />
<rect x="130" y="190" width="10" height="10" fill="#557B78" />
<rect x="20" y="200" width="20" height="10" fill="#3C5F66" />
<rect x="40" y="200" width="10" height="20" fill="#396D7D" />
<rect x="130" y="200" width="10" height="20" fill="#396D7D" />
<rect x="20" y="210" width="20" height="10" fill="#396D7D" />
<rect x="0" y="220" width="50" height="10" fill="#1F2439" />
<rect x="60" y="220" width="80" height="10" fill="#1F2439" />
<rect x="0" y="230" width="10" height="50" fill="#1F2439" />
<rect x="10" y="230" width="10" height="40" fill="#3C5F66" />
<rect x="20" y="230" width="70" height="40" fill="#396D7D" />
<rect x="90" y="230" width="10" height="50" fill="#1F2439" />
<rect x="100" y="230" width="20" height="40" fill="#396D7D" />
<rect x="120" y="230" width="20" height="10" fill="#557B78" />
<rect x="120" y="240" width="10" height="30" fill="#396D7D" />
<rect x="130" y="240" width="10" height="10" fill="#557B78" />
<rect x="130" y="250" width="10" height="20" fill="#396D7D" />
<rect x="10" y="270" width="80" height="10" fill="#1F2439" />
<rect x="100" y="270" width="40" height="10" fill="#1F2439" />
<rect x="0" y="280" width="20" height="40" fill="#3C5F66" />
<rect x="20" y="280" width="30" height="40" fill="#396D7D" />
<rect x="50" y="280" width="10" height="50" fill="#1F2439" />
<rect x="60" y="280" width="40" height="40" fill="#396D7D" />
<rect x="100" y="280" width="40" height="10" fill="#557B78" />
<rect x="100" y="290" width="30" height="30" fill="#396D7D" />
<rect x="130" y="290" width="10" height="10" fill="#557B78" />
<rect x="130" y="300" width="10" height="20" fill="#396D7D" />
<rect x="0" y="320" width="50" height="10" fill="#1F2439" />
<rect x="60" y="320" width="80" height="10" fill="#1F2439" />
<rect x="0" y="330" width="10" height="50" fill="#1F2439" />
<rect x="10" y="330" width="10" height="40" fill="#3C5F66" />
<rect x="20" y="330" width="70" height="40" fill="#396D7D" />
<rect x="90" y="330" width="10" height="50" fill="#1F2439" />
<rect x="100" y="330" width="20" height="40" fill="#396D7D" />
<rect x="120" y="330" width="20" height="10" fill="#719797" />
<rect x="120" y="340" width="10" height="30" fill="#396D7D" />
<rect x="130" y="340" width="10" height="10" fill="#719797" />
<rect x="130" y="350" width="10" height="20" fill="#396D7D" />
<rect x="10" y="370" width="80" height="10" fill="#1F2439" />
<rect x="100" y="370" width="40" height="10" fill="#1F2439" />
<rect x="0" y="380" width="20" height="40" fill="#3C5F66" />
<rect x="20" y="380" width="30" height="40" fill="#396D7D" />
<rect x="50" y="380" width="10" height="50" fill="#1F2439" />
<rect x="60" y="380" width="30" height="40" fill="#396D7D" />
<rect x="90" y="380" width="50" height="10" fill="#719797" />
<rect x="90" y="390" width="40" height="30" fill="#396D7D" />
<rect x="130" y="390" width="10" height="10" fill="#719797" />
<rect x="130" y="400" width="10" height="20" fill="#396D7D" />
<rect x="0" y="420" width="50" height="10" fill="#1F2439" />
<rect x="60" y="420" width="80" height="10" fill="#1F2439" />
<rect x="0" y="430" width="20" height="40" fill="#3C5F66" />
<rect x="20" y="430" width="70" height="40" fill="#396D7D" />
<rect x="90" y="430" width="10" height="50" fill="#1F2439" />
<rect x="100" y="430" width="20" height="40" fill="#396D7D" />
<rect x="120" y="430" width="20" height="10" fill="#719797" />
<rect x="120" y="440" width="10" height="30" fill="#396D7D" />
<rect x="130" y="440" width="10" height="10" fill="#719797" />
<rect x="130" y="450" width="10" height="20" fill="#396D7D" />
<rect x="0" y="470" width="90" height="10" fill="#1F2439" />
<rect x="100" y="470" width="40" height="10" fill="#1F2439" />
<rect x="0" y="480" width="20" height="40" fill="#3C5F66" />
<rect x="20" y="480" width="30" height="40" fill="#396D7D" />
<rect x="50" y="480" width="10" height="50" fill="#1F2439" />
<rect x="60" y="480" width="30" height="40" fill="#396D7D" />
<rect x="90" y="480" width="50" height="10" fill="#719797" />
<rect x="90" y="490" width="40" height="30" fill="#396D7D" />
<rect x="130" y="490" width="10" height="10" fill="#719797" />
<rect x="130" y="500" width="10" height="20" fill="#396D7D" />
<rect x="0" y="520" width="50" height="10" fill="#1F2439" />
<rect x="60" y="520" width="80" height="10" fill="#1F2439" />
<rect x="0" y="530" width="10" height="50" fill="#1F2439" />
<rect x="10" y="530" width="10" height="40" fill="#3C5F66" />
<rect x="20" y="530" width="70" height="40" fill="#396D7D" />
<rect x="90" y="530" width="10" height="50" fill="#1F2439" />
<rect x="100" y="530" width="20" height="40" fill="#396D7D" />
<rect x="120" y="530" width="20" height="10" fill="#719797" />
<rect x="120" y="540" width="10" height="30" fill="#396D7D" />
<rect x="130" y="540" width="10" height="10" fill="#719797" />
<rect x="130" y="550" width="10" height="20" fill="#396D7D" />
<rect x="10" y="570" width="80" height="10" fill="#1F2439" />
<rect x="100" y="570" width="40" height="10" fill="#1F2439" />
<rect x="0" y="580" width="20" height="40" fill="#3C5F66" />
<rect x="20" y="580" width="30" height="40" fill="#396D7D" />
<rect x="50" y="580" width="10" height="50" fill="#1F2439" />
<rect x="60" y="580" width="40" height="40" fill="#396D7D" />
<rect x="100" y="580" width="40" height="10" fill="#557B78" />
<rect x="100" y="590" width="30" height="30" fill="#396D7D" />
<rect x="130" y="590" width="10" height="10" fill="#557B78" />
<rect x="130" y="600" width="10" height="20" fill="#396D7D" />
<rect x="0" y="620" width="50" height="10" fill="#1F2439" />
<rect x="60" y="620" width="80" height="10" fill="#1F2439" />
<rect x="0" y="630" width="10" height="50" fill="#1F2439" />
<rect x="10" y="630" width="10" height="40" fill="#3C5F66" />
<rect x="20" y="630" width="70" height="40" fill="#396D7D" />
<rect x="90" y="630" width="10" height="50" fill="#1F2439" />
<rect x="100" y="630" width="20" height="40" fill="#396D7D" />
<rect x="120" y="630" width="20" height="10" fill="#557B78" />
<rect x="120" y="640" width="10" height="30" fill="#396D7D" />
<rect x="130" y="640" width="10" height="10" fill="#557B78" />
<rect x="130" y="650" width="10" height="20" fill="#396D7D" />
<rect x="10" y="670" width="80" height="10" fill="#1F2439" />
<rect x="100" y="670" width="40" height="10" fill="#1F2439" />
<rect x="0" y="680" width="20" height="30" fill="#3C5F66" />
<rect x="20" y="680" width="30" height="10" fill="#396D7D" />
<rect x="50" y="680" width="10" height="50" fill="#1F2439" />
<rect x="60" y="680" width="40" height="40" fill="#396D7D" />
<rect x="100" y="680" width="40" height="10" fill="#557B78" />
<rect x="20" y="690" width="20" height="20" fill="#3C5F66" />
<rect x="40" y="690" width="10" height="10" fill="#396D7D" />
<rect x="100" y="690" width="30" height="30" fill="#396D7D" />
<rect x="130" y="690" width="10" height="10" fill="#557B78" />
<rect x="40" y="700" width="10" height="20" fill="#3C5F66" />
<rect x="130" y="700" width="10" height="20" fill="#396D7D" />
<rect x="0" y="710" width="30" height="10" fill="#254351" />
<rect x="30" y="710" width="10" height="10" fill="#3C5F66" />
<rect x="0" y="720" width="50" height="10" fill="#1F2439" />
<rect x="60" y="720" width="80" height="10" fill="#1F2439" />
<rect x="0" y="730" width="10" height="50" fill="#1F2439" />
<rect x="10" y="730" width="50" height="20" fill="#3C5F66" />
<rect x="60" y="730" width="30" height="10" fill="#396D7D" />
<rect x="90" y="730" width="10" height="50" fill="#1F2439" />
<rect x="100" y="730" width="20" height="20" fill="#3C5F66" />
<rect x="120" y="730" width="20" height="10" fill="#396D7D" />
<rect x="60" y="740" width="20" height="30" fill="#3C5F66" />
<rect x="80" y="740" width="10" height="10" fill="#396D7D" />
<rect x="120" y="740" width="10" height="30" fill="#3C5F66" />
<rect x="130" y="740" width="10" height="10" fill="#396D7D" />
<rect x="10" y="750" width="10" height="20" fill="#254351" />
<rect x="20" y="750" width="40" height="10" fill="#3C5F66" />
<rect x="80" y="750" width="10" height="20" fill="#3C5F66" />
<rect x="100" y="750" width="10" height="20" fill="#254351" />
<rect x="110" y="750" width="10" height="10" fill="#3C5F66" />
<rect x="130" y="750" width="10" height="20" fill="#3C5F66" />
<rect x="20" y="760" width="30" height="10" fill="#254351" />
<rect x="50" y="760" width="10" height="10" fill="#3C5F66" />
<rect x="110" y="760" width="10" height="10" fill="#254351" />
<rect x="10" y="770" width="80" height="10" fill="#1F2439" />
<rect x="100" y="770" width="40" height="10" fill="#1F2439" />
<rect x="0" y="780" width="30" height="30" fill="#3C5F66" />
<rect x="30" y="780" width="20" height="10" fill="#396D7D" />
<rect x="50" y="780" width="10" height="50" fill="#1F2439" />
<rect x="60" y="780" width="40" height="20" fill="#3C5F66" />
<rect x="100" y="780" width="40" height="10" fill="#396D7D" />
<rect x="30" y="790" width="10" height="20" fill="#3C5F66" />
<rect x="40" y="790" width="10" height="10" fill="#396D7D" />
<rect x="100" y="790" width="30" height="20" fill="#3C5F66" />
<rect x="130" y="790" width="10" height="10" fill="#396D7D" />
<rect x="40" y="800" width="10" height="10" fill="#3C5F66" />
<rect x="60" y="800" width="10" height="20" fill="#254351" />
<rect x="70" y="800" width="30" height="10" fill="#3C5F66" />
<rect x="130" y="800" width="10" height="10" fill="#3C5F66" />
<rect x="0" y="810" width="50" height="10" fill="#254351" />
<rect x="70" y="810" width="70" height="10" fill="#254351" />
<rect x="0" y="820" width="50" height="10" fill="#1F2439" />
<rect x="60" y="820" width="80" height="10" fill="#1F2439" />
<rect x="0" y="830" width="10" height="50" fill="#1F2439" />
<rect x="10" y="830" width="60" height="20" fill="#3C5F66" />
<rect x="70" y="830" width="20" height="10" fill="#396D7D" />
<rect x="90" y="830" width="10" height="50" fill="#1F2439" />
<rect x="100" y="830" width="20" height="20" fill="#3C5F66" />
<rect x="120" y="830" width="20" height="10" fill="#396D7D" />
<rect x="70" y="840" width="10" height="20" fill="#3C5F66" />
<rect x="80" y="840" width="10" height="10" fill="#396D7D" />
<rect x="120" y="840" width="10" height="20" fill="#3C5F66" />
<rect x="130" y="840" width="10" height="10" fill="#396D7D" />
<rect x="10" y="850" width="10" height="20" fill="#254351" />
<rect x="20" y="850" width="50" height="10" fill="#3C5F66" />
<rect x="80" y="850" width="10" height="10" fill="#3C5F66" />
<rect x="100" y="850" width="10" height="20" fill="#254351" />
<rect x="110" y="850" width="10" height="10" fill="#3C5F66" />
<rect x="130" y="850" width="10" height="10" fill="#3C5F66" />
<rect x="20" y="860" width="70" height="10" fill="#254351" />
<rect x="110" y="860" width="30" height="10" fill="#254351" />
<rect x="10" y="870" width="80" height="10" fill="#1F2439" />
<rect x="100" y="870" width="40" height="10" fill="#1F2439" />
<rect x="0" y="880" width="30" height="30" fill="#3C5F66" />
<rect x="30" y="880" width="20" height="10" fill="#396D7D" />
<rect x="50" y="880" width="10" height="50" fill="#1F2439" />
<rect x="60" y="880" width="60" height="20" fill="#3C5F66" />
<rect x="120" y="880" width="20" height="10" fill="#396D7D" />
<rect x="30" y="890" width="10" height="20" fill="#3C5F66" />
<rect x="40" y="890" width="10" height="10" fill="#396D7D" />
<rect x="120" y="890" width="10" height="20" fill="#3C5F66" />
<rect x="130" y="890" width="10" height="10" fill="#396D7D" />
<rect x="40" y="900" width="10" height="10" fill="#3C5F66" />
<rect x="60" y="900" width="10" height="20" fill="#254351" />
<rect x="70" y="900" width="50" height="10" fill="#3C5F66" />
<rect x="130" y="900" width="10" height="10" fill="#3C5F66" />
<rect x="0" y="910" width="50" height="10" fill="#254351" />
<rect x="70" y="910" width="70" height="10" fill="#254351" />
<rect x="0" y="920" width="50" height="10" fill="#1F2439" />
<rect x="60" y="920" width="80" height="10" fill="#1F2439" />
<rect x="0" y="930" width="10" height="50" fill="#1F2439" />
<rect x="10" y="930" width="60" height="20" fill="#3C5F66" />
<rect x="70" y="930" width="20" height="10" fill="#396D7D" />
<rect x="90" y="930" width="10" height="50" fill="#1F2439" />
<rect x="100" y="930" width="20" height="20" fill="#3C5F66" />
<rect x="120" y="930" width="20" height="10" fill="#396D7D" />
<rect x="70" y="940" width="10" height="20" fill="#3C5F66" />
<rect x="80" y="940" width="10" height="10" fill="#396D7D" />
<rect x="120" y="940" width="10" height="20" fill="#3C5F66" />
<rect x="130" y="940" width="10" height="10" fill="#396D7D" />
<rect x="10" y="950" width="10" height="20" fill="#254351" />
<rect x="20" y="950" width="50" height="10" fill="#3C5F66" />
<rect x="80" y="950" width="10" height="10" fill="#3C5F66" />
<rect x="100" y="950" width="10" height="20" fill="#254351" />
<rect x="110" y="950" width="10" height="10" fill="#3C5F66" />
<rect x="130" y="950" width="10" height="10" fill="#3C5F66" />
<rect x="20" y="960" width="70" height="10" fill="#254351" />
<rect x="110" y="960" width="30" height="10" fill="#254351" />
<rect x="10" y="970" width="80" height="10" fill="#1F2439" />
<rect x="100" y="970" width="40" height="10" fill="#1F2439" />
<rect x="0" y="980" width="30" height="30" fill="#3C5F66" />
<rect x="30" y="980" width="20" height="10" fill="#396D7D" />
<rect x="50" y="980" width="10" height="50" fill="#1F2439" />
<rect x="60" y="980" width="60" height="20" fill="#3C5F66" />
<rect x="120" y="980" width="20" height="10" fill="#396D7D" />
<rect x="30" y="990" width="10" height="20" fill="#3C5F66" />
<rect x="40" y="990" width="10" height="10" fill="#396D7D" />
<rect x="120" y="990" width="10" height="20" fill="#3C5F66" />
<rect x="130" y="990" width="10" height="10" fill="#396D7D" />
<rect x="40" y="1000" width="10" height="10" fill="#3C5F66" />
<rect x="60" y="1000" width="10" height="20" fill="#254351" />
<rect x="70" y="1000" width="50" height="10" fill="#3C5F66" />
<rect x="130" y="1000" width="10" height="10" fill="#3C5F66" />
<rect x="0" y="1010" width="50" height="10" fill="#254351" />
<rect x="70" y="1010" width="70" height="10" fill="#254351" />
<rect x="0" y="1020" width="50" height="10" fill="#1F2439" />
<rect x="60" y="1020" width="80" height="10" fill="#1F2439" />
<rect x="0" y="1030" width="10" height="50" fill="#1F2439" />
<rect x="10" y="1030" width="70" height="20" fill="#3C5F66" />
<rect x="80" y="1030" width="10" height="10" fill="#396D7D" />
<rect x="90" y="1030" width="10" height="50" fill="#1F2439" />
<rect x="100" y="1030" width="30" height="20" fill="#3C5F66" />
<rect x="130" y="1030" width="10" height="10" fill="#396D7D" />
<rect x="80" y="1040" width="10" height="20" fill="#3C5F66" />
<rect x="130" y="1040" width="10" height="20" fill="#3C5F66" />
<rect x="10" y="1050" width="10" height="20" fill="#254351" />
<rect x="20" y="1050" width="60" height="10" fill="#3C5F66" />
<rect x="100" y="1050" width="10" height="20" fill="#254351" />
<rect x="110" y="1050" width="20" height="10" fill="#3C5F66" />
<rect x="20" y="1060" width="70" height="10" fill="#254351" />
<rect x="110" y="1060" width="30" height="10" fill="#254351" />
<rect x="10" y="1070" width="80" height="10" fill="#1F2439" />
<rect x="100" y="1070" width="40" height="10" fill="#1F2439" />
<rect x="0" y="1080" width="40" height="30" fill="#3C5F66" />
<rect x="40" y="1080" width="10" height="10" fill="#396D7D" />
<rect x="50" y="1080" width="10" height="50" fill="#1F2439" />
<rect x="60" y="1080" width="10" height="40" fill="#254351" />
<rect x="70" y="1080" width="60" height="20" fill="#3C5F66" />
<rect x="130" y="1080" width="10" height="10" fill="#396D7D" />
<rect x="40" y="1090" width="10" height="20" fill="#3C5F66" />
<rect x="130" y="1090" width="10" height="20" fill="#3C5F66" />
<rect x="70" y="1100" width="30" height="20" fill="#254351" />
<rect x="100" y="1100" width="30" height="10" fill="#3C5F66" />
<rect x="0" y="1110" width="50" height="10" fill="#254351" />
<rect x="100" y="1110" width="40" height="10" fill="#254351" />
<rect x="0" y="1120" width="50" height="10" fill="#1F2439" />
<rect x="60" y="1120" width="80" height="10" fill="#1F2439" />
<rect x="0" y="1130" width="10" height="50" fill="#1F2439" />
<rect x="10" y="1130" width="10" height="40" fill="#254351" />
<rect x="20" y="1130" width="70" height="10" fill="#3C5F66" />
<rect x="90" y="1130" width="10" height="50" fill="#1F2439" />
<rect x="100" y="1130" width="30" height="10" fill="#3C5F66" />
<rect x="130" y="1130" width="10" height="10" fill="#396D7D" />
<rect x="20" y="1140" width="10" height="30" fill="#254351" />
<rect x="30" y="1140" width="60" height="10" fill="#3C5F66" />
<rect x="100" y="1140" width="10" height="30" fill="#254351" />
<rect x="110" y="1140" width="30" height="10" fill="#3C5F66" />
<rect x="30" y="1150" width="20" height="20" fill="#254351" />
<rect x="50" y="1150" width="40" height="10" fill="#3C5F66" />
<rect x="110" y="1150" width="10" height="20" fill="#254351" />
<rect x="120" y="1150" width="20" height="10" fill="#3C5F66" />
<rect x="50" y="1160" width="40" height="10" fill="#254351" />
<rect x="120" y="1160" width="20" height="10" fill="#254351" />
<rect x="10" y="1170" width="80" height="10" fill="#1F2439" />
<rect x="100" y="1170" width="40" height="10" fill="#1F2439" />
<rect x="0" y="1180" width="50" height="30" fill="#254351" />
<rect x="50" y="1180" width="10" height="50" fill="#1F2439" />
<rect x="60" y="1180" width="20" height="40" fill="#254351" />
<rect x="80" y="1180" width="50" height="10" fill="#3C5F66" />
<rect x="130" y="1180" width="10" height="10" fill="#396D7D" />
<rect x="80" y="1190" width="10" height="30" fill="#254351" />
<rect x="90" y="1190" width="50" height="10" fill="#3C5F66" />
<rect x="90" y="1200" width="20" height="20" fill="#254351" />
<rect x="110" y="1200" width="30" height="10" fill="#3C5F66" />
<rect x="0" y="1210" width="50" height="10" fill="#252739" />
<rect x="110" y="1210" width="30" height="10" fill="#254351" />
<rect x="0" y="1220" width="50" height="10" fill="#1F2439" />
<rect x="60" y="1220" width="80" height="10" fill="#1F2439" />
<rect x="0" y="1230" width="10" height="50" fill="#1F2439" />
<rect x="10" y="1230" width="80" height="20" fill="#254351" />
<rect x="90" y="1230" width="10" height="50" fill="#1F2439" />
<rect x="100" y="1230" width="10" height="40" fill="#254351" />
<rect x="110" y="1230" width="20" height="10" fill="#3C5F66" />
<rect x="130" y="1230" width="10" height="10" fill="#396D7D" />
<rect x="110" y="1240" width="10" height="30" fill="#254351" />
<rect x="120" y="1240" width="20" height="10" fill="#3C5F66" />
<rect x="10" y="1250" width="10" height="20" fill="#252739" />
<rect x="20" y="1250" width="70" height="10" fill="#254351" />
<rect x="120" y="1250" width="10" height="20" fill="#254351" />
<rect x="130" y="1250" width="10" height="10" fill="#3C5F66" />
<rect x="20" y="1260" width="70" height="10" fill="#252739" />
<rect x="130" y="1260" width="10" height="10" fill="#254351" />
<rect x="10" y="1270" width="80" height="10" fill="#1F2439" />
<rect x="100" y="1270" width="40" height="10" fill="#1F2439" />
<rect x="0" y="1280" width="50" height="30" fill="#254351" />
<rect x="50" y="1280" width="10" height="50" fill="#1F2439" />
<rect x="60" y="1280" width="60" height="20" fill="#254351" />
<rect x="120" y="1280" width="20" height="10" fill="#3C5F66" />
<rect x="120" y="1290" width="10" height="20" fill="#254351" />
<rect x="130" y="1290" width="10" height="10" fill="#3C5F66" />
<rect x="60" y="1300" width="10" height="20" fill="#252739" />
<rect x="70" y="1300" width="50" height="10" fill="#254351" />
<rect x="130" y="1300" width="10" height="10" fill="#254351" />
<rect x="0" y="1310" width="50" height="10" fill="#252739" />
<rect x="70" y="1310" width="70" height="10" fill="#252739" />
<rect x="0" y="1320" width="50" height="10" fill="#1F2439" />
<rect x="60" y="1320" width="80" height="10" fill="#1F2439" />
<rect x="0" y="1330" width="10" height="50" fill="#1F2439" />
<rect x="10" y="1330" width="80" height="20" fill="#254351" />
<rect x="90" y="1330" width="10" height="50" fill="#1F2439" />
<rect x="100" y="1330" width="20" height="20" fill="#254351" />
<rect x="120" y="1330" width="20" height="10" fill="#3C5F66" />
<rect x="120" y="1340" width="10" height="20" fill="#254351" />
<rect x="130" y="1340" width="10" height="10" fill="#3C5F66" />
<rect x="10" y="1350" width="10" height="20" fill="#252739" />
<rect x="20" y="1350" width="70" height="10" fill="#254351" />
<rect x="100" y="1350" width="10" height="20" fill="#252739" />
<rect x="110" y="1350" width="10" height="10" fill="#254351" />
<rect x="130" y="1350" width="10" height="10" fill="#254351" />
<rect x="20" y="1360" width="70" height="10" fill="#252739" />
<rect x="110" y="1360" width="30" height="10" fill="#252739" />
<rect x="10" y="1370" width="80" height="10" fill="#1F2439" />
<rect x="100" y="1370" width="40" height="10" fill="#1F2439" />
<rect x="0" y="1380" width="50" height="20" fill="#254351" />
<rect x="50" y="1380" width="10" height="50" fill="#1F2439" />
<rect x="60" y="1380" width="60" height="20" fill="#254351" />
<rect x="120" y="1380" width="20" height="10" fill="#3C5F66" />
<rect x="120" y="1390" width="10" height="20" fill="#254351" />
<rect x="130" y="1390" width="10" height="10" fill="#3C5F66" />
<rect x="0" y="1400" width="10" height="20" fill="#252739" />
<rect x="10" y="1400" width="40" height="10" fill="#254351" />
<rect x="60" y="1400" width="10" height="20" fill="#252739" />
<rect x="70" y="1400" width="50" height="10" fill="#254351" />
<rect x="130" y="1400" width="10" height="10" fill="#254351" />
<rect x="10" y="1410" width="40" height="10" fill="#252739" />
<rect x="70" y="1410" width="70" height="10" fill="#252739" />
<rect x="0" y="1420" width="50" height="10" fill="#1F2439" />
<rect x="60" y="1420" width="80" height="10" fill="#1F2439" />
<rect x="0" y="1430" width="10" height="50" fill="#1F2439" />
<rect x="10" y="1430" width="80" height="20" fill="#254351" />
<rect x="90" y="1430" width="10" height="50" fill="#1F2439" />
<rect x="100" y="1430" width="20" height="20" fill="#254351" />
<rect x="120" y="1430" width="20" height="10" fill="#3C5F66" />
<rect x="120" y="1440" width="10" height="20" fill="#254351" />
<rect x="130" y="1440" width="10" height="10" fill="#3C5F66" />
<rect x="10" y="1450" width="10" height="20" fill="#252739" />
<rect x="20" y="1450" width="70" height="10" fill="#254351" />
<rect x="100" y="1450" width="10" height="20" fill="#252739" />
<rect x="110" y="1450" width="10" height="10" fill="#254351" />
<rect x="130" y="1450" width="10" height="10" fill="#254351" />
<rect x="20" y="1460" width="70" height="10" fill="#252739" />
<rect x="110" y="1460" width="30" height="10" fill="#252739" />
<rect x="10" y="1470" width="80" height="10" fill="#1F2439" />
<rect x="100" y="1470" width="40" height="10" fill="#1F2439" />
<rect x="0" y="1480" width="50" height="20" fill="#254351" />
<rect x="50" y="1480" width="10" height="50" fill="#1F2439" />
<rect x="60" y="1480" width="70" height="20" fill="#254351" />
<rect x="130" y="1480" width="10" height="10" fill="#3C5F66" />
<rect x="130" y="1490" width="10" height="20" fill="#254351" />
<rect x="0" y="1500" width="10" height="20" fill="#252739" />
<rect x="10" y="1500" width="40" height="10" fill="#254351" />
<rect x="60" y="1500" width="10" height="20" fill="#252739" />
<rect x="70" y="1500" width="60" height="10" fill="#254351" />
<rect x="10" y="1510" width="40" height="10" fill="#252739" />
<rect x="70" y="1510" width="70" height="10" fill="#252739" />
<rect x="0" y="1520" width="50" height="10" fill="#1F2439" />
<rect x="60" y="1520" width="80" height="10" fill="#1F2439" />
<rect x="0" y="1530" width="10" height="50" fill="#1F2439" />
<rect x="10" y="1530" width="80" height="20" fill="#254351" />
<rect x="90" y="1530" width="10" height="50" fill="#1F2439" />
<rect x="100" y="1530" width="30" height="20" fill="#254351" />
<rect x="130" y="1530" width="10" height="10" fill="#3C5F66" />
<rect x="130" y="1540" width="10" height="20" fill="#254351" />
<rect x="10" y="1550" width="10" height="20" fill="#252739" />
<rect x="20" y="1550" width="70" height="10" fill="#254351" />
<rect x="100" y="1550" width="10" height="20" fill="#252739" />
<rect x="110" y="1550" width="20" height="10" fill="#254351" />
<rect x="20" y="1560" width="70" height="10" fill="#252739" />
<rect x="110" y="1560" width="30" height="10" fill="#252739" />
<rect x="10" y="1570" width="80" height="10" fill="#1F2439" />
<rect x="100" y="1570" width="40" height="10" fill="#1F2439" />
<rect x="0" y="1580" width="50" height="20" fill="#252739" />
<rect x="50" y="1580" width="10" height="20" fill="#1F2439" />
<rect x="60" y="1580" width="80" height="20" fill="#252739" />
</svg>