<?xml version="1.0" encoding="UTF-8" ?>
<svg version="1.1" width="1600" height="900" xmlns="http://www.w3.org/2000/svg" shape-rendering="crispEdges">
<rect x="0" y="0" width="50" height="20" fill="#3C5F66" />
<rect x="50" y="0" width="10" height="30" fill="#1F2439" />
<rect x="60" y="0" width="80" height="20" fill="#3C5F66" />
<rect x="140" y="0" width="30" height="900" fill="#230019" />
<rect x="0" y="20" width="50" height="10" fill="#1F2439" />
<rect x="60" y="20" width="80" height="10" fill="#1F2439" />
<rect x="0" y="30" width="10" height="50" fill="#1F2439" />
<rect x="10" y="30" width="80" height="10" fill="#254351" />
<rect x="90" y="30" width="10" height="50" fill="#1F2439" />
<rect x="100" y="30" width="40" height="10" fill="#254351" />
<rect x="10" y="40" width="10" height="10" fill="#254351" />
<rect x="20" y="40" width="70" height="10" fill="#3C5F66" />
<rect x="100" y="40" width="10" height="10" fill="#254351" />
<rect x="110" y="40" width="30" height="10" fill="#3C5F66" />
<rect x="10" y="50" width="70" height="10" fill="#3C5F66" />
<rect x="80" y="50" width="10" height="20" fill="#396D7D" />
<rect x="100" y="50" width="30" height="10" fill="#3C5F66" />
<rect x="130" y="50" width="10" height="20" fill="#396D7D" />
<rect x="10" y="60" width="50" height="10" fill="#3C5F66" />
<rect x="60" y="60" width="20" height="10" fill="#396D7D" />
<rect x="100" y="60" width="20" height="10" fill="#3C5F66" />
<rect x="120" y="60" width="10" height="10" fill="#396D7D" />
<rect x="10" y="70" width="80" height="10" fill="#1F2439" />
<rect x="100" y="70" width="40" height="10" fill="#1F2439" />
<rect x="0" y="80" width="30" height="10" fill="#254351" />
<rect x="30" y="80" width="20" height="20" fill="#3C5F66" />
<rect x="50" y="80" width="10" height="50" fill="#1F2439" />
<rect x="60" y="80" width="40" height="10" fill="#254351" />
<rect x="100" y="80" width="40" height="20" fill="#3C5F66" />
<rect x="0" y="90" width="30" height="20" fill="#3C5F66" />
<rect x="60" y="90" width="10" height="10" fill="#254351" />
<rect x="70" y="90" width="30" height="30" fill="#3C5F66" />
<rect x="30" y="100" width="10" height="10" fill="#3C5F66" />
<rect x="40" y="100" width="10" height="20" fill="#396D7D" />
<rect x="60" y="100" width="10" height="20" fill="#3C5F66" />
<rect x="100" y="100" width="30" height="10" fill="#3C5F66" />
<rect x="130" y="100" width="10" height="20" fill="#396D7D" />
<rect x="0" y="110" width="20" height="10" fill="#3C5F66" />
<rect x="20" y="110" width="20" height="10" fill="#396D7D" />
<rect x="100" y="110" width="10" height="10" fill="#3C5F66" />
<rect x="110" y="110" width="20" height="10" fill="#396D7D" />
<rect x="0" y="120" width="50" height="10" fill="#1F2439" />
<rect x="60" y="120" width="80" height="10" fill="#1F2439" />
<rect x="0" y="130" width="10" height="50" fill="#1F2439" />
<rect x="10" y="130" width="50" height="10" fill="#254351" />
<rect x="60" y="130" width="30" height="20" fill="#3C5F66" />
<rect x="90" y="130" width="10" height="50" fill="#1F2439" />
<rect x="100" y="130" width="20" height="40" fill="#396D7D" />
<rect x="120" y="130" width="20" height="10" fill="#557B78" />
<rect x="10" y="140" width="10" height="10" fill="#254351" />
<rect x="20" y="140" width="40" height="30" fill="#3C5F66" />
<rect x="120" y="140" width="10" height="30" fill="#396D7D" />
<rect x="130" y="140" width="10" height="10" fill="#557B78" />
<rect x="10" y="150" width="10" height="20" fill="#3C5F66" />
<rect x="60" y="150" width="20" height="10" fill="#3C5F66" />
<rect x="80" y="150" width="10" height="20" fill="#396D7D" />
<rect x="130" y="150" width="10" height="20" fill="#396D7D" />
<rect x="60" y="160" width="20" height="10" fill="#396D7D" />
<rect x="10" y="170" width="80" height="10" fill="#1F2439" />
<rect x="100" y="170" width="40" height="10" fill="#1F2439" />
<rect x="0" y="180" width="20" height="10" fill="#254351" />
<rect x="20" y="180" width="30" height="20" fill="#3C5F66" />
<rect x="50" y="180" width="10" height="50" fill="#1F2439" />
<rect x="60" y="180" width="40" height="40" fill="#396D7D" />
<rect x="100" y="180" width="40" height="10" fill="#557B78" />
<rect x="0" y="190" width="20" height="30" fill="#3C5F66" />
<rect x="100" y="190" width="30" height="30" fill="#396D7D" />
<rect x="130" y="190" width="10" height="10" fill="#557B78" />
<rect x="20" y="200" width="20" height="10" fill="#3C5F66" />
<rect x="40" y="200" width="10" height="20" fill="#396D7D" />
<rect x="130" y="200" width="10" height="20" fill="#396D7D" />
<rect x="20" y="210" width="20" height="10" fill="#396D7D" />
<rect x="0" y="220" width="50" height="10" fill="#1F2439" />
<rect x="60" y="220" width="80" height="10" fill="#1F2439" />
<rect x="0" y="230" width="10" height="50" fill="#1F2439" />
<rect x="10" y="230" width="10" height="40" fill="#3C5F66" />
<rect x="20" y="230" width="70" height="40" fill="#396D7D" />
<rect x="90" y="230" width="10" height="50" fill="#1F2439" />
<rect x="100" y="230" width="20" height="40" fill="#396D7D" />
<rect x="120" y="230" width="20" height="10" fill="#557B78" />
<rect x="120" y="240" width="10" height="30" fill="#396D7D" />
<rect x="130" y="240" width="10" height="10" fill="#557B78" />
<rect x="130" y="250" width="10" height="20" fill="#396D7D" />
<rect x="10" y="270" width="80" height="10" fill="#1F2439" />
<rect x="100" y="270" width="40" height="10" fill="#1F2439" />
<rect x="0" y="280" width="20" height="40" fill="#3C5F66" />
<rect x="20" y="280" width="30" height="40" fill="#396D7D" />
<rect x="50" y="280" width="10" height="50" fill="#1F2439" />
<rect x="60" y="280" width="40" height="40" fill="#396D7D" />
<rect x="100" y="280" width="40" height="10" fill="#557B78" />
<rect x="100" y="290" width="30" height="30" fill="#396D7D" />
<rect x="130" y="290" width="10" height="10" fill="#557B78" />
<rect x="130" y="300" width="10" height="20" fill="#396D7D" />
<rect x="0" y="320" width="50" height="10" fill="#1F2439" />
<rect x="60" y="320" width="80" height="10" fill="#1F2439" />
<rect x="0" y="330" width="10" height="50" fill="#1F2439" />
<rect x="10" y="330" width="10" height="40" fill="#3C5F66" />
<rect x="20" y="330" width="70" height="40" fill="#396D7D" />
<rect x="90" y="330" width="10" height="50" fill="#1F2439" />
<rect x="100" y="330" width="20" height="40" fill="#396D7D" />
<rect x="120" y="330" width="20" height="10" fill="#719797" />
<rect x="120" y="340" width="10" height="30" fill="#396D7D" />
<rect x="130" y="340" width="10" height="10" fill="#719797" />
<rect x="130" y="350" width="10" height="20" fill="#396D7D" />
<rect x="10" y="370" width="80" height="10" fill="#1F2439" />
<rect x="100" y="370" width="40" height="10" fill="#1F2439" />
<rect x="0" y="380" width="20" height="40" fill="#3C5F66" />
<rect x="20" y="380" width="30" height="40" fill="#396D7D" />
<rect x="50" y="380" width="10" height="50" fill="#1F2439" />
<rect x="60" y="380" width="30" height="40" fill="#396D7D" />
<rect x="90" y="380" width="50" height="10" fill="#719797" />
<rect x="90" y="390" width="40" height="30" fill="#396D7D" />
<rect x="130" y="390" width="10" height="10" fill="#719797" />
<rect x="130" y="400" width="10" height="20" fill="#396D7D" />
<rect x="0" y="420" width="50" height="10" fill="#1F2439" />
<rect x="60" y="420" width="80" height="10" fill="#1F2439" />
<rect x="0" y="430" width="20" height="40" fill="#3C5F66" />
<rect x="20" y="430" width="70" height="40" fill="#396D7D" />
<rect x="90" y="430" width="10" height="50" fill="#1F2439" />
<rect x="100" y="430" width="20" height="40" fill="#396D7D" />
<rect x="120" y="430" width="20" height="10" fill="#719797" />
<rect x="120" y="440" width="10" height="30" fill="#396D7D" />
<rect x="130" y="440" width="10" height="10" fill="#719797" />
<rect x="130" y="450" width="10" height="20" fill="#396D7D" />
<rect x="0" y="470" width="90" height="10" fill="#1F2439" />
<rect x="100" y="470" width="40" height="10" fill="#1F2439" />
<rect x="0" y="480" width="20" height="40" fill="#3C5F66" />
<rect x="20" y="480" width="30" height="40" fill="#396D7D" />
<rect x="50" y="480" width="10" height="50" fill="#1F2439" />
<rect x="60" y="480" width="30" height="40" fill="#396D7D" />
<rect x="90" y="480" width="50" height="10" fill="#719797" />
<rect x="90" y="490" width="40" height="30" fill="#396D7D" />
<rect x="130" y="490" width="10" height="10" fill="#719797" />
<rect x="130" y="500" width="10" height="20" fill="#396D7D" />
<rect x="0" y="520" width="50" height="10" fill="#1F2439" />
<rect x="60" y="520" width="80" height="10" fill="#1F2439" />
<rect x="0" y="530" width="10" height="50" fill="#1F2439" />
<rect x="10" y="530" width="10" height="40" fill="#3C5F66" />
<rect x="20" y="530" width="70" height="40" fill="#396D7D" />
<rect x="90" y="530" width="10" height="50" fill="#1F2439" />
<rect x="100" y="530" width="20" height="40" fill="#396D7D" />
<rect x="120" y="530" width="20" height="10" fill="#719797" />
<rect x="120" y="540" width="10" height="30" fill="#396D7D" />
<rect x="130" y="540" width="10" height="10" fill="#719797" />
<rect x="130" y="550" width="10" height="20" fill="#396D7D" />
<rect x="10" y="570" width="80" height="10" fill="#1F2439" />
<rect x="100" y="570" width="40" height="10" fill="#1F2439" />
<rect x="0" y="580" width="20" height="40" fill="#3C5F66" />
<rect x="20" y="580" width="30" height="40" fill="#396D7D" />
<rect x="50" y="580" width="10" height="50" fill="#1F2439" />
<rect x="60" y="580" width="40" height="40" fill="#396D7D" />
<rect x="100" y="580" width="40" height="10" fill="#557B78" />
<rect x="100" y="590" width="30" height="30" fill="#396D7D" />
<rect x="130" y="590" width="10" height="10" fill="#557B78" />
<rect x="130" y="600" width="10" height="20" fill="#396D7D" />
<rect x="0" y="620" width="50" height="10" fill="#1F2439" />
<rect x="60" y="620" width="80" height="10" fill="#1F2439" />
<rect x="0" y="630" width="10" height="50" fill="#1F2439" />
<rect x="10" y="630" width="10" height="40" fill="#3C5F66" />
<rect x="20" y="630" width="70" height="40" fill="#396D7D" />
<rect x="90" y="630" width="10" height="50" fill="#1F2439" />
<rect x="100" y="630" width="20" height="40" fill="#396D7D" />
<rect x="120" y="630" width="20" height="10" fill="#557B78" />
<rect x="120" y="640" width="10" height="30" fill="#396D7D" />
<rect x="130" y="640" width="10" height="10" fill="#557B78" />
<rect x="130" y="650" width="10" height="20" fill="#396D7D" />
<rect x="10" y="670" width="80" height="10" fill="#1F2439" />
<rect x="100" y="670" width="40" height="10" fill="#1F2439" />
<rect x="0" y="680" width="20" height="30" fill="#3C5F66" />
<rect x="20" y="680" width="30" height="10" fill="#396D7D" />
<rect x="50" y="680" width="10" height="50" fill="#1F2439" />
<rect x="60" y="680" width="40" height="40" fill="#396D7D" />
<rect x="100" y="680" width="40" height="10" fill="#557B78" />
<rect x="20" y="690" width="20" height="20" fill="#3C5F66" />
<rect x="40" y="690" width="10" height="10" fill="#396D7D" />
<rect x="100" y="690" width="30" height="30" fill="#396D7D" />
<rect x="130" y="690" width="10" height="10" fill="#557B78" />
<rect x="40" y="700" width="10" height="20" fill="#3C5F66" />
<rect x="130" y="700" width="10" height="20" fill="#396D7D" />
<rect x="0" y="710" width="30" height="10" fill="#254351" />
<rect x="30" y="710" width="10" height="10" fill="#3C5F66" />
<rect x="0" y="720" width="50" height="10" fill="#1F2439" />
<rect x="60" y="720" width="80" height="10" fill="#1F2439" />
<rect x="0" y="730" width="10" height="50" fill="#1F2439" />
<rect x="10" y="730" width="50" height="20" fill="#3C5F66" />
<rect x="60" y="730" width="30" height="10" fill="#396D7D" />
<rect x="90" y="730" width="10" height="50" fill="#1F2439" />
<rect x="100" y="730" width="20" height="20" fill="#3C5F66" />
<rect x="120" y="730" width="20" height="10" fill="#396D7D" />
<rect x="60" y="740" width="20" height="30" fill="#3C5F66" />
<rect x="80" y="740" width="10" height="10" fill="#396D7D" />
<rect x="120" y="740" width="10" height="30" fill="#3C5F66" />
<rect x="130" y="740" width="10" height="10" fill="#396D7D" />
<rect x="10" y="750" width="10" height="20" fill="#254351" />
<rect x="20" y="750" width="40" height="10" fill="#3C5F66" />
<rect x="80" y="750" width="10" height="20" fill="#3C5F66" />
<rect x="100" y="750" width="10" height="20" fill="#254351" />
<rect x="110" y="750" width="10" height="10" fill="#3C5F66" />
<rect x="130" y="750" width="10" height="20" fill="#3C5F66" />
<rect x="20" y="760" width="30" height="10" fill="#254351" />
<rect x="50" y="760" width="10" height="10" fill="#3C5F66" />
<rect x="110" y="760" width="10" height="10" fill="#254351" />
<rect x="10" y="770" width="80" height="10" fill="#1F2439" />
<rect x="100" y="770" width="40" height="10" fill="#1F2439" />
<rect x="0" y="780" width="50" height="30" fill="#3C5F66" />
<rect x="50" y="780" width="10" height="50" fill="#1F2439" />
<rect x="60" y="780" width="40" height="20" fill="#3C5F66" />
<rect x="100" y="780" width="40" height="10" fill="#396D7D" />
<rect x="100" y="790" width="30" height="20" fill="#3C5F66" />
<rect x="130" y="790" width="10" height="10" fill="#396D7D" />
<rect x="60" y="800" width="10" height="20" fill="#254351" />
<rect x="70" y="800" width="30" height="10" fill="#3C5F66" />
<rect x="130" y="800" width="10" height="10" fill="#3C5F66" />
<rect x="0" y="810" width="50" height="10" fill="#254351" />
<rect x="70" y="810" width="70" height="10" fill="#254351" />
<rect x="0" y="820" width="50" height="10" fill="#1F2439" />
<rect x="60" y="820" width="80" height="10" fill="#1F2439" />
<rect x="0" y="830" width="10" height="50" fill="#1F2439" />
<rect x="10" y="830" width="80" height="20" fill="#3C5F66" />
<rect x="90" y="830" width="10" height="50" fill="#1F2439" />
<rect x="100" y="830" width="20" height="20" fill="#3C5F66" />
<rect x="120" y="830" width="20" height="10" fill="#396D7D" />
<rect x="120" y="840" width="10" height="20" fill="#3C5F66" />
<rect x="130" y="840" width="10" height="10" fill="#396D7D" />
<rect x="10" y="850" width="10" height="20" fill="#254351" />
<rect x="20" y="850" width="70" height="10" fill="#3C5F66" />
<rect x="100" y="850" width="10" height="20" fill="#254351" />
<rect x="110" y="850" width="10" height="10" fill="#3C5F66" />
<rect x="130" y="850" width="10" height="10" fill="#3C5F66" />
<rect x="20" y="860" width="70" height="10" fill="#254351" />
<rect x="110" y="860" width="30" height="10" fill="#254351" />
<rect x="10" y="870" width="80" height="10" fill="#1F2439" />
<rect x="100" y="870" width="40" height="10" fill="#1F2439" />
<rect x="0" y="880" width="10" height="10" fill="#3C5F66" />
<rect x="10" y="880" width="10" height="20" fill="#230019" />
<rect x="20" y="880" width="10" height="10" fill="#3C5F66" />
<rect x="30" y="880" width="10" height="20" fill="#230019" />
<rect x="40" y="880" width="10" height="10" fill="#3C5F66" />
<rect x="50" y="880" width="10" height="20" fill="#230019" />
<rect x="60" y="880" width="10" height="10" fill="#3C5F66" />
<rect x="70" y="880" width="10" height="20" fill="#230019" />
<rect x="80" y="880" width="10" height="10" fill="#3C5F66" />
<rect x="90" y="880" width="10" height="20" fill="#230019" />
<rect x="100" y="880" width="10" height="10" fill="#3C5F66" />
<rect x="110" y="880" width="10" height="20" fill="#230019" />
<rect x="120" y="880" width="10" height="10" fill="#3C5F66" />
<rect x="130" y="880" width="10" height="20" fill="#230019" />
<rect x="170" y="880" width="10" height="20" fill="#230019" />
<rect x="190" y="880" width="10" height="20" fill="#230019" />
<rect x="210" y="880" width="10" height="20" fill="#230019" />
<rect x="230" y="880" width="10" height="20" fill="#230019" />
<rect x="250" y="880" width="10" height="20" fill="#230019" />
<rect x="270" y="880" width="10" height="20" fill="#230019" />
<rect x="290" y="880" width="10" height="20" fill="#230019" />
<rect x="310" y="880" width="10" height="20" fill="#230019" />
<rect x="330" y="880" width="10" height="20" fill="#230019" />
<rect x="350" y="880" width="10" height="20" fill="#230019" />
<rect x="370" y="880" width="10" height="20" fill="#230019" />
<rect x="390" y="880" width="10" height="20" fill="#230019" />
<rect x="410" y="880" width="10" height="20" fill="#230019" />
<rect x="430" y="880" width="10" height="20" fill="#230019" />
<rect x="450" y="880" width="10" height="20" fill="#230019" />
<rect x="470" y="880" width="10" height="20" fill="#230019" />
<rect x="490" y="880" width="10" height="20" fill="#230019" />
<rect x="510" y="880" width="10" height="20" fill="#230019" />
<rect x="530" y="880" width="10" height="20" fill="#230019" />
<rect x="550" y="880" width="10" height="20" fill="#230019" />
<rect x="570" y="880" width="10" height="20" fill="#230019" />
<rect x="590" y="880" width="10" height="20" fill="#230019" />
<rect x="610" y="880" width="10" height="20" fill="#230019" />
<rect x="630" y="880" width="10" height="20" fill="#230019" />
<rect x="650" y="880" width="10" height="20" fill="#230019" />
<rect x="670" y="880" width="10" height="20" fill="#230019" />
<rect x="690" y="880" width="10" height="20" fill="#230019" />
<rect x="710" y="880" width="10" height="20" fill="#230019" />
<rect x="730" y="880" width="10" height="20" fill="#230019" />
<rect x="750" y="880" width="10" height="20" fill="#230019" />
<rect x="770" y="880" width="10" height="20" fill="#230019" />
<rect x="790" y="880" width="10" height="20" fill="#230019" />
<rect x="810" y="880" width="10" height="20" fill="#230019" />
<rect x="830" y="880" width="10" height="20" fill="#230019" />
<rect x="850" y="880" width="10" height="20" fill="#230019" />
<rect x="870" y="880" width="10" height="20" fill="#230019" />
<rect x="890" y="880" width="10" height="20" fill="#230019" />
<rect x="910" y="880" width="10" height="20" fill="#230019" />
<rect x="930" y="880" width="10" height="20" fill="#230019" />
<rect x="950" y="880" width="10" height="20" fill="#230019" />
<rect x="970" y="880" width="10" height="20" fill="#230019" />
<rect x="990" y="880" width="10" height="20" fill="#230019" />
<rect x="1010" y="880" width="10" height="20" fill="#230019" />
<rect x="1030" y="880" width="10" height="20" fill="#230019" />
<rect x="1050" y="880" width="10" height="20" fill="#230019" />
<rect x="1070" y="880" width="10" height="20" fill="#230019" />
<rect x="1090" y="880" width="10" height="20" fill="#230019" />
<rect x="1110" y="880" width="10" height="20" fill="#230019" />
<rect x="1130" y="880" width="10" height="20" fill="#230019" />
<rect x="1150" y="880" width="10" height="20" fill="#230019" />
<rect x="1170" y="880" width="10" height="20" fill="#230019" />
<rect x="1190" y="880" width="10" height="20" fill="#230019" />
<rect x="1210" y="880" width="10" height="20" fill="#230019" />
<rect x="1230" y="880" width="10" height="20" fill="#230019" />
<rect x="1250" y="880" width="10" height="20" fill="#230019" />
<rect x="1270" y="880" width="10" height="20" fill="#230019" />
<rect x="1290" y="880" width="10" height="20" fill="#230019" />
<rect x="1310" y="880" width="10" height="20" fill="#230019" />
<rect x="1330" y="880" width="10" height="20" fill="#230019" />
<rect x="1350" y="880" width="10" height="20" fill="#230019" />
<rect x="1370" y="880" width="10" height="20" fill="#230019" />
<rect x="1390" y="880" width="10" height="20" fill="#230019" />
<rect x="1410" y="880" width="10" height="20" fill="#230019" />
<rect x="1430" y="880" width="10" height="20" fill="#230019" />
<rect x="1450" y="880" width="10" height="20" fill="#230019" />
<rect x="1470" y="880" width="10" height="20" fill="#230019" />
<rect x="1490" y="880" width="10" height="20" fill="#230019" />
<rect x="1510" y="880" width="10" height="20" fill="#230019" />
<rect x="1530" y="880" width="10" height="20" fill="#230019" />
<rect x="1550" y="880" width="10" height="20" fill="#230019" />
<rect x="1570" y="880" width="10" height="20" fill="#230019" />
<rect x="1590" y="880" width="10" height="20" fill="#230019" />
<rect x="0" y="890" width="10" height="10" fill="#230019" />
<rect x="20" y="890" width="10" height="10" fill="#230019" />
<rect x="40" y="890" width="10" height="10" fill="#230019" />
<rect x="60" y="890" width="10" height="10" fill="#230019" />
<rect x="80" y="890" width="10" height="10" fill="#230019" />
<rect x="100" y="890" width="10" height="10" fill="#230019" />
<rect x="120" y="890" width="10" height="10" fill="#230019" />
<rect x="180" y="890" width="10" height="10" fill="#230019" />
<rect x="200" y="890" width="10" height="10" fill="#230019" />
<rect x="220" y="890" width="10" height="10" fill="#230019" />
<rect x="240" y="890" width="10" height="10" fill="#230019" />
<rect x="260" y="890" width="10" height="10" fill="#230019" />
<rect x="280" y="890" width="10" height="10" fill="#230019" />
<rect x="300" y="890" width="10" height="10" fill="#230019" />
<rect x="320" y="890" width="10" height="10" fill="#230019" />
<rect x="340" y="890" width="10" height="10" fill="#230019" />
<rect x="360" y="890" width="10" height="10" fill="#230019" />
<rect x="380" y="890" width="10" height="10" fill="#230019" />
<rect x="400" y="890" width="10" height="10" fill="#230019" />
<rect x="420" y="890" width="10" height="10" fill="#230019" />
<rect x="440" y="890" width="10" height="10" fill="#230019" />
<rect x="460" y="890" width="10" height="10" fill="#230019" />
<rect x="480" y="890" width="10" height="10" fill="#230019" />
<rect x="500" y="890" width="10" height="10" fill="#230019" />
<rect x="520" y="890" width="10" height="10" fill="#230019" />
<rect x="540" y="890" width="10" height="10" fill="#230019" />
<rect x="560" y="890" width="10" height="10" fill="#230019" />
<rect x="580" y="890" width="10" height="10" fill="#230019" />
<rect x="600" y="890" width="10" height="10" fill="#230019" />
<rect x="620" y="890" width="10" height="10" fill="#230019" />
<rect x="640" y="890" width="10" height="10" fill="#230019" />
<rect x="660" y="890" width="10" height="10" fill="#230019" />
<rect x="680" y="890" width="10" height="10" fill="#230019" />
<rect x="700" y="890" width="10" height="10" fill="#230019" />
<rect x="720" y="890" width="10" height="10" fill="#230019" />
<rect x="740" y="890" width="10" height="10" fill="#230019" />
<rect x="760" y="890" width="10" height="10" fill="#230019" />
<rect x="780" y="890" width="10" height="10" fill="#230019" />
<rect x="800" y="890" width="10" height="10" fill="#230019" />
<rect x="820" y="890" width="10" height="10" fill="#230019" />
<rect x="840" y="890" width="10" height="10" fill="#230019" />
<rect x="860" y="890" width="10" height="10" fill="#230019" />
<rect x="880" y="890" width="10" height="10" fill="#230019" />
<rect x="900" y="890" width="10" height="10" fill="#230019" />
<rect x="920" y="890" width="10" height="10" fill="#230019" />
<rect x="940" y="890" width="10" height="10" fill="#230019" />
<rect x="960" y="890" width="10" height="10" fill="#230019" />
<rect x="980" y="890" width="10" height="10" fill="#230019" />
<rect x="1000" y="890" width="10" height="10" fill="#230019" />
<rect x="1020" y="890" width="10" height="10" fill="#230019" />
<rect x="1040" y="890" width="10" height="10" fill="#230019" />
<rect x="1060" y="890" width="10" height="10" fill="#230019" />
<rect x="1080" y="890" width="10" height="10" fill="#230019" />
<rect x="1100" y="890" width="10" height="10" fill="#230019" />
<rect x="1120" y="890" width="10" height="10" fill="#230019" />
<rect x="1140" y="890" width="10" height="10" fill="#230019" />
<rect x="1160" y="890" width="10" height="10" fill="#230019" />
<rect x="1180" y="890" width="10" height="10" fill="#230019" />
<rect x="1200" y="890" width="10" height="10" fill="#230019" />
<rect x="1220" y="890" width="10" height="10" fill="#230019" />
<rect x="1240" y="890" width="10" height="10" fill="#230019" />
<rect x="1260" y="890" width="10" height="10" fill="#230019" />
<rect x="1280" y="890" width="10" height="10" fill="#230019" />
<rect x="1300" y="890" width="10" height="10" fill="#230019" />
<rect x="1320" y="890" width="10" height="10" fill="#230019" />
<rect x="1340" y="890" width="10" height="10" fill="#230019" />
<rect x="1360" y="890" width="10" height="10" fill="#230019" />
<rect x="1380" y="890" width="10" height="10" fill="#230019" />
<rect x="1400" y="890" width="10" height="10" fill="#230019" />
<rect x="1420" y="890" width="10" height="10" fill="#230019" />
<rect x="1440" y="890" width="10" height="10" fill="#230019" />
<rect x="1460" y="890" width="10" height="10" fill="#230019" />
<rect x="1480" y="890" width="10" height="10" fill="#230019" />
<rect x="1500" y="890" width="10" height="10" fill="#230019" />
<rect x="1520" y="890" width="10" height="10" fill="#230019" />
<rect x="1540" y="890" width="10" height="10" fill="#230019" />
<rect x="1560" y="890" width="10" height="10" fill="#230019" />
<rect x="1580" y="890" width="10" height="10" fill="#230019" />
</svg>