<?xml version="1.0" encoding="UTF-8" ?>
<svg version="1.1" width="1600" height="1600" xmlns="http://www.w3.org/2000/svg" shape-rendering="crispEdges">
<rect x="840" y="130" width="20" height="50" fill="#19374B" />
<rect x="830" y="170" width="10" height="70" fill="#19374B" />
<rect x="860" y="170" width="10" height="70" fill="#19374B" />
<rect x="840" y="180" width="20" height="30" fill="#254351" />
<rect x="810" y="210" width="10" height="50" fill="#19374B" />
<rect x="840" y="210" width="20" height="30" fill="#19374B" />
<rect x="880" y="210" width="10" height="50" fill="#19374B" />
<rect x="820" y="220" width="10" height="20" fill="#19374B" />
<rect x="870" y="220" width="10" height="20" fill="#19374B" />
<rect x="150" y="240" width="20" height="10" fill="#254351" />
<rect x="210" y="240" width="20" height="10" fill="#254351" />
<rect x="820" y="240" width="60" height="20" fill="#254351" />
<rect x="150" y="250" width="10" height="20" fill="#254351" />
<rect x="160" y="250" width="10" height="10" fill="#396D7D" />
<rect x="170" y="250" width="10" height="20" fill="#254351" />
<rect x="210" y="250" width="10" height="20" fill="#254351" />
<rect x="220" y="250" width="10" height="10" fill="#396D7D" />
<rect x="230" y="250" width="10" height="20" fill="#254351" />
<rect x="160" y="260" width="10" height="10" fill="#254351" />
<rect x="220" y="260" width="10" height="10" fill="#254351" />
<rect x="800" y="260" width="10" height="70" fill="#19374B" />
<rect x="810" y="260" width="10" height="70" fill="#254351" />
<rect x="820" y="260" width="60" height="10" fill="#19374B" />
<rect x="880" y="260" width="10" height="70" fill="#254351" />
<rect x="890" y="260" width="10" height="70" fill="#19374B" />
<rect x="100" y="270" width="20" height="10" fill="#254351" />
<rect x="160" y="270" width="70" height="10" fill="#396D7D" />
<rect x="270" y="270" width="20" height="10" fill="#254351" />
<rect x="820" y="270" width="10" height="50" fill="#19374B" />
<rect x="830" y="270" width="10" height="10" fill="#3C5F66" />
<rect x="840" y="270" width="20" height="40" fill="#A2B8B1" />
<rect x="860" y="270" width="10" height="10" fill="#3C5F66" />
<rect x="870" y="270" width="10" height="50" fill="#19374B" />
<rect x="90" y="280" width="10" height="20" fill="#254351" />
<rect x="100" y="280" width="10" height="10" fill="#396D7D" />
<rect x="110" y="280" width="10" height="20" fill="#254351" />
<rect x="130" y="280" width="30" height="10" fill="#396D7D" />
<rect x="190" y="280" width="10" height="110" fill="#396D7D" />
<rect x="230" y="280" width="30" height="10" fill="#396D7D" />
<rect x="270" y="280" width="10" height="20" fill="#254351" />
<rect x="280" y="280" width="10" height="10" fill="#396D7D" />
<rect x="290" y="280" width="10" height="20" fill="#254351" />
<rect x="830" y="280" width="10" height="20" fill="#A2B8B1" />
<rect x="860" y="280" width="10" height="20" fill="#A2B8B1" />
<rect x="100" y="290" width="10" height="10" fill="#254351" />
<rect x="120" y="290" width="10" height="10" fill="#396D7D" />
<rect x="140" y="290" width="10" height="10" fill="#396D7D" />
<rect x="240" y="290" width="10" height="10" fill="#396D7D" />
<rect x="260" y="290" width="10" height="10" fill="#396D7D" />
<rect x="280" y="290" width="10" height="10" fill="#254351" />
<rect x="100" y="300" width="10" height="10" fill="#396D7D" />
<rect x="150" y="300" width="10" height="30" fill="#396D7D" />
<rect x="230" y="300" width="10" height="30" fill="#396D7D" />
<rect x="280" y="300" width="10" height="10" fill="#396D7D" />
<rect x="830" y="300" width="10" height="10" fill="#3C5F66" />
<rect x="860" y="300" width="10" height="10" fill="#3C5F66" />
<rect x="90" y="310" width="10" height="10" fill="#396D7D" />
<rect x="290" y="310" width="10" height="10" fill="#396D7D" />
<rect x="830" y="310" width="40" height="10" fill="#19374B" />
<rect x="80" y="320" width="10" height="20" fill="#396D7D" />
<rect x="300" y="320" width="10" height="20" fill="#396D7D" />
<rect x="820" y="320" width="60" height="10" fill="#254351" />
<rect x="70" y="330" width="10" height="10" fill="#396D7D" />
<rect x="160" y="330" width="10" height="30" fill="#396D7D" />
<rect x="220" y="330" width="10" height="30" fill="#396D7D" />
<rect x="310" y="330" width="10" height="10" fill="#396D7D" />
<rect x="810" y="330" width="80" height="10" fill="#19374B" />
<rect x="40" y="340" width="20" height="10" fill="#254351" />
<rect x="60" y="340" width="10" height="20" fill="#396D7D" />
<rect x="90" y="340" width="10" height="10" fill="#396D7D" />
<rect x="290" y="340" width="10" height="10" fill="#396D7D" />
<rect x="320" y="340" width="10" height="20" fill="#396D7D" />
<rect x="330" y="340" width="20" height="10" fill="#254351" />
<rect x="810" y="340" width="10" height="1260" fill="#19374B" />
<rect x="820" y="340" width="60" height="10" fill="#254351" />
<rect x="880" y="340" width="10" height="1260" fill="#19374B" />
<rect x="30" y="350" width="10" height="20" fill="#254351" />
<rect x="40" y="350" width="10" height="10" fill="#396D7D" />
<rect x="50" y="350" width="10" height="20" fill="#254351" />
<rect x="100" y="350" width="20" height="10" fill="#396D7D" />
<rect x="270" y="350" width="20" height="10" fill="#396D7D" />
<rect x="330" y="350" width="10" height="10" fill="#254351" />
<rect x="340" y="350" width="10" height="10" fill="#396D7D" />
<rect x="350" y="350" width="10" height="20" fill="#254351" />
<rect x="820" y="350" width="10" height="30" fill="#254351" />
<rect x="830" y="350" width="10" height="1250" fill="#19374B" />
<rect x="840" y="350" width="20" height="30" fill="#254351" />
<rect x="860" y="350" width="10" height="1250" fill="#19374B" />
<rect x="870" y="350" width="10" height="30" fill="#254351" />
<rect x="40" y="360" width="10" height="10" fill="#254351" />
<rect x="120" y="360" width="10" height="10" fill="#396D7D" />
<rect x="170" y="360" width="10" height="30" fill="#396D7D" />
<rect x="210" y="360" width="10" height="30" fill="#396D7D" />
<rect x="260" y="360" width="10" height="10" fill="#396D7D" />
<rect x="330" y="360" width="10" height="30" fill="#396D7D" />
<rect x="340" y="360" width="10" height="10" fill="#254351" />
<rect x="1090" y="360" width="80" height="20" fill="#19374B" />
<rect x="50" y="370" width="10" height="20" fill="#396D7D" />
<rect x="130" y="370" width="10" height="10" fill="#396D7D" />
<rect x="250" y="370" width="10" height="10" fill="#396D7D" />
<rect x="60" y="380" width="20" height="10" fill="#396D7D" />
<rect x="140" y="380" width="20" height="10" fill="#396D7D" />
<rect x="230" y="380" width="20" height="10" fill="#396D7D" />
<rect x="310" y="380" width="20" height="10" fill="#396D7D" />
<rect x="660" y="380" width="90" height="20" fill="#19374B" />
<rect x="820" y="380" width="10" height="10" fill="#19374B" />
<rect x="840" y="380" width="20" height="10" fill="#19374B" />
<rect x="870" y="380" width="10" height="10" fill="#19374B" />
<rect x="1090" y="380" width="20" height="1220" fill="#19374B" />
<rect x="1110" y="380" width="10" height="10" fill="#396D7D" />
<rect x="1120" y="380" width="10" height="10" fill="#557B78" />
<rect x="1130" y="380" width="10" height="20" fill="#254351" />
<rect x="1140" y="380" width="10" height="10" fill="#557B78" />
<rect x="1150" y="380" width="20" height="1220" fill="#19374B" />
<rect x="40" y="390" width="10" height="70" fill="#396D7D" />
<rect x="80" y="390" width="40" height="10" fill="#396D7D" />
<rect x="160" y="390" width="10" height="10" fill="#396D7D" />
<rect x="180" y="390" width="30" height="20" fill="#254351" />
<rect x="220" y="390" width="10" height="10" fill="#396D7D" />
<rect x="270" y="390" width="40" height="10" fill="#396D7D" />
<rect x="340" y="390" width="10" height="70" fill="#396D7D" />
<rect x="820" y="390" width="10" height="10" fill="#254351" />
<rect x="840" y="390" width="20" height="10" fill="#254351" />
<rect x="870" y="390" width="10" height="10" fill="#254351" />
<rect x="900" y="390" width="90" height="20" fill="#19374B" />
<rect x="1110" y="390" width="20" height="10" fill="#254351" />
<rect x="1140" y="390" width="10" height="10" fill="#254351" />
<rect x="120" y="400" width="40" height="10" fill="#396D7D" />
<rect x="170" y="400" width="10" height="130" fill="#254351" />
<rect x="210" y="400" width="10" height="130" fill="#254351" />
<rect x="230" y="400" width="40" height="10" fill="#396D7D" />
<rect x="560" y="400" width="70" height="10" fill="#19374B" />
<rect x="660" y="400" width="20" height="1200" fill="#19374B" />
<rect x="680" y="400" width="10" height="10" fill="#396D7D" />
<rect x="690" y="400" width="20" height="10" fill="#557B78" />
<rect x="710" y="400" width="10" height="20" fill="#254351" />
<rect x="720" y="400" width="10" height="10" fill="#557B78" />
<rect x="730" y="400" width="20" height="1200" fill="#19374B" />
<rect x="820" y="400" width="10" height="10" fill="#19374B" />
<rect x="840" y="400" width="20" height="10" fill="#19374B" />
<rect x="870" y="400" width="10" height="10" fill="#19374B" />
<rect x="1110" y="400" width="10" height="20" fill="#254351" />
<rect x="1120" y="400" width="20" height="10" fill="#557B78" />
<rect x="1140" y="400" width="10" height="10" fill="#396D7D" />
<rect x="20" y="410" width="20" height="10" fill="#254351" />
<rect x="160" y="410" width="10" height="30" fill="#254351" />
<rect x="180" y="410" width="30" height="10" fill="#3C5F66" />
<rect x="220" y="410" width="10" height="30" fill="#254351" />
<rect x="350" y="410" width="20" height="10" fill="#254351" />
<rect x="560" y="410" width="10" height="1190" fill="#19374B" />
<rect x="570" y="410" width="40" height="20" fill="#254351" />
<rect x="610" y="410" width="20" height="1190" fill="#19374B" />
<rect x="680" y="410" width="30" height="10" fill="#254351" />
<rect x="720" y="410" width="10" height="10" fill="#254351" />
<rect x="760" y="410" width="40" height="10" fill="#19374B" />
<rect x="820" y="410" width="10" height="30" fill="#254351" />
<rect x="840" y="410" width="20" height="30" fill="#254351" />
<rect x="870" y="410" width="10" height="30" fill="#254351" />
<rect x="900" y="410" width="20" height="1190" fill="#19374B" />
<rect x="920" y="410" width="50" height="20" fill="#254351" />
<rect x="970" y="410" width="20" height="1190" fill="#19374B" />
<rect x="1120" y="410" width="30" height="10" fill="#254351" />
<rect x="1190" y="410" width="50" height="10" fill="#19374B" />
<rect x="10" y="420" width="10" height="20" fill="#254351" />
<rect x="20" y="420" width="10" height="10" fill="#396D7D" />
<rect x="30" y="420" width="10" height="20" fill="#254351" />
<rect x="50" y="420" width="110" height="10" fill="#396D7D" />
<rect x="180" y="420" width="10" height="20" fill="#3C5F66" />
<rect x="190" y="420" width="10" height="10" fill="#396D7D" />
<rect x="200" y="420" width="10" height="20" fill="#3C5F66" />
<rect x="230" y="420" width="110" height="10" fill="#396D7D" />
<rect x="350" y="420" width="10" height="20" fill="#254351" />
<rect x="360" y="420" width="10" height="10" fill="#396D7D" />
<rect x="370" y="420" width="10" height="20" fill="#254351" />
<rect x="420" y="420" width="70" height="20" fill="#19374B" />
<rect x="680" y="420" width="10" height="10" fill="#557B78" />
<rect x="690" y="420" width="10" height="20" fill="#254351" />
<rect x="700" y="420" width="20" height="10" fill="#557B78" />
<rect x="720" y="420" width="10" height="10" fill="#396D7D" />
<rect x="760" y="420" width="10" height="1180" fill="#19374B" />
<rect x="770" y="420" width="20" height="10" fill="#254351" />
<rect x="790" y="420" width="10" height="1180" fill="#19374B" />
<rect x="1110" y="420" width="10" height="10" fill="#396D7D" />
<rect x="1120" y="420" width="10" height="10" fill="#557B78" />
<rect x="1130" y="420" width="10" height="20" fill="#254351" />
<rect x="1140" y="420" width="10" height="10" fill="#557B78" />
<rect x="1190" y="420" width="20" height="1180" fill="#19374B" />
<rect x="1210" y="420" width="20" height="10" fill="#254351" />
<rect x="1230" y="420" width="10" height="1180" fill="#19374B" />
<rect x="20" y="430" width="10" height="10" fill="#254351" />
<rect x="190" y="430" width="10" height="10" fill="#3C5F66" />
<rect x="360" y="430" width="10" height="10" fill="#254351" />
<rect x="570" y="430" width="20" height="10" fill="#396D7D" />
<rect x="590" y="430" width="10" height="10" fill="#557B78" />
<rect x="600" y="430" width="10" height="20" fill="#254351" />
<rect x="680" y="430" width="10" height="10" fill="#254351" />
<rect x="700" y="430" width="30" height="10" fill="#254351" />
<rect x="770" y="430" width="10" height="10" fill="#557B78" />
<rect x="780" y="430" width="10" height="20" fill="#254351" />
<rect x="920" y="430" width="20" height="10" fill="#396D7D" />
<rect x="940" y="430" width="20" height="10" fill="#557B78" />
<rect x="960" y="430" width="10" height="20" fill="#254351" />
<rect x="1000" y="430" width="70" height="10" fill="#19374B" />
<rect x="1110" y="430" width="20" height="10" fill="#254351" />
<rect x="1140" y="430" width="10" height="10" fill="#254351" />
<rect x="1210" y="430" width="10" height="10" fill="#557B78" />
<rect x="1220" y="430" width="10" height="20" fill="#254351" />
<rect x="1360" y="430" width="60" height="10" fill="#19374B" />
<rect x="130" y="440" width="30" height="10" fill="#396D7D" />
<rect x="180" y="440" width="30" height="20" fill="#254351" />
<rect x="230" y="440" width="30" height="10" fill="#396D7D" />
<rect x="420" y="440" width="20" height="1160" fill="#19374B" />
<rect x="440" y="440" width="10" height="20" fill="#254351" />
<rect x="450" y="440" width="10" height="10" fill="#557B78" />
<rect x="460" y="440" width="10" height="10" fill="#396D7D" />
<rect x="470" y="440" width="20" height="1160" fill="#19374B" />
<rect x="510" y="440" width="40" height="20" fill="#19374B" />
<rect x="570" y="440" width="30" height="10" fill="#254351" />
<rect x="680" y="440" width="20" height="10" fill="#396D7D" />
<rect x="700" y="440" width="10" height="10" fill="#557B78" />
<rect x="710" y="440" width="10" height="20" fill="#254351" />
<rect x="720" y="440" width="10" height="10" fill="#557B78" />
<rect x="770" y="440" width="10" height="10" fill="#254351" />
<rect x="820" y="440" width="10" height="10" fill="#19374B" />
<rect x="840" y="440" width="20" height="10" fill="#19374B" />
<rect x="870" y="440" width="10" height="10" fill="#19374B" />
<rect x="920" y="440" width="40" height="10" fill="#254351" />
<rect x="1000" y="440" width="10" height="1160" fill="#19374B" />
<rect x="1010" y="440" width="40" height="10" fill="#254351" />
<rect x="1050" y="440" width="20" height="1160" fill="#19374B" />
<rect x="1110" y="440" width="10" height="20" fill="#254351" />
<rect x="1120" y="440" width="20" height="10" fill="#557B78" />
<rect x="1140" y="440" width="10" height="10" fill="#396D7D" />
<rect x="1210" y="440" width="10" height="10" fill="#254351" />
<rect x="1280" y="440" width="50" height="20" fill="#19374B" />
<rect x="1360" y="440" width="10" height="1160" fill="#19374B" />
<rect x="1370" y="440" width="40" height="10" fill="#254351" />
<rect x="1410" y="440" width="10" height="1160" fill="#19374B" />
<rect x="100" y="450" width="30" height="10" fill="#396D7D" />
<rect x="160" y="450" width="10" height="140" fill="#254351" />
<rect x="220" y="450" width="10" height="140" fill="#254351" />
<rect x="260" y="450" width="30" height="10" fill="#396D7D" />
<rect x="450" y="450" width="20" height="10" fill="#254351" />
<rect x="570" y="450" width="10" height="20" fill="#254351" />
<rect x="580" y="450" width="20" height="10" fill="#557B78" />
<rect x="600" y="450" width="10" height="10" fill="#396D7D" />
<rect x="680" y="450" width="30" height="10" fill="#254351" />
<rect x="720" y="450" width="10" height="10" fill="#254351" />
<rect x="770" y="450" width="20" height="10" fill="#396D7D" />
<rect x="820" y="450" width="10" height="10" fill="#254351" />
<rect x="840" y="450" width="20" height="10" fill="#254351" />
<rect x="870" y="450" width="10" height="10" fill="#254351" />
<rect x="920" y="450" width="10" height="20" fill="#254351" />
<rect x="930" y="450" width="20" height="10" fill="#396D7D" />
<rect x="950" y="450" width="20" height="10" fill="#557B78" />
<rect x="1010" y="450" width="10" height="10" fill="#396D7D" />
<rect x="1020" y="450" width="10" height="10" fill="#557B78" />
<rect x="1030" y="450" width="10" height="20" fill="#254351" />
<rect x="1040" y="450" width="10" height="10" fill="#396D7D" />
<rect x="1120" y="450" width="30" height="10" fill="#254351" />
<rect x="1210" y="450" width="10" height="10" fill="#557B78" />
<rect x="1220" y="450" width="10" height="10" fill="#396D7D" />
<rect x="1330" y="450" width="10" height="1150" fill="#19374B" />
<rect x="1370" y="450" width="10" height="10" fill="#396D7D" />
<rect x="1380" y="450" width="10" height="10" fill="#557B78" />
<rect x="1390" y="450" width="10" height="20" fill="#254351" />
<rect x="1400" y="450" width="10" height="10" fill="#557B78" />
<rect x="50" y="460" width="10" height="20" fill="#396D7D" />
<rect x="70" y="460" width="30" height="10" fill="#396D7D" />
<rect x="140" y="460" width="20" height="10" fill="#396D7D" />
<rect x="180" y="460" width="10" height="40" fill="#254351" />
<rect x="190" y="460" width="10" height="120" fill="#396D7D" />
<rect x="200" y="460" width="10" height="40" fill="#254351" />
<rect x="230" y="460" width="20" height="10" fill="#396D7D" />
<rect x="290" y="460" width="30" height="10" fill="#396D7D" />
<rect x="330" y="460" width="10" height="30" fill="#396D7D" />
<rect x="440" y="460" width="10" height="10" fill="#396D7D" />
<rect x="450" y="460" width="20" height="10" fill="#557B78" />
<rect x="510" y="460" width="10" height="1140" fill="#19374B" />
<rect x="520" y="460" width="10" height="10" fill="#396D7D" />
<rect x="530" y="460" width="10" height="20" fill="#254351" />
<rect x="540" y="460" width="10" height="1140" fill="#19374B" />
<rect x="580" y="460" width="30" height="10" fill="#254351" />
<rect x="680" y="460" width="30" height="10" fill="#396D7D" />
<rect x="710" y="460" width="20" height="10" fill="#557B78" />
<rect x="770" y="460" width="20" height="10" fill="#254351" />
<rect x="820" y="460" width="10" height="10" fill="#19374B" />
<rect x="840" y="460" width="20" height="10" fill="#19374B" />
<rect x="870" y="460" width="10" height="10" fill="#19374B" />
<rect x="930" y="460" width="40" height="10" fill="#254351" />
<rect x="1010" y="460" width="20" height="10" fill="#254351" />
<rect x="1040" y="460" width="10" height="10" fill="#254351" />
<rect x="1110" y="460" width="10" height="10" fill="#396D7D" />
<rect x="1120" y="460" width="10" height="10" fill="#557B78" />
<rect x="1130" y="460" width="10" height="20" fill="#254351" />
<rect x="1140" y="460" width="10" height="10" fill="#557B78" />
<rect x="1210" y="460" width="20" height="10" fill="#254351" />
<rect x="1280" y="460" width="10" height="1140" fill="#19374B" />
<rect x="1290" y="460" width="10" height="10" fill="#557B78" />
<rect x="1300" y="460" width="10" height="10" fill="#396D7D" />
<rect x="1310" y="460" width="10" height="20" fill="#254351" />
<rect x="1320" y="460" width="10" height="1140" fill="#19374B" />
<rect x="1370" y="460" width="20" height="10" fill="#254351" />
<rect x="1400" y="460" width="10" height="10" fill="#254351" />
<rect x="60" y="470" width="10" height="10" fill="#396D7D" />
<rect x="130" y="470" width="10" height="10" fill="#396D7D" />
<rect x="250" y="470" width="10" height="10" fill="#396D7D" />
<rect x="320" y="470" width="10" height="10" fill="#396D7D" />
<rect x="440" y="470" width="30" height="10" fill="#254351" />
<rect x="520" y="470" width="10" height="10" fill="#254351" />
<rect x="570" y="470" width="10" height="10" fill="#396D7D" />
<rect x="580" y="470" width="10" height="10" fill="#557B78" />
<rect x="590" y="470" width="10" height="50" fill="#254351" />
<rect x="600" y="470" width="10" height="10" fill="#557B78" />
<rect x="680" y="470" width="50" height="10" fill="#254351" />
<rect x="770" y="470" width="10" height="10" fill="#557B78" />
<rect x="780" y="470" width="10" height="30" fill="#254351" />
<rect x="820" y="470" width="10" height="30" fill="#254351" />
<rect x="840" y="470" width="20" height="30" fill="#254351" />
<rect x="870" y="470" width="10" height="30" fill="#254351" />
<rect x="920" y="470" width="10" height="10" fill="#557B78" />
<rect x="930" y="470" width="10" height="30" fill="#254351" />
<rect x="940" y="470" width="20" height="10" fill="#557B78" />
<rect x="960" y="470" width="10" height="10" fill="#396D7D" />
<rect x="1010" y="470" width="20" height="10" fill="#396D7D" />
<rect x="1030" y="470" width="20" height="10" fill="#557B78" />
<rect x="1110" y="470" width="20" height="10" fill="#254351" />
<rect x="1140" y="470" width="10" height="30" fill="#254351" />
<rect x="1210" y="470" width="10" height="10" fill="#396D7D" />
<rect x="1220" y="470" width="10" height="20" fill="#254351" />
<rect x="1290" y="470" width="20" height="10" fill="#254351" />
<rect x="1370" y="470" width="10" height="20" fill="#254351" />
<rect x="1380" y="470" width="20" height="10" fill="#557B78" />
<rect x="1400" y="470" width="10" height="10" fill="#396D7D" />
<rect x="1450" y="470" width="50" height="10" fill="#19374B" />
<rect x="40" y="480" width="20" height="10" fill="#254351" />
<rect x="120" y="480" width="10" height="10" fill="#396D7D" />
<rect x="260" y="480" width="10" height="10" fill="#396D7D" />
<rect x="340" y="480" width="10" height="10" fill="#254351" />
<rect x="440" y="480" width="10" height="10" fill="#557B78" />
<rect x="450" y="480" width="10" height="20" fill="#254351" />
<rect x="460" y="480" width="10" height="10" fill="#557B78" />
<rect x="520" y="480" width="10" height="10" fill="#396D7D" />
<rect x="530" y="480" width="10" height="10" fill="#557B78" />
<rect x="570" y="480" width="20" height="10" fill="#254351" />
<rect x="600" y="480" width="10" height="10" fill="#254351" />
<rect x="680" y="480" width="10" height="10" fill="#557B78" />
<rect x="690" y="480" width="10" height="30" fill="#254351" />
<rect x="700" y="480" width="10" height="10" fill="#557B78" />
<rect x="710" y="480" width="20" height="10" fill="#396D7D" />
<rect x="770" y="480" width="10" height="20" fill="#254351" />
<rect x="920" y="480" width="10" height="20" fill="#254351" />
<rect x="940" y="480" width="30" height="20" fill="#254351" />
<rect x="1010" y="480" width="40" height="20" fill="#254351" />
<rect x="1070" y="480" width="10" height="1120" fill="#19374B" />
<rect x="1110" y="480" width="10" height="20" fill="#254351" />
<rect x="1120" y="480" width="10" height="10" fill="#557B78" />
<rect x="1130" y="480" width="10" height="10" fill="#396D7D" />
<rect x="1170" y="480" width="10" height="1120" fill="#19374B" />
<rect x="1210" y="480" width="10" height="20" fill="#254351" />
<rect x="1290" y="480" width="10" height="10" fill="#396D7D" />
<rect x="1300" y="480" width="10" height="20" fill="#254351" />
<rect x="1310" y="480" width="10" height="10" fill="#396D7D" />
<rect x="1380" y="480" width="30" height="10" fill="#254351" />
<rect x="1450" y="480" width="20" height="10" fill="#19374B" />
<rect x="1470" y="480" width="20" height="20" fill="#254351" />
<rect x="1490" y="480" width="10" height="1120" fill="#19374B" />
<rect x="30" y="490" width="10" height="20" fill="#254351" />
<rect x="40" y="490" width="10" height="10" fill="#396D7D" />
<rect x="50" y="490" width="10" height="20" fill="#254351" />
<rect x="60" y="490" width="10" height="20" fill="#396D7D" />
<rect x="100" y="490" width="20" height="10" fill="#396D7D" />
<rect x="150" y="490" width="10" height="10" fill="#396D7D" />
<rect x="230" y="490" width="10" height="10" fill="#396D7D" />
<rect x="270" y="490" width="20" height="10" fill="#396D7D" />
<rect x="320" y="490" width="10" height="20" fill="#396D7D" />
<rect x="330" y="490" width="10" height="20" fill="#254351" />
<rect x="340" y="490" width="10" height="10" fill="#396D7D" />
<rect x="350" y="490" width="10" height="20" fill="#254351" />
<rect x="440" y="490" width="10" height="10" fill="#254351" />
<rect x="460" y="490" width="10" height="30" fill="#254351" />
<rect x="520" y="490" width="20" height="10" fill="#254351" />
<rect x="570" y="490" width="10" height="40" fill="#254351" />
<rect x="580" y="490" width="10" height="10" fill="#396D7D" />
<rect x="600" y="490" width="10" height="10" fill="#557B78" />
<rect x="650" y="490" width="10" height="1110" fill="#19374B" />
<rect x="680" y="490" width="10" height="20" fill="#254351" />
<rect x="700" y="490" width="30" height="20" fill="#254351" />
<rect x="750" y="490" width="10" height="1110" fill="#19374B" />
<rect x="800" y="490" width="10" height="1110" fill="#19374B" />
<rect x="890" y="490" width="10" height="1110" fill="#19374B" />
<rect x="990" y="490" width="10" height="1110" fill="#19374B" />
<rect x="1080" y="490" width="10" height="1110" fill="#19374B" />
<rect x="1120" y="490" width="20" height="10" fill="#254351" />
<rect x="1180" y="490" width="10" height="1110" fill="#19374B" />
<rect x="1220" y="490" width="10" height="20" fill="#557B78" />
<rect x="1290" y="490" width="10" height="30" fill="#254351" />
<rect x="1310" y="490" width="10" height="10" fill="#254351" />
<rect x="1370" y="490" width="20" height="10" fill="#396D7D" />
<rect x="1390" y="490" width="10" height="20" fill="#254351" />
<rect x="1400" y="490" width="10" height="10" fill="#557B78" />
<rect x="1450" y="490" width="10" height="1110" fill="#19374B" />
<rect x="1460" y="490" width="10" height="10" fill="#254351" />
<rect x="40" y="500" width="10" height="10" fill="#254351" />
<rect x="90" y="500" width="10" height="10" fill="#396D7D" />
<rect x="140" y="500" width="10" height="20" fill="#396D7D" />
<rect x="150" y="500" width="10" height="90" fill="#254351" />
<rect x="230" y="500" width="10" height="90" fill="#254351" />
<rect x="240" y="500" width="10" height="20" fill="#396D7D" />
<rect x="290" y="500" width="10" height="10" fill="#396D7D" />
<rect x="340" y="500" width="10" height="10" fill="#254351" />
<rect x="440" y="500" width="20" height="10" fill="#557B78" />
<rect x="520" y="500" width="10" height="30" fill="#254351" />
<rect x="530" y="500" width="10" height="10" fill="#557B78" />
<rect x="580" y="500" width="10" height="20" fill="#254351" />
<rect x="600" y="500" width="10" height="20" fill="#254351" />
<rect x="640" y="500" width="10" height="1100" fill="#19374B" />
<rect x="770" y="500" width="20" height="1100" fill="#19374B" />
<rect x="820" y="500" width="10" height="1100" fill="#19374B" />
<rect x="840" y="500" width="20" height="1100" fill="#19374B" />
<rect x="870" y="500" width="10" height="1100" fill="#19374B" />
<rect x="920" y="500" width="50" height="1100" fill="#19374B" />
<rect x="1010" y="500" width="40" height="1100" fill="#19374B" />
<rect x="1110" y="500" width="40" height="1100" fill="#19374B" />
<rect x="1210" y="500" width="10" height="1100" fill="#19374B" />
<rect x="1270" y="500" width="10" height="1100" fill="#19374B" />
<rect x="1300" y="500" width="20" height="10" fill="#557B78" />
<rect x="1370" y="500" width="20" height="10" fill="#254351" />
<rect x="1400" y="500" width="10" height="10" fill="#254351" />
<rect x="1460" y="500" width="10" height="10" fill="#396D7D" />
<rect x="1470" y="500" width="20" height="10" fill="#557B78" />
<rect x="1520" y="500" width="40" height="10" fill="#19374B" />
<rect x="70" y="510" width="20" height="10" fill="#396D7D" />
<rect x="300" y="510" width="20" height="10" fill="#396D7D" />
<rect x="440" y="510" width="20" height="10" fill="#254351" />
<rect x="530" y="510" width="10" height="20" fill="#254351" />
<rect x="630" y="510" width="10" height="1090" fill="#19374B" />
<rect x="680" y="510" width="50" height="1090" fill="#19374B" />
<rect x="1220" y="510" width="10" height="1090" fill="#19374B" />
<rect x="1240" y="510" width="30" height="1090" fill="#19374B" />
<rect x="1300" y="510" width="20" height="10" fill="#254351" />
<rect x="1340" y="510" width="10" height="1090" fill="#19374B" />
<rect x="1370" y="510" width="10" height="10" fill="#396D7D" />
<rect x="1380" y="510" width="10" height="20" fill="#254351" />
<rect x="1390" y="510" width="10" height="10" fill="#557B78" />
<rect x="1400" y="510" width="10" height="10" fill="#396D7D" />
<rect x="1460" y="510" width="30" height="10" fill="#254351" />
<rect x="1520" y="510" width="10" height="1090" fill="#19374B" />
<rect x="1530" y="510" width="20" height="10" fill="#254351" />
<rect x="1550" y="510" width="10" height="1090" fill="#19374B" />
<rect x="80" y="520" width="10" height="10" fill="#396D7D" />
<rect x="130" y="520" width="10" height="20" fill="#396D7D" />
<rect x="250" y="520" width="10" height="20" fill="#396D7D" />
<rect x="300" y="520" width="10" height="10" fill="#396D7D" />
<rect x="440" y="520" width="10" height="20" fill="#254351" />
<rect x="450" y="520" width="20" height="10" fill="#396D7D" />
<rect x="550" y="520" width="10" height="1080" fill="#19374B" />
<rect x="580" y="520" width="30" height="1080" fill="#19374B" />
<rect x="1290" y="520" width="30" height="1080" fill="#19374B" />
<rect x="1350" y="520" width="10" height="1080" fill="#19374B" />
<rect x="1370" y="520" width="10" height="10" fill="#254351" />
<rect x="1390" y="520" width="20" height="10" fill="#254351" />
<rect x="1460" y="520" width="10" height="20" fill="#254351" />
<rect x="1470" y="520" width="10" height="10" fill="#557B78" />
<rect x="1480" y="520" width="10" height="10" fill="#396D7D" />
<rect x="1530" y="520" width="10" height="20" fill="#254351" />
<rect x="1540" y="520" width="10" height="10" fill="#396D7D" />
<rect x="90" y="530" width="10" height="10" fill="#396D7D" />
<rect x="140" y="530" width="10" height="60" fill="#254351" />
<rect x="240" y="530" width="10" height="60" fill="#254351" />
<rect x="290" y="530" width="10" height="10" fill="#396D7D" />
<rect x="410" y="530" width="10" height="1070" fill="#19374B" />
<rect x="450" y="530" width="20" height="10" fill="#254351" />
<rect x="490" y="530" width="20" height="1070" fill="#19374B" />
<rect x="520" y="530" width="20" height="1070" fill="#19374B" />
<rect x="570" y="530" width="10" height="1070" fill="#19374B" />
<rect x="1370" y="530" width="30" height="1070" fill="#19374B" />
<rect x="1400" y="530" width="10" height="10" fill="#254351" />
<rect x="1420" y="530" width="10" height="1070" fill="#19374B" />
<rect x="1470" y="530" width="20" height="10" fill="#254351" />
<rect x="1540" y="530" width="10" height="10" fill="#254351" />
<rect x="80" y="540" width="20" height="10" fill="#254351" />
<rect x="100" y="540" width="10" height="10" fill="#396D7D" />
<rect x="120" y="540" width="10" height="20" fill="#396D7D" />
<rect x="260" y="540" width="10" height="20" fill="#396D7D" />
<rect x="280" y="540" width="10" height="10" fill="#396D7D" />
<rect x="290" y="540" width="20" height="10" fill="#254351" />
<rect x="440" y="540" width="30" height="1060" fill="#19374B" />
<rect x="1400" y="540" width="10" height="1060" fill="#19374B" />
<rect x="1430" y="540" width="20" height="1060" fill="#19374B" />
<rect x="1460" y="540" width="10" height="10" fill="#396D7D" />
<rect x="1470" y="540" width="10" height="20" fill="#254351" />
<rect x="1480" y="540" width="10" height="10" fill="#396D7D" />
<rect x="1530" y="540" width="10" height="10" fill="#557B78" />
<rect x="1540" y="540" width="10" height="10" fill="#396D7D" />
<rect x="70" y="550" width="10" height="20" fill="#254351" />
<rect x="80" y="550" width="10" height="10" fill="#396D7D" />
<rect x="90" y="550" width="10" height="20" fill="#254351" />
<rect x="110" y="550" width="10" height="10" fill="#396D7D" />
<rect x="270" y="550" width="10" height="10" fill="#396D7D" />
<rect x="290" y="550" width="10" height="20" fill="#254351" />
<rect x="300" y="550" width="10" height="10" fill="#396D7D" />
<rect x="310" y="550" width="10" height="20" fill="#254351" />
<rect x="390" y="550" width="20" height="1050" fill="#19374B" />
<rect x="1460" y="550" width="10" height="1050" fill="#19374B" />
<rect x="1480" y="550" width="10" height="10" fill="#254351" />
<rect x="1500" y="550" width="10" height="1050" fill="#19374B" />
<rect x="1530" y="550" width="20" height="10" fill="#254351" />
<rect x="80" y="560" width="10" height="10" fill="#254351" />
<rect x="130" y="560" width="10" height="10" fill="#396D7D" />
<rect x="250" y="560" width="10" height="10" fill="#396D7D" />
<rect x="300" y="560" width="10" height="10" fill="#254351" />
<rect x="320" y="560" width="70" height="1040" fill="#19374B" />
<rect x="1470" y="560" width="20" height="1040" fill="#19374B" />
<rect x="1510" y="560" width="10" height="1040" fill="#19374B" />
<rect x="1530" y="560" width="10" height="10" fill="#254351" />
<rect x="1540" y="560" width="10" height="10" fill="#396D7D" />
<rect x="170" y="570" width="20" height="10" fill="#396D7D" />
<rect x="200" y="570" width="20" height="10" fill="#396D7D" />
<rect x="280" y="570" width="40" height="1030" fill="#19374B" />
<rect x="1530" y="570" width="10" height="1030" fill="#19374B" />
<rect x="1540" y="570" width="10" height="10" fill="#254351" />
<rect x="1540" y="580" width="10" height="1020" fill="#19374B" />
<rect x="1560" y="580" width="10" height="1020" fill="#19374B" />
<rect x="120" y="590" width="160" height="1010" fill="#19374B" />
<rect x="1570" y="590" width="30" height="1010" fill="#19374B" />
<rect x="90" y="620" width="30" height="980" fill="#19374B" />
<rect x="60" y="630" width="30" height="970" fill="#19374B" />
<rect x="30" y="640" width="30" height="960" fill="#19374B" />
<rect x="0" y="650" width="30" height="950" fill="#19374B" />
</svg>