<?xml version="1.0" encoding="UTF-8" ?>
<svg version="1.1" width="1600" height="1600" xmlns="http://www.w3.org/2000/svg" shape-rendering="crispEdges">
<rect x="410" y="250" width="10" height="90" fill="#254351" />
<rect x="390" y="270" width="10" height="70" fill="#254351" />
<rect x="400" y="290" width="10" height="90" fill="#254351" />
<rect x="420" y="300" width="10" height="60" fill="#254351" />
<rect x="380" y="320" width="10" height="60" fill="#254351" />
<rect x="390" y="340" width="10" height="10" fill="#3C5F66" />
<rect x="410" y="340" width="10" height="10" fill="#3C5F66" />
<rect x="390" y="350" width="10" height="10" fill="#A2B8B1" />
<rect x="410" y="350" width="10" height="10" fill="#A2B8B1" />
<rect x="390" y="360" width="10" height="10" fill="#3C5F66" />
<rect x="410" y="360" width="20" height="10" fill="#3C5F66" />
<rect x="430" y="360" width="10" height="50" fill="#254351" />
<rect x="390" y="370" width="10" height="10" fill="#719797" />
<rect x="410" y="370" width="10" height="10" fill="#719797" />
<rect x="420" y="370" width="10" height="10" fill="#A2B8B1" />
<rect x="370" y="380" width="10" height="60" fill="#254351" />
<rect x="380" y="380" width="30" height="10" fill="#3C5F66" />
<rect x="410" y="380" width="10" height="100" fill="#254351" />
<rect x="420" y="380" width="10" height="10" fill="#3C5F66" />
<rect x="380" y="390" width="20" height="10" fill="#719797" />
<rect x="400" y="390" width="10" height="10" fill="#3C5F66" />
<rect x="420" y="390" width="10" height="10" fill="#A2B8B1" />
<rect x="380" y="400" width="20" height="10" fill="#3C5F66" />
<rect x="400" y="400" width="10" height="10" fill="#A2B8B1" />
<rect x="420" y="400" width="10" height="20" fill="#3C5F66" />
<rect x="380" y="410" width="10" height="10" fill="#A2B8B1" />
<rect x="390" y="410" width="20" height="10" fill="#3C5F66" />
<rect x="430" y="410" width="10" height="10" fill="#A2B8B1" />
<rect x="440" y="410" width="10" height="50" fill="#254351" />
<rect x="380" y="420" width="10" height="10" fill="#3C5F66" />
<rect x="390" y="420" width="20" height="10" fill="#A2B8B1" />
<rect x="420" y="420" width="10" height="10" fill="#A2B8B1" />
<rect x="430" y="420" width="10" height="20" fill="#3C5F66" />
<rect x="380" y="430" width="10" height="10" fill="#A2B8B1" />
<rect x="390" y="430" width="20" height="10" fill="#3C5F66" />
<rect x="420" y="430" width="10" height="10" fill="#3C5F66" />
<rect x="360" y="440" width="10" height="60" fill="#254351" />
<rect x="370" y="440" width="10" height="20" fill="#3C5F66" />
<rect x="380" y="440" width="20" height="10" fill="#719797" />
<rect x="400" y="440" width="10" height="10" fill="#3C5F66" />
<rect x="420" y="440" width="10" height="10" fill="#719797" />
<rect x="430" y="440" width="10" height="10" fill="#A2B8B1" />
<rect x="380" y="450" width="20" height="20" fill="#3C5F66" />
<rect x="400" y="450" width="10" height="10" fill="#A2B8B1" />
<rect x="420" y="450" width="20" height="10" fill="#3C5F66" />
<rect x="370" y="460" width="10" height="10" fill="#A2B8B1" />
<rect x="400" y="460" width="10" height="20" fill="#3C5F66" />
<rect x="420" y="460" width="10" height="10" fill="#3C5F66" />
<rect x="430" y="460" width="10" height="10" fill="#A2B8B1" />
<rect x="440" y="460" width="10" height="20" fill="#3C5F66" />
<rect x="450" y="460" width="10" height="60" fill="#254351" />
<rect x="370" y="470" width="10" height="20" fill="#3C5F66" />
<rect x="380" y="470" width="10" height="10" fill="#719797" />
<rect x="390" y="470" width="10" height="10" fill="#A2B8B1" />
<rect x="420" y="470" width="10" height="10" fill="#719797" />
<rect x="430" y="470" width="10" height="20" fill="#3C5F66" />
<rect x="380" y="480" width="20" height="10" fill="#3C5F66" />
<rect x="400" y="480" width="10" height="10" fill="#A2B8B1" />
<rect x="410" y="480" width="10" height="20" fill="#3C5F66" />
<rect x="420" y="480" width="10" height="90" fill="#254351" />
<rect x="440" y="480" width="10" height="10" fill="#A2B8B1" />
<rect x="370" y="490" width="10" height="10" fill="#A2B8B1" />
<rect x="380" y="490" width="10" height="10" fill="#719797" />
<rect x="390" y="490" width="20" height="10" fill="#3C5F66" />
<rect x="430" y="490" width="10" height="10" fill="#A2B8B1" />
<rect x="440" y="490" width="10" height="20" fill="#3C5F66" />
<rect x="350" y="500" width="10" height="60" fill="#254351" />
<rect x="360" y="500" width="30" height="10" fill="#3C5F66" />
<rect x="390" y="500" width="10" height="10" fill="#A2B8B1" />
<rect x="400" y="500" width="20" height="10" fill="#719797" />
<rect x="430" y="500" width="10" height="10" fill="#3C5F66" />
<rect x="780" y="500" width="60" height="10" fill="#254351" />
<rect x="360" y="510" width="10" height="10" fill="#719797" />
<rect x="370" y="510" width="10" height="10" fill="#A2B8B1" />
<rect x="380" y="510" width="40" height="10" fill="#3C5F66" />
<rect x="430" y="510" width="10" height="10" fill="#A2B8B1" />
<rect x="440" y="510" width="10" height="10" fill="#719797" />
<rect x="650" y="510" width="80" height="10" fill="#254351" />
<rect x="780" y="510" width="10" height="1090" fill="#254351" />
<rect x="790" y="510" width="30" height="20" fill="#3C5F66" />
<rect x="820" y="510" width="20" height="1090" fill="#254351" />
<rect x="360" y="520" width="20" height="10" fill="#3C5F66" />
<rect x="380" y="520" width="20" height="10" fill="#A2B8B1" />
<rect x="400" y="520" width="20" height="10" fill="#719797" />
<rect x="430" y="520" width="20" height="10" fill="#3C5F66" />
<rect x="450" y="520" width="10" height="10" fill="#A2B8B1" />
<rect x="460" y="520" width="10" height="50" fill="#254351" />
<rect x="650" y="520" width="20" height="1080" fill="#254351" />
<rect x="670" y="520" width="40" height="20" fill="#3C5F66" />
<rect x="710" y="520" width="20" height="1080" fill="#254351" />
<rect x="1030" y="520" width="70" height="10" fill="#254351" />
<rect x="1150" y="520" width="70" height="20" fill="#254351" />
<rect x="360" y="530" width="10" height="10" fill="#719797" />
<rect x="370" y="530" width="10" height="10" fill="#A2B8B1" />
<rect x="380" y="530" width="40" height="10" fill="#3C5F66" />
<rect x="430" y="530" width="10" height="10" fill="#A2B8B1" />
<rect x="440" y="530" width="10" height="10" fill="#719797" />
<rect x="450" y="530" width="10" height="20" fill="#3C5F66" />
<rect x="790" y="530" width="10" height="10" fill="#719797" />
<rect x="800" y="530" width="10" height="10" fill="#A2B8B1" />
<rect x="810" y="530" width="10" height="20" fill="#3C5F66" />
<rect x="1030" y="530" width="20" height="1070" fill="#254351" />
<rect x="1050" y="530" width="40" height="20" fill="#3C5F66" />
<rect x="1090" y="530" width="30" height="20" fill="#254351" />
<rect x="360" y="540" width="20" height="10" fill="#3C5F66" />
<rect x="380" y="540" width="40" height="10" fill="#A2B8B1" />
<rect x="430" y="540" width="20" height="10" fill="#3C5F66" />
<rect x="540" y="540" width="70" height="20" fill="#254351" />
<rect x="670" y="540" width="10" height="10" fill="#719797" />
<rect x="680" y="540" width="20" height="10" fill="#A2B8B1" />
<rect x="700" y="540" width="10" height="20" fill="#3C5F66" />
<rect x="790" y="540" width="20" height="10" fill="#3C5F66" />
<rect x="1150" y="540" width="20" height="1060" fill="#254351" />
<rect x="1170" y="540" width="10" height="10" fill="#719797" />
<rect x="1180" y="540" width="10" height="20" fill="#3C5F66" />
<rect x="1190" y="540" width="10" height="10" fill="#A2B8B1" />
<rect x="1200" y="540" width="20" height="1060" fill="#254351" />
<rect x="1250" y="540" width="80" height="10" fill="#254351" />
<rect x="360" y="550" width="10" height="10" fill="#A2B8B1" />
<rect x="370" y="550" width="50" height="10" fill="#3C5F66" />
<rect x="430" y="550" width="10" height="10" fill="#A2B8B1" />
<rect x="440" y="550" width="20" height="10" fill="#719797" />
<rect x="670" y="550" width="30" height="10" fill="#3C5F66" />
<rect x="790" y="550" width="10" height="20" fill="#3C5F66" />
<rect x="800" y="550" width="10" height="10" fill="#A2B8B1" />
<rect x="810" y="550" width="10" height="10" fill="#719797" />
<rect x="1050" y="550" width="20" height="10" fill="#719797" />
<rect x="1070" y="550" width="10" height="20" fill="#3C5F66" />
<rect x="1080" y="550" width="10" height="10" fill="#719797" />
<rect x="1090" y="550" width="20" height="20" fill="#3C5F66" />
<rect x="1110" y="550" width="10" height="1050" fill="#254351" />
<rect x="1170" y="550" width="10" height="10" fill="#3C5F66" />
<rect x="1190" y="550" width="10" height="50" fill="#3C5F66" />
<rect x="1250" y="550" width="10" height="1050" fill="#254351" />
<rect x="1260" y="550" width="50" height="10" fill="#3C5F66" />
<rect x="1310" y="550" width="20" height="1050" fill="#254351" />
<rect x="340" y="560" width="10" height="60" fill="#254351" />
<rect x="350" y="560" width="20" height="20" fill="#3C5F66" />
<rect x="370" y="560" width="10" height="10" fill="#A2B8B1" />
<rect x="380" y="560" width="10" height="10" fill="#3C5F66" />
<rect x="390" y="560" width="10" height="10" fill="#A2B8B1" />
<rect x="400" y="560" width="20" height="10" fill="#719797" />
<rect x="430" y="560" width="30" height="10" fill="#3C5F66" />
<rect x="530" y="560" width="20" height="1040" fill="#254351" />
<rect x="550" y="560" width="10" height="10" fill="#719797" />
<rect x="560" y="560" width="20" height="10" fill="#A2B8B1" />
<rect x="580" y="560" width="10" height="20" fill="#3C5F66" />
<rect x="590" y="560" width="10" height="10" fill="#A2B8B1" />
<rect x="600" y="560" width="10" height="1040" fill="#254351" />
<rect x="670" y="560" width="10" height="40" fill="#3C5F66" />
<rect x="680" y="560" width="10" height="10" fill="#A2B8B1" />
<rect x="690" y="560" width="10" height="20" fill="#3C5F66" />
<rect x="700" y="560" width="10" height="10" fill="#719797" />
<rect x="800" y="560" width="20" height="10" fill="#3C5F66" />
<rect x="890" y="560" width="50" height="10" fill="#254351" />
<rect x="1050" y="560" width="20" height="10" fill="#3C5F66" />
<rect x="1080" y="560" width="10" height="10" fill="#3C5F66" />
<rect x="1170" y="560" width="10" height="10" fill="#A2B8B1" />
<rect x="1180" y="560" width="10" height="10" fill="#719797" />
<rect x="1260" y="560" width="10" height="10" fill="#719797" />
<rect x="1270" y="560" width="20" height="10" fill="#A2B8B1" />
<rect x="1290" y="560" width="10" height="20" fill="#3C5F66" />
<rect x="1300" y="560" width="10" height="10" fill="#A2B8B1" />
<rect x="1380" y="560" width="60" height="10" fill="#254351" />
<rect x="370" y="570" width="10" height="20" fill="#3C5F66" />
<rect x="380" y="570" width="10" height="10" fill="#A2B8B1" />
<rect x="390" y="570" width="40" height="20" fill="#3C5F66" />
<rect x="430" y="570" width="10" height="100" fill="#254351" />
<rect x="440" y="570" width="20" height="10" fill="#A2B8B1" />
<rect x="460" y="570" width="10" height="20" fill="#3C5F66" />
<rect x="470" y="570" width="10" height="50" fill="#254351" />
<rect x="550" y="570" width="30" height="10" fill="#3C5F66" />
<rect x="590" y="570" width="10" height="10" fill="#3C5F66" />
<rect x="680" y="570" width="10" height="10" fill="#3C5F66" />
<rect x="700" y="570" width="10" height="10" fill="#3C5F66" />
<rect x="790" y="570" width="10" height="10" fill="#719797" />
<rect x="800" y="570" width="10" height="10" fill="#A2B8B1" />
<rect x="810" y="570" width="10" height="40" fill="#3C5F66" />
<rect x="860" y="570" width="40" height="10" fill="#254351" />
<rect x="900" y="570" width="30" height="20" fill="#3C5F66" />
<rect x="930" y="570" width="30" height="10" fill="#254351" />
<rect x="1050" y="570" width="20" height="10" fill="#A2B8B1" />
<rect x="1070" y="570" width="20" height="10" fill="#719797" />
<rect x="1090" y="570" width="10" height="20" fill="#3C5F66" />
<rect x="1100" y="570" width="10" height="10" fill="#719797" />
<rect x="1170" y="570" width="20" height="10" fill="#3C5F66" />
<rect x="1260" y="570" width="30" height="10" fill="#3C5F66" />
<rect x="1300" y="570" width="10" height="30" fill="#3C5F66" />
<rect x="1380" y="570" width="10" height="1030" fill="#254351" />
<rect x="1390" y="570" width="40" height="10" fill="#3C5F66" />
<rect x="1430" y="570" width="10" height="1030" fill="#254351" />
<rect x="350" y="580" width="10" height="10" fill="#719797" />
<rect x="360" y="580" width="10" height="10" fill="#3C5F66" />
<rect x="380" y="580" width="10" height="20" fill="#3C5F66" />
<rect x="440" y="580" width="10" height="10" fill="#719797" />
<rect x="450" y="580" width="10" height="20" fill="#3C5F66" />
<rect x="550" y="580" width="10" height="20" fill="#3C5F66" />
<rect x="560" y="580" width="20" height="10" fill="#A2B8B1" />
<rect x="580" y="580" width="20" height="10" fill="#719797" />
<rect x="680" y="580" width="30" height="10" fill="#A2B8B1" />
<rect x="790" y="580" width="20" height="10" fill="#3C5F66" />
<rect x="860" y="580" width="20" height="1020" fill="#254351" />
<rect x="880" y="580" width="20" height="10" fill="#3C5F66" />
<rect x="930" y="580" width="10" height="10" fill="#3C5F66" />
<rect x="940" y="580" width="20" height="1020" fill="#254351" />
<rect x="1050" y="580" width="40" height="10" fill="#3C5F66" />
<rect x="1100" y="580" width="10" height="10" fill="#3C5F66" />
<rect x="1170" y="580" width="20" height="10" fill="#719797" />
<rect x="1260" y="580" width="10" height="40" fill="#3C5F66" />
<rect x="1270" y="580" width="10" height="10" fill="#A2B8B1" />
<rect x="1280" y="580" width="20" height="10" fill="#719797" />
<rect x="1390" y="580" width="10" height="10" fill="#A2B8B1" />
<rect x="1400" y="580" width="10" height="10" fill="#719797" />
<rect x="1410" y="580" width="10" height="20" fill="#3C5F66" />
<rect x="1420" y="580" width="10" height="10" fill="#719797" />
<rect x="350" y="590" width="10" height="20" fill="#3C5F66" />
<rect x="360" y="590" width="20" height="10" fill="#719797" />
<rect x="390" y="590" width="10" height="10" fill="#3C5F66" />
<rect x="400" y="590" width="30" height="10" fill="#A2B8B1" />
<rect x="440" y="590" width="10" height="10" fill="#3C5F66" />
<rect x="460" y="590" width="10" height="10" fill="#719797" />
<rect x="560" y="590" width="40" height="10" fill="#3C5F66" />
<rect x="680" y="590" width="30" height="10" fill="#3C5F66" />
<rect x="790" y="590" width="10" height="20" fill="#3C5F66" />
<rect x="800" y="590" width="10" height="10" fill="#A2B8B1" />
<rect x="880" y="590" width="10" height="10" fill="#A2B8B1" />
<rect x="890" y="590" width="10" height="20" fill="#3C5F66" />
<rect x="900" y="590" width="20" height="10" fill="#719797" />
<rect x="920" y="590" width="10" height="20" fill="#3C5F66" />
<rect x="930" y="590" width="10" height="10" fill="#A2B8B1" />
<rect x="1050" y="590" width="10" height="10" fill="#719797" />
<rect x="1060" y="590" width="10" height="10" fill="#A2B8B1" />
<rect x="1070" y="590" width="10" height="20" fill="#3C5F66" />
<rect x="1080" y="590" width="10" height="10" fill="#A2B8B1" />
<rect x="1090" y="590" width="10" height="10" fill="#719797" />
<rect x="1100" y="590" width="10" height="10" fill="#A2B8B1" />
<rect x="1170" y="590" width="20" height="10" fill="#3C5F66" />
<rect x="1270" y="590" width="30" height="10" fill="#3C5F66" />
<rect x="1390" y="590" width="20" height="10" fill="#3C5F66" />
<rect x="1420" y="590" width="10" height="30" fill="#3C5F66" />
<rect x="360" y="600" width="20" height="10" fill="#3C5F66" />
<rect x="380" y="600" width="20" height="10" fill="#719797" />
<rect x="400" y="600" width="30" height="10" fill="#3C5F66" />
<rect x="440" y="600" width="10" height="10" fill="#A2B8B1" />
<rect x="450" y="600" width="10" height="10" fill="#719797" />
<rect x="460" y="600" width="10" height="20" fill="#3C5F66" />
<rect x="550" y="600" width="10" height="10" fill="#A2B8B1" />
<rect x="560" y="600" width="10" height="20" fill="#3C5F66" />
<rect x="570" y="600" width="20" height="10" fill="#A2B8B1" />
<rect x="590" y="600" width="10" height="10" fill="#719797" />
<rect x="670" y="600" width="10" height="10" fill="#A2B8B1" />
<rect x="680" y="600" width="10" height="20" fill="#3C5F66" />
<rect x="690" y="600" width="10" height="10" fill="#A2B8B1" />
<rect x="700" y="600" width="10" height="10" fill="#719797" />
<rect x="800" y="600" width="10" height="10" fill="#3C5F66" />
<rect x="880" y="600" width="10" height="30" fill="#3C5F66" />
<rect x="900" y="600" width="20" height="10" fill="#3C5F66" />
<rect x="930" y="600" width="10" height="10" fill="#3C5F66" />
<rect x="1050" y="600" width="20" height="10" fill="#3C5F66" />
<rect x="1080" y="600" width="30" height="10" fill="#3C5F66" />
<rect x="1170" y="600" width="10" height="20" fill="#3C5F66" />
<rect x="1180" y="600" width="20" height="10" fill="#719797" />
<rect x="1270" y="600" width="10" height="10" fill="#A2B8B1" />
<rect x="1280" y="600" width="10" height="20" fill="#3C5F66" />
<rect x="1290" y="600" width="10" height="10" fill="#A2B8B1" />
<rect x="1300" y="600" width="10" height="10" fill="#719797" />
<rect x="1390" y="600" width="10" height="10" fill="#719797" />
<rect x="1400" y="600" width="10" height="20" fill="#3C5F66" />
<rect x="1410" y="600" width="10" height="10" fill="#A2B8B1" />
<rect x="1470" y="600" width="70" height="10" fill="#254351" />
<rect x="120" y="610" width="70" height="20" fill="#254351" />
<rect x="230" y="610" width="60" height="10" fill="#254351" />
<rect x="350" y="610" width="10" height="10" fill="#A2B8B1" />
<rect x="360" y="610" width="10" height="10" fill="#719797" />
<rect x="370" y="610" width="50" height="10" fill="#3C5F66" />
<rect x="420" y="610" width="10" height="10" fill="#719797" />
<rect x="440" y="610" width="20" height="10" fill="#3C5F66" />
<rect x="550" y="610" width="10" height="10" fill="#3C5F66" />
<rect x="570" y="610" width="30" height="10" fill="#3C5F66" />
<rect x="670" y="610" width="10" height="30" fill="#3C5F66" />
<rect x="690" y="610" width="20" height="10" fill="#3C5F66" />
<rect x="790" y="610" width="10" height="10" fill="#719797" />
<rect x="800" y="610" width="20" height="10" fill="#A2B8B1" />
<rect x="890" y="610" width="10" height="10" fill="#A2B8B1" />
<rect x="900" y="610" width="10" height="40" fill="#3C5F66" />
<rect x="910" y="610" width="10" height="10" fill="#A2B8B1" />
<rect x="920" y="610" width="20" height="10" fill="#719797" />
<rect x="1050" y="610" width="10" height="10" fill="#A2B8B1" />
<rect x="1060" y="610" width="10" height="20" fill="#3C5F66" />
<rect x="1070" y="610" width="20" height="10" fill="#719797" />
<rect x="1090" y="610" width="10" height="10" fill="#A2B8B1" />
<rect x="1100" y="610" width="10" height="20" fill="#3C5F66" />
<rect x="1180" y="610" width="20" height="10" fill="#3C5F66" />
<rect x="1270" y="610" width="10" height="10" fill="#3C5F66" />
<rect x="1290" y="610" width="20" height="10" fill="#3C5F66" />
<rect x="1390" y="610" width="10" height="10" fill="#3C5F66" />
<rect x="1410" y="610" width="10" height="30" fill="#3C5F66" />
<rect x="1470" y="610" width="20" height="990" fill="#254351" />
<rect x="1490" y="610" width="30" height="10" fill="#3C5F66" />
<rect x="1520" y="610" width="20" height="990" fill="#254351" />
<rect x="110" y="620" width="10" height="980" fill="#254351" />
<rect x="230" y="620" width="10" height="980" fill="#254351" />
<rect x="240" y="620" width="20" height="10" fill="#A2B8B1" />
<rect x="260" y="620" width="10" height="20" fill="#3C5F66" />
<rect x="270" y="620" width="20" height="980" fill="#254351" />
<rect x="330" y="620" width="10" height="60" fill="#254351" />
<rect x="340" y="620" width="40" height="10" fill="#3C5F66" />
<rect x="380" y="620" width="20" height="10" fill="#A2B8B1" />
<rect x="400" y="620" width="20" height="10" fill="#719797" />
<rect x="420" y="620" width="10" height="20" fill="#3C5F66" />
<rect x="440" y="620" width="10" height="10" fill="#3C5F66" />
<rect x="450" y="620" width="20" height="10" fill="#719797" />
<rect x="470" y="620" width="10" height="20" fill="#3C5F66" />
<rect x="480" y="620" width="10" height="60" fill="#254351" />
<rect x="550" y="620" width="10" height="10" fill="#719797" />
<rect x="560" y="620" width="10" height="10" fill="#A2B8B1" />
<rect x="570" y="620" width="10" height="40" fill="#3C5F66" />
<rect x="580" y="620" width="10" height="10" fill="#A2B8B1" />
<rect x="590" y="620" width="10" height="10" fill="#719797" />
<rect x="680" y="620" width="30" height="10" fill="#A2B8B1" />
<rect x="790" y="620" width="30" height="10" fill="#3C5F66" />
<rect x="890" y="620" width="10" height="10" fill="#3C5F66" />
<rect x="910" y="620" width="30" height="10" fill="#3C5F66" />
<rect x="1050" y="620" width="10" height="30" fill="#3C5F66" />
<rect x="1070" y="620" width="30" height="10" fill="#3C5F66" />
<rect x="1170" y="620" width="10" height="10" fill="#A2B8B1" />
<rect x="1180" y="620" width="10" height="30" fill="#3C5F66" />
<rect x="1190" y="620" width="10" height="10" fill="#A2B8B1" />
<rect x="1260" y="620" width="10" height="10" fill="#A2B8B1" />
<rect x="1270" y="620" width="20" height="10" fill="#719797" />
<rect x="1290" y="620" width="10" height="20" fill="#3C5F66" />
<rect x="1300" y="620" width="10" height="10" fill="#A2B8B1" />
<rect x="1390" y="620" width="10" height="10" fill="#719797" />
<rect x="1400" y="620" width="10" height="10" fill="#A2B8B1" />
<rect x="1420" y="620" width="10" height="10" fill="#A2B8B1" />
<rect x="1490" y="620" width="10" height="10" fill="#A2B8B1" />
<rect x="1500" y="620" width="20" height="10" fill="#3C5F66" />
<rect x="30" y="630" width="60" height="20" fill="#254351" />
<rect x="120" y="630" width="10" height="970" fill="#254351" />
<rect x="130" y="630" width="10" height="20" fill="#3C5F66" />
<rect x="140" y="630" width="10" height="10" fill="#719797" />
<rect x="150" y="630" width="20" height="10" fill="#A2B8B1" />
<rect x="170" y="630" width="20" height="970" fill="#254351" />
<rect x="240" y="630" width="20" height="10" fill="#3C5F66" />
<rect x="340" y="630" width="20" height="10" fill="#719797" />
<rect x="360" y="630" width="60" height="10" fill="#3C5F66" />
<rect x="440" y="630" width="10" height="10" fill="#A2B8B1" />
<rect x="450" y="630" width="20" height="10" fill="#3C5F66" />
<rect x="550" y="630" width="20" height="30" fill="#3C5F66" />
<rect x="580" y="630" width="20" height="10" fill="#3C5F66" />
<rect x="680" y="630" width="30" height="10" fill="#3C5F66" />
<rect x="790" y="630" width="10" height="10" fill="#A2B8B1" />
<rect x="800" y="630" width="10" height="20" fill="#3C5F66" />
<rect x="810" y="630" width="10" height="10" fill="#A2B8B1" />
<rect x="880" y="630" width="10" height="10" fill="#719797" />
<rect x="890" y="630" width="10" height="10" fill="#A2B8B1" />
<rect x="910" y="630" width="10" height="10" fill="#719797" />
<rect x="920" y="630" width="10" height="10" fill="#A2B8B1" />
<rect x="930" y="630" width="10" height="20" fill="#3C5F66" />
<rect x="1060" y="630" width="10" height="10" fill="#A2B8B1" />
<rect x="1070" y="630" width="20" height="10" fill="#719797" />
<rect x="1090" y="630" width="10" height="20" fill="#3C5F66" />
<rect x="1100" y="630" width="10" height="10" fill="#719797" />
<rect x="1170" y="630" width="10" height="20" fill="#3C5F66" />
<rect x="1190" y="630" width="10" height="20" fill="#3C5F66" />
<rect x="1260" y="630" width="30" height="10" fill="#3C5F66" />
<rect x="1300" y="630" width="10" height="10" fill="#3C5F66" />
<rect x="1390" y="630" width="20" height="10" fill="#3C5F66" />
<rect x="1420" y="630" width="10" height="10" fill="#3C5F66" />
<rect x="1490" y="630" width="10" height="20" fill="#3C5F66" />
<rect x="1500" y="630" width="20" height="10" fill="#719797" />
<rect x="90" y="640" width="10" height="960" fill="#254351" />
<rect x="140" y="640" width="30" height="10" fill="#3C5F66" />
<rect x="240" y="640" width="10" height="20" fill="#3C5F66" />
<rect x="250" y="640" width="10" height="10" fill="#A2B8B1" />
<rect x="260" y="640" width="10" height="10" fill="#719797" />
<rect x="340" y="640" width="10" height="10" fill="#396D7D" />
<rect x="350" y="640" width="20" height="10" fill="#719797" />
<rect x="370" y="640" width="30" height="10" fill="#3C5F66" />
<rect x="400" y="640" width="10" height="10" fill="#A2B8B1" />
<rect x="410" y="640" width="20" height="10" fill="#719797" />
<rect x="440" y="640" width="20" height="10" fill="#3C5F66" />
<rect x="460" y="640" width="20" height="10" fill="#A2B8B1" />
<rect x="580" y="640" width="10" height="10" fill="#A2B8B1" />
<rect x="590" y="640" width="10" height="10" fill="#719797" />
<rect x="670" y="640" width="10" height="10" fill="#A2B8B1" />
<rect x="680" y="640" width="10" height="20" fill="#3C5F66" />
<rect x="690" y="640" width="20" height="10" fill="#A2B8B1" />
<rect x="730" y="640" width="10" height="960" fill="#254351" />
<rect x="790" y="640" width="10" height="10" fill="#3C5F66" />
<rect x="810" y="640" width="10" height="10" fill="#3C5F66" />
<rect x="840" y="640" width="20" height="960" fill="#254351" />
<rect x="880" y="640" width="20" height="10" fill="#3C5F66" />
<rect x="910" y="640" width="20" height="10" fill="#3C5F66" />
<rect x="960" y="640" width="10" height="960" fill="#254351" />
<rect x="1020" y="640" width="10" height="960" fill="#254351" />
<rect x="1060" y="640" width="30" height="10" fill="#3C5F66" />
<rect x="1100" y="640" width="10" height="10" fill="#3C5F66" />
<rect x="1120" y="640" width="30" height="960" fill="#254351" />
<rect x="1260" y="640" width="10" height="10" fill="#A2B8B1" />
<rect x="1270" y="640" width="40" height="10" fill="#719797" />
<rect x="1390" y="640" width="10" height="20" fill="#3C5F66" />
<rect x="1400" y="640" width="10" height="10" fill="#A2B8B1" />
<rect x="1410" y="640" width="20" height="10" fill="#719797" />
<rect x="1500" y="640" width="20" height="30" fill="#3C5F66" />
<rect x="30" y="650" width="20" height="950" fill="#254351" />
<rect x="50" y="650" width="20" height="10" fill="#3C5F66" />
<rect x="70" y="650" width="10" height="10" fill="#719797" />
<rect x="80" y="650" width="10" height="950" fill="#254351" />
<rect x="130" y="650" width="20" height="10" fill="#A2B8B1" />
<rect x="150" y="650" width="10" height="40" fill="#3C5F66" />
<rect x="160" y="650" width="10" height="10" fill="#A2B8B1" />
<rect x="250" y="650" width="20" height="10" fill="#3C5F66" />
<rect x="340" y="650" width="10" height="10" fill="#719797" />
<rect x="350" y="650" width="20" height="10" fill="#3C5F66" />
<rect x="370" y="650" width="30" height="10" fill="#A2B8B1" />
<rect x="400" y="650" width="30" height="10" fill="#3C5F66" />
<rect x="440" y="650" width="20" height="10" fill="#719797" />
<rect x="460" y="650" width="20" height="10" fill="#3C5F66" />
<rect x="580" y="650" width="20" height="20" fill="#3C5F66" />
<rect x="610" y="650" width="10" height="950" fill="#254351" />
<rect x="640" y="650" width="10" height="950" fill="#254351" />
<rect x="670" y="650" width="10" height="10" fill="#3C5F66" />
<rect x="690" y="650" width="20" height="10" fill="#3C5F66" />
<rect x="740" y="650" width="10" height="950" fill="#254351" />
<rect x="760" y="650" width="20" height="950" fill="#254351" />
<rect x="790" y="650" width="30" height="950" fill="#254351" />
<rect x="880" y="650" width="60" height="950" fill="#254351" />
<rect x="970" y="650" width="50" height="950" fill="#254351" />
<rect x="1050" y="650" width="60" height="950" fill="#254351" />
<rect x="1170" y="650" width="30" height="950" fill="#254351" />
<rect x="1220" y="650" width="10" height="950" fill="#254351" />
<rect x="1260" y="650" width="50" height="10" fill="#3C5F66" />
<rect x="1400" y="650" width="30" height="10" fill="#3C5F66" />
<rect x="1490" y="650" width="10" height="10" fill="#A2B8B1" />
<rect x="50" y="660" width="10" height="10" fill="#A2B8B1" />
<rect x="60" y="660" width="20" height="20" fill="#3C5F66" />
<rect x="130" y="660" width="20" height="10" fill="#3C5F66" />
<rect x="160" y="660" width="10" height="10" fill="#3C5F66" />
<rect x="240" y="660" width="10" height="10" fill="#A2B8B1" />
<rect x="250" y="660" width="10" height="10" fill="#719797" />
<rect x="260" y="660" width="10" height="20" fill="#3C5F66" />
<rect x="340" y="660" width="10" height="20" fill="#3C5F66" />
<rect x="350" y="660" width="10" height="10" fill="#719797" />
<rect x="360" y="660" width="60" height="10" fill="#3C5F66" />
<rect x="420" y="660" width="10" height="20" fill="#719797" />
<rect x="440" y="660" width="30" height="10" fill="#3C5F66" />
<rect x="470" y="660" width="10" height="10" fill="#A2B8B1" />
<rect x="550" y="660" width="10" height="10" fill="#719797" />
<rect x="560" y="660" width="20" height="10" fill="#A2B8B1" />
<rect x="620" y="660" width="20" height="940" fill="#254351" />
<rect x="670" y="660" width="40" height="940" fill="#254351" />
<rect x="750" y="660" width="10" height="940" fill="#254351" />
<rect x="1230" y="660" width="20" height="940" fill="#254351" />
<rect x="1260" y="660" width="30" height="940" fill="#254351" />
<rect x="1290" y="660" width="20" height="10" fill="#3C5F66" />
<rect x="1390" y="660" width="20" height="10" fill="#719797" />
<rect x="1410" y="660" width="10" height="20" fill="#A2B8B1" />
<rect x="1420" y="660" width="10" height="10" fill="#3C5F66" />
<rect x="1490" y="660" width="10" height="30" fill="#3C5F66" />
<rect x="50" y="670" width="10" height="10" fill="#3C5F66" />
<rect x="130" y="670" width="20" height="10" fill="#A2B8B1" />
<rect x="160" y="670" width="10" height="10" fill="#A2B8B1" />
<rect x="240" y="670" width="20" height="30" fill="#3C5F66" />
<rect x="350" y="670" width="10" height="20" fill="#3C5F66" />
<rect x="360" y="670" width="20" height="10" fill="#719797" />
<rect x="380" y="670" width="30" height="10" fill="#A2B8B1" />
<rect x="410" y="670" width="10" height="10" fill="#719797" />
<rect x="430" y="670" width="10" height="30" fill="#3C5F66" />
<rect x="440" y="670" width="10" height="930" fill="#254351" />
<rect x="450" y="670" width="10" height="10" fill="#719797" />
<rect x="460" y="670" width="10" height="10" fill="#A2B8B1" />
<rect x="470" y="670" width="10" height="10" fill="#3C5F66" />
<rect x="550" y="670" width="30" height="10" fill="#3C5F66" />
<rect x="580" y="670" width="20" height="930" fill="#254351" />
<rect x="1290" y="670" width="20" height="930" fill="#254351" />
<rect x="1330" y="670" width="10" height="930" fill="#254351" />
<rect x="1390" y="670" width="20" height="10" fill="#3C5F66" />
<rect x="1420" y="670" width="10" height="10" fill="#A2B8B1" />
<rect x="1500" y="670" width="10" height="10" fill="#719797" />
<rect x="1510" y="670" width="10" height="10" fill="#A2B8B1" />
<rect x="1560" y="670" width="40" height="20" fill="#254351" />
<rect x="50" y="680" width="10" height="10" fill="#719797" />
<rect x="60" y="680" width="20" height="10" fill="#A2B8B1" />
<rect x="130" y="680" width="20" height="10" fill="#3C5F66" />
<rect x="160" y="680" width="10" height="10" fill="#3C5F66" />
<rect x="260" y="680" width="10" height="10" fill="#A2B8B1" />
<rect x="320" y="680" width="10" height="920" fill="#254351" />
<rect x="330" y="680" width="10" height="30" fill="#3C5F66" />
<rect x="340" y="680" width="10" height="10" fill="#719797" />
<rect x="360" y="680" width="70" height="10" fill="#3C5F66" />
<rect x="450" y="680" width="20" height="10" fill="#3C5F66" />
<rect x="470" y="680" width="10" height="10" fill="#A2B8B1" />
<rect x="480" y="680" width="10" height="10" fill="#719797" />
<rect x="490" y="680" width="10" height="920" fill="#254351" />
<rect x="510" y="680" width="20" height="920" fill="#254351" />
<rect x="550" y="680" width="30" height="920" fill="#254351" />
<rect x="1340" y="680" width="40" height="920" fill="#254351" />
<rect x="1390" y="680" width="10" height="920" fill="#254351" />
<rect x="1400" y="680" width="30" height="10" fill="#3C5F66" />
<rect x="1500" y="680" width="20" height="30" fill="#3C5F66" />
<rect x="50" y="690" width="30" height="10" fill="#3C5F66" />
<rect x="130" y="690" width="40" height="10" fill="#A2B8B1" />
<rect x="260" y="690" width="10" height="10" fill="#3C5F66" />
<rect x="340" y="690" width="30" height="10" fill="#A2B8B1" />
<rect x="370" y="690" width="10" height="20" fill="#3C5F66" />
<rect x="380" y="690" width="10" height="10" fill="#A2B8B1" />
<rect x="390" y="690" width="30" height="10" fill="#719797" />
<rect x="420" y="690" width="10" height="10" fill="#A2B8B1" />
<rect x="450" y="690" width="40" height="910" fill="#254351" />
<rect x="500" y="690" width="10" height="910" fill="#254351" />
<rect x="1400" y="690" width="30" height="910" fill="#254351" />
<rect x="1440" y="690" width="10" height="910" fill="#254351" />
<rect x="1490" y="690" width="10" height="10" fill="#719797" />
<rect x="1560" y="690" width="20" height="910" fill="#254351" />
<rect x="1580" y="690" width="10" height="10" fill="#A2B8B1" />
<rect x="1590" y="690" width="10" height="20" fill="#3C5F66" />
<rect x="50" y="700" width="10" height="10" fill="#A2B8B1" />
<rect x="60" y="700" width="10" height="20" fill="#3C5F66" />
<rect x="70" y="700" width="10" height="10" fill="#A2B8B1" />
<rect x="130" y="700" width="40" height="10" fill="#3C5F66" />
<rect x="240" y="700" width="20" height="10" fill="#A2B8B1" />
<rect x="260" y="700" width="10" height="10" fill="#719797" />
<rect x="340" y="700" width="30" height="10" fill="#3C5F66" />
<rect x="380" y="700" width="10" height="10" fill="#3C5F66" />
<rect x="390" y="700" width="50" height="900" fill="#254351" />
<rect x="1450" y="700" width="20" height="900" fill="#254351" />
<rect x="1490" y="700" width="10" height="10" fill="#3C5F66" />
<rect x="1580" y="700" width="10" height="10" fill="#3C5F66" />
<rect x="50" y="710" width="10" height="20" fill="#3C5F66" />
<rect x="70" y="710" width="10" height="10" fill="#3C5F66" />
<rect x="130" y="710" width="10" height="10" fill="#719797" />
<rect x="140" y="710" width="20" height="10" fill="#A2B8B1" />
<rect x="160" y="710" width="10" height="20" fill="#3C5F66" />
<rect x="240" y="710" width="30" height="10" fill="#3C5F66" />
<rect x="290" y="710" width="10" height="890" fill="#254351" />
<rect x="310" y="710" width="10" height="890" fill="#254351" />
<rect x="330" y="710" width="60" height="890" fill="#254351" />
<rect x="1490" y="710" width="20" height="890" fill="#254351" />
<rect x="1510" y="710" width="10" height="10" fill="#3C5F66" />
<rect x="1580" y="710" width="10" height="10" fill="#A2B8B1" />
<rect x="1590" y="710" width="10" height="10" fill="#719797" />
<rect x="0" y="720" width="20" height="10" fill="#254351" />
<rect x="60" y="720" width="20" height="10" fill="#A2B8B1" />
<rect x="130" y="720" width="30" height="10" fill="#3C5F66" />
<rect x="220" y="720" width="10" height="880" fill="#254351" />
<rect x="240" y="720" width="10" height="10" fill="#719797" />
<rect x="250" y="720" width="10" height="10" fill="#A2B8B1" />
<rect x="260" y="720" width="10" height="20" fill="#3C5F66" />
<rect x="300" y="720" width="10" height="880" fill="#254351" />
<rect x="1510" y="720" width="10" height="880" fill="#254351" />
<rect x="1580" y="720" width="20" height="10" fill="#3C5F66" />
<rect x="0" y="730" width="10" height="10" fill="#3C5F66" />
<rect x="10" y="730" width="10" height="870" fill="#254351" />
<rect x="50" y="730" width="10" height="10" fill="#A2B8B1" />
<rect x="60" y="730" width="20" height="20" fill="#3C5F66" />
<rect x="130" y="730" width="10" height="10" fill="#A2B8B1" />
<rect x="140" y="730" width="10" height="30" fill="#3C5F66" />
<rect x="150" y="730" width="10" height="10" fill="#A2B8B1" />
<rect x="160" y="730" width="10" height="10" fill="#719797" />
<rect x="190" y="730" width="10" height="870" fill="#254351" />
<rect x="240" y="730" width="20" height="10" fill="#3C5F66" />
<rect x="1540" y="730" width="20" height="870" fill="#254351" />
<rect x="1580" y="730" width="10" height="10" fill="#3C5F66" />
<rect x="1590" y="730" width="10" height="10" fill="#719797" />
<rect x="0" y="740" width="10" height="10" fill="#A2B8B1" />
<rect x="50" y="740" width="10" height="20" fill="#3C5F66" />
<rect x="130" y="740" width="10" height="20" fill="#3C5F66" />
<rect x="150" y="740" width="20" height="10" fill="#3C5F66" />
<rect x="200" y="740" width="20" height="860" fill="#254351" />
<rect x="240" y="740" width="30" height="860" fill="#254351" />
<rect x="1580" y="740" width="20" height="860" fill="#254351" />
<rect x="0" y="750" width="10" height="10" fill="#3C5F66" />
<rect x="60" y="750" width="20" height="10" fill="#719797" />
<rect x="150" y="750" width="10" height="10" fill="#3C5F66" />
<rect x="160" y="750" width="10" height="850" fill="#254351" />
<rect x="0" y="760" width="10" height="10" fill="#A2B8B1" />
<rect x="50" y="760" width="10" height="10" fill="#A2B8B1" />
<rect x="60" y="760" width="20" height="20" fill="#3C5F66" />
<rect x="100" y="760" width="10" height="840" fill="#254351" />
<rect x="130" y="760" width="30" height="840" fill="#254351" />
<rect x="0" y="770" width="10" height="10" fill="#3C5F66" />
<rect x="50" y="770" width="10" height="20" fill="#3C5F66" />
<rect x="0" y="780" width="10" height="10" fill="#719797" />
<rect x="60" y="780" width="20" height="820" fill="#254351" />
<rect x="0" y="790" width="10" height="10" fill="#3C5F66" />
<rect x="20" y="790" width="10" height="810" fill="#254351" />
<rect x="50" y="790" width="10" height="810" fill="#254351" />
<rect x="0" y="800" width="10" height="800" fill="#254351" />
</svg>