<?xml version="1.0" encoding="UTF-8" ?>
<svg version="1.1" width="1600" height="1600" xmlns="http://www.w3.org/2000/svg" shape-rendering="crispEdges">
<rect x="770" y="130" width="120" height="30" fill="#396D7D" />
<rect x="770" y="160" width="30" height="1440" fill="#396D7D" />
<rect x="800" y="160" width="60" height="20" fill="#557B78" />
<rect x="860" y="160" width="30" height="1440" fill="#396D7D" />
<rect x="490" y="170" width="220" height="30" fill="#396D7D" />
<rect x="800" y="180" width="10" height="40" fill="#557B78" />
<rect x="810" y="180" width="20" height="20" fill="#719797" />
<rect x="830" y="180" width="30" height="20" fill="#A2B8B1" />
<rect x="920" y="180" width="180" height="30" fill="#396D7D" />
<rect x="490" y="200" width="30" height="1400" fill="#396D7D" />
<rect x="520" y="200" width="160" height="20" fill="#557B78" />
<rect x="680" y="200" width="30" height="1400" fill="#396D7D" />
<rect x="810" y="200" width="50" height="20" fill="#557B78" />
<rect x="1520" y="200" width="80" height="30" fill="#396D7D" />
<rect x="920" y="210" width="30" height="1390" fill="#396D7D" />
<rect x="950" y="210" width="120" height="20" fill="#557B78" />
<rect x="1070" y="210" width="30" height="1390" fill="#396D7D" />
<rect x="1210" y="210" width="100" height="30" fill="#396D7D" />
<rect x="520" y="220" width="10" height="150" fill="#557B78" />
<rect x="530" y="220" width="20" height="20" fill="#719797" />
<rect x="550" y="220" width="80" height="20" fill="#A2B8B1" />
<rect x="630" y="220" width="10" height="40" fill="#557B78" />
<rect x="640" y="220" width="30" height="20" fill="#719797" />
<rect x="670" y="220" width="10" height="150" fill="#557B78" />
<rect x="800" y="220" width="30" height="20" fill="#A2B8B1" />
<rect x="830" y="220" width="10" height="50" fill="#557B78" />
<rect x="840" y="220" width="20" height="20" fill="#A2B8B1" />
<rect x="60" y="230" width="130" height="30" fill="#396D7D" />
<rect x="950" y="230" width="40" height="20" fill="#A2B8B1" />
<rect x="990" y="230" width="10" height="50" fill="#557B78" />
<rect x="1000" y="230" width="30" height="20" fill="#719797" />
<rect x="1030" y="230" width="30" height="20" fill="#A2B8B1" />
<rect x="1060" y="230" width="10" height="110" fill="#557B78" />
<rect x="1520" y="230" width="30" height="1370" fill="#396D7D" />
<rect x="1550" y="230" width="50" height="30" fill="#557B78" />
<rect x="530" y="240" width="100" height="20" fill="#557B78" />
<rect x="640" y="240" width="30" height="20" fill="#557B78" />
<rect x="800" y="240" width="30" height="30" fill="#557B78" />
<rect x="840" y="240" width="20" height="30" fill="#557B78" />
<rect x="1210" y="240" width="30" height="1360" fill="#396D7D" />
<rect x="1240" y="240" width="40" height="20" fill="#557B78" />
<rect x="1280" y="240" width="30" height="1360" fill="#396D7D" />
<rect x="950" y="250" width="40" height="30" fill="#557B78" />
<rect x="1000" y="250" width="60" height="30" fill="#557B78" />
<rect x="60" y="260" width="30" height="1340" fill="#396D7D" />
<rect x="90" y="260" width="70" height="20" fill="#557B78" />
<rect x="160" y="260" width="30" height="1340" fill="#396D7D" />
<rect x="530" y="260" width="50" height="20" fill="#719797" />
<rect x="580" y="260" width="10" height="40" fill="#557B78" />
<rect x="590" y="260" width="80" height="20" fill="#A2B8B1" />
<rect x="1240" y="260" width="20" height="20" fill="#719797" />
<rect x="1260" y="260" width="20" height="40" fill="#557B78" />
<rect x="1390" y="260" width="110" height="30" fill="#396D7D" />
<rect x="1550" y="260" width="30" height="20" fill="#396D7D" />
<rect x="1580" y="260" width="20" height="20" fill="#719797" />
<rect x="800" y="270" width="40" height="20" fill="#A2B8B1" />
<rect x="840" y="270" width="10" height="60" fill="#557B78" />
<rect x="850" y="270" width="10" height="20" fill="#719797" />
<rect x="90" y="280" width="10" height="150" fill="#557B78" />
<rect x="100" y="280" width="20" height="20" fill="#A2B8B1" />
<rect x="120" y="280" width="20" height="20" fill="#719797" />
<rect x="140" y="280" width="20" height="40" fill="#557B78" />
<rect x="260" y="280" width="180" height="30" fill="#396D7D" />
<rect x="530" y="280" width="50" height="20" fill="#557B78" />
<rect x="590" y="280" width="80" height="20" fill="#557B78" />
<rect x="950" y="280" width="10" height="50" fill="#557B78" />
<rect x="960" y="280" width="30" height="20" fill="#A2B8B1" />
<rect x="990" y="280" width="20" height="20" fill="#719797" />
<rect x="1010" y="280" width="20" height="20" fill="#A2B8B1" />
<rect x="1030" y="280" width="10" height="50" fill="#557B78" />
<rect x="1040" y="280" width="20" height="20" fill="#A2B8B1" />
<rect x="1240" y="280" width="20" height="60" fill="#557B78" />
<rect x="1550" y="280" width="50" height="40" fill="#557B78" />
<rect x="800" y="290" width="40" height="40" fill="#557B78" />
<rect x="850" y="290" width="10" height="40" fill="#557B78" />
<rect x="1390" y="290" width="30" height="1310" fill="#396D7D" />
<rect x="1420" y="290" width="50" height="20" fill="#557B78" />
<rect x="1470" y="290" width="30" height="1310" fill="#396D7D" />
<rect x="100" y="300" width="40" height="20" fill="#557B78" />
<rect x="530" y="300" width="70" height="20" fill="#A2B8B1" />
<rect x="600" y="300" width="20" height="70" fill="#557B78" />
<rect x="620" y="300" width="20" height="20" fill="#719797" />
<rect x="640" y="300" width="30" height="20" fill="#A2B8B1" />
<rect x="890" y="300" width="10" height="1300" fill="#396D7D" />
<rect x="960" y="300" width="70" height="30" fill="#557B78" />
<rect x="1040" y="300" width="20" height="40" fill="#557B78" />
<rect x="1260" y="300" width="20" height="20" fill="#719797" />
<rect x="260" y="310" width="30" height="1290" fill="#396D7D" />
<rect x="290" y="310" width="120" height="20" fill="#557B78" />
<rect x="410" y="310" width="30" height="1290" fill="#396D7D" />
<rect x="710" y="310" width="20" height="1290" fill="#396D7D" />
<rect x="760" y="310" width="10" height="1290" fill="#396D7D" />
<rect x="900" y="310" width="20" height="1290" fill="#396D7D" />
<rect x="1420" y="310" width="10" height="90" fill="#557B78" />
<rect x="1430" y="310" width="40" height="20" fill="#719797" />
<rect x="100" y="320" width="50" height="20" fill="#A2B8B1" />
<rect x="150" y="320" width="10" height="120" fill="#557B78" />
<rect x="530" y="320" width="70" height="50" fill="#557B78" />
<rect x="620" y="320" width="50" height="50" fill="#557B78" />
<rect x="740" y="320" width="20" height="1280" fill="#396D7D" />
<rect x="1260" y="320" width="20" height="20" fill="#557B78" />
<rect x="1550" y="320" width="10" height="40" fill="#557B78" />
<rect x="1560" y="320" width="10" height="20" fill="#719797" />
<rect x="1570" y="320" width="20" height="20" fill="#396D7D" />
<rect x="1590" y="320" width="10" height="20" fill="#719797" />
<rect x="290" y="330" width="10" height="90" fill="#557B78" />
<rect x="300" y="330" width="40" height="20" fill="#A2B8B1" />
<rect x="340" y="330" width="20" height="20" fill="#719797" />
<rect x="360" y="330" width="10" height="30" fill="#557B78" />
<rect x="370" y="330" width="30" height="20" fill="#719797" />
<rect x="400" y="330" width="10" height="90" fill="#557B78" />
<rect x="730" y="330" width="10" height="1270" fill="#396D7D" />
<rect x="800" y="330" width="60" height="1270" fill="#396D7D" />
<rect x="950" y="330" width="90" height="1270" fill="#396D7D" />
<rect x="1430" y="330" width="40" height="20" fill="#557B78" />
<rect x="100" y="340" width="50" height="20" fill="#557B78" />
<rect x="1040" y="340" width="30" height="1260" fill="#396D7D" />
<rect x="1240" y="340" width="20" height="20" fill="#719797" />
<rect x="1260" y="340" width="10" height="60" fill="#557B78" />
<rect x="1270" y="340" width="10" height="20" fill="#396D7D" />
<rect x="1560" y="340" width="40" height="20" fill="#557B78" />
<rect x="300" y="350" width="60" height="10" fill="#557B78" />
<rect x="370" y="350" width="30" height="10" fill="#557B78" />
<rect x="1100" y="350" width="10" height="1250" fill="#396D7D" />
<rect x="1430" y="350" width="20" height="20" fill="#396D7D" />
<rect x="1450" y="350" width="20" height="20" fill="#719797" />
<rect x="100" y="360" width="20" height="20" fill="#719797" />
<rect x="120" y="360" width="10" height="80" fill="#557B78" />
<rect x="130" y="360" width="20" height="20" fill="#A2B8B1" />
<rect x="300" y="360" width="20" height="20" fill="#719797" />
<rect x="320" y="360" width="10" height="60" fill="#557B78" />
<rect x="330" y="360" width="70" height="20" fill="#A2B8B1" />
<rect x="470" y="360" width="20" height="1240" fill="#396D7D" />
<rect x="1110" y="360" width="20" height="1240" fill="#396D7D" />
<rect x="1240" y="360" width="20" height="40" fill="#557B78" />
<rect x="1270" y="360" width="10" height="30" fill="#557B78" />
<rect x="1550" y="360" width="30" height="20" fill="#719797" />
<rect x="1580" y="360" width="20" height="40" fill="#557B78" />
<rect x="440" y="370" width="20" height="1230" fill="#396D7D" />
<rect x="520" y="370" width="160" height="1230" fill="#396D7D" />
<rect x="1130" y="370" width="10" height="1230" fill="#396D7D" />
<rect x="1430" y="370" width="40" height="30" fill="#557B78" />
<rect x="100" y="380" width="20" height="60" fill="#557B78" />
<rect x="130" y="380" width="20" height="60" fill="#557B78" />
<rect x="240" y="380" width="20" height="1220" fill="#396D7D" />
<rect x="300" y="380" width="20" height="40" fill="#557B78" />
<rect x="330" y="380" width="70" height="40" fill="#557B78" />
<rect x="460" y="380" width="10" height="1220" fill="#396D7D" />
<rect x="1140" y="380" width="30" height="1220" fill="#396D7D" />
<rect x="1380" y="380" width="10" height="1220" fill="#396D7D" />
<rect x="1500" y="380" width="20" height="1220" fill="#396D7D" />
<rect x="1550" y="380" width="30" height="20" fill="#557B78" />
<rect x="220" y="390" width="20" height="1210" fill="#396D7D" />
<rect x="1170" y="390" width="10" height="1210" fill="#396D7D" />
<rect x="1270" y="390" width="10" height="1210" fill="#396D7D" />
<rect x="1310" y="390" width="20" height="1210" fill="#396D7D" />
<rect x="1360" y="390" width="20" height="1210" fill="#396D7D" />
<rect x="210" y="400" width="10" height="1200" fill="#396D7D" />
<rect x="1180" y="400" width="30" height="1200" fill="#396D7D" />
<rect x="1240" y="400" width="30" height="1200" fill="#396D7D" />
<rect x="1330" y="400" width="30" height="1200" fill="#396D7D" />
<rect x="1420" y="400" width="50" height="1200" fill="#396D7D" />
<rect x="1550" y="400" width="50" height="1200" fill="#396D7D" />
<rect x="190" y="410" width="20" height="1190" fill="#396D7D" />
<rect x="290" y="420" width="120" height="1180" fill="#396D7D" />
<rect x="40" y="430" width="20" height="1170" fill="#396D7D" />
<rect x="90" y="430" width="10" height="1170" fill="#396D7D" />
<rect x="10" y="440" width="30" height="1160" fill="#396D7D" />
<rect x="100" y="440" width="60" height="1160" fill="#396D7D" />
<rect x="0" y="450" width="10" height="1150" fill="#396D7D" />
</svg>