<?xml version="1.0" encoding="UTF-8" ?>
<svg version="1.1" width="1600" height="900" xmlns="http://www.w3.org/2000/svg" shape-rendering="crispEdges">
<rect x="940" y="390" width="10" height="40" fill="#254351" />
<rect x="920" y="410" width="20" height="10" fill="#254351" />
<rect x="950" y="410" width="10" height="10" fill="#254351" />
<rect x="930" y="420" width="10" height="10" fill="#254351" />
<rect x="910" y="430" width="20" height="20" fill="#3C5F66" />
<rect x="930" y="430" width="10" height="20" fill="#A2B8B1" />
<rect x="940" y="430" width="30" height="10" fill="#3C5F66" />
<rect x="940" y="440" width="10" height="10" fill="#A2B8B1" />
<rect x="950" y="440" width="10" height="10" fill="#3C5F66" />
<rect x="960" y="440" width="10" height="10" fill="#A2B8B1" />
<rect x="500" y="450" width="100" height="20" fill="#254351" />
<rect x="910" y="450" width="60" height="10" fill="#254351" />
<rect x="770" y="460" width="100" height="20" fill="#254351" />
<rect x="920" y="460" width="40" height="10" fill="#254351" />
<rect x="500" y="470" width="20" height="280" fill="#254351" />
<rect x="520" y="470" width="30" height="20" fill="#3C5F66" />
<rect x="550" y="470" width="10" height="10" fill="#A2B8B1" />
<rect x="560" y="470" width="10" height="10" fill="#719797" />
<rect x="570" y="470" width="10" height="60" fill="#3C5F66" />
<rect x="580" y="470" width="20" height="230" fill="#254351" />
<rect x="930" y="470" width="20" height="200" fill="#254351" />
<rect x="1040" y="470" width="70" height="10" fill="#254351" />
<rect x="550" y="480" width="20" height="30" fill="#3C5F66" />
<rect x="770" y="480" width="30" height="10" fill="#254351" />
<rect x="800" y="480" width="40" height="20" fill="#3C5F66" />
<rect x="840" y="480" width="30" height="10" fill="#254351" />
<rect x="1040" y="480" width="10" height="370" fill="#254351" />
<rect x="1050" y="480" width="40" height="10" fill="#3C5F66" />
<rect x="1090" y="480" width="20" height="180" fill="#254351" />
<rect x="360" y="490" width="60" height="20" fill="#254351" />
<rect x="520" y="490" width="20" height="10" fill="#719797" />
<rect x="540" y="490" width="10" height="10" fill="#A2B8B1" />
<rect x="770" y="490" width="20" height="410" fill="#254351" />
<rect x="790" y="490" width="10" height="10" fill="#3C5F66" />
<rect x="840" y="490" width="10" height="10" fill="#3C5F66" />
<rect x="850" y="490" width="20" height="270" fill="#254351" />
<rect x="1050" y="490" width="10" height="10" fill="#719797" />
<rect x="1060" y="490" width="20" height="10" fill="#A2B8B1" />
<rect x="1080" y="490" width="10" height="80" fill="#3C5F66" />
<rect x="340" y="500" width="20" height="290" fill="#254351" />
<rect x="420" y="500" width="10" height="320" fill="#254351" />
<rect x="520" y="500" width="30" height="10" fill="#3C5F66" />
<rect x="790" y="500" width="30" height="10" fill="#A2B8B1" />
<rect x="820" y="500" width="10" height="20" fill="#3C5F66" />
<rect x="830" y="500" width="20" height="10" fill="#A2B8B1" />
<rect x="1050" y="500" width="30" height="20" fill="#3C5F66" />
<rect x="360" y="510" width="20" height="10" fill="#254351" />
<rect x="380" y="510" width="30" height="10" fill="#3C5F66" />
<rect x="410" y="510" width="10" height="310" fill="#254351" />
<rect x="520" y="510" width="10" height="40" fill="#3C5F66" />
<rect x="530" y="510" width="30" height="10" fill="#A2B8B1" />
<rect x="560" y="510" width="10" height="10" fill="#719797" />
<rect x="790" y="510" width="30" height="10" fill="#3C5F66" />
<rect x="830" y="510" width="20" height="10" fill="#3C5F66" />
<rect x="360" y="520" width="10" height="20" fill="#3C5F66" />
<rect x="370" y="520" width="20" height="10" fill="#719797" />
<rect x="390" y="520" width="20" height="10" fill="#A2B8B1" />
<rect x="530" y="520" width="40" height="10" fill="#3C5F66" />
<rect x="650" y="520" width="50" height="30" fill="#254351" />
<rect x="790" y="520" width="40" height="10" fill="#A2B8B1" />
<rect x="830" y="520" width="10" height="20" fill="#3C5F66" />
<rect x="840" y="520" width="10" height="10" fill="#A2B8B1" />
<rect x="920" y="520" width="10" height="250" fill="#254351" />
<rect x="950" y="520" width="10" height="200" fill="#254351" />
<rect x="1050" y="520" width="10" height="10" fill="#A2B8B1" />
<rect x="1060" y="520" width="10" height="10" fill="#719797" />
<rect x="1070" y="520" width="10" height="20" fill="#3C5F66" />
<rect x="200" y="530" width="90" height="20" fill="#254351" />
<rect x="370" y="530" width="40" height="10" fill="#3C5F66" />
<rect x="530" y="530" width="20" height="20" fill="#3C5F66" />
<rect x="550" y="530" width="20" height="10" fill="#A2B8B1" />
<rect x="570" y="530" width="10" height="10" fill="#719797" />
<rect x="700" y="530" width="30" height="30" fill="#254351" />
<rect x="790" y="530" width="40" height="10" fill="#3C5F66" />
<rect x="840" y="530" width="10" height="10" fill="#3C5F66" />
<rect x="1050" y="530" width="20" height="10" fill="#3C5F66" />
<rect x="360" y="540" width="10" height="10" fill="#A2B8B1" />
<rect x="370" y="540" width="10" height="10" fill="#719797" />
<rect x="380" y="540" width="10" height="20" fill="#3C5F66" />
<rect x="390" y="540" width="20" height="10" fill="#A2B8B1" />
<rect x="550" y="540" width="30" height="10" fill="#3C5F66" />
<rect x="790" y="540" width="10" height="10" fill="#A2B8B1" />
<rect x="800" y="540" width="10" height="20" fill="#3C5F66" />
<rect x="810" y="540" width="40" height="10" fill="#A2B8B1" />
<rect x="1050" y="540" width="10" height="60" fill="#3C5F66" />
<rect x="1060" y="540" width="20" height="10" fill="#A2B8B1" />
<rect x="200" y="550" width="20" height="200" fill="#254351" />
<rect x="220" y="550" width="10" height="130" fill="#3C5F66" />
<rect x="230" y="550" width="10" height="30" fill="#719797" />
<rect x="240" y="550" width="10" height="140" fill="#3C5F66" />
<rect x="250" y="550" width="10" height="10" fill="#719797" />
<rect x="260" y="550" width="10" height="140" fill="#3C5F66" />
<rect x="270" y="550" width="20" height="220" fill="#254351" />
<rect x="360" y="550" width="20" height="10" fill="#3C5F66" />
<rect x="390" y="550" width="20" height="10" fill="#3C5F66" />
<rect x="520" y="550" width="10" height="10" fill="#719797" />
<rect x="530" y="550" width="20" height="10" fill="#A2B8B1" />
<rect x="550" y="550" width="10" height="20" fill="#3C5F66" />
<rect x="560" y="550" width="20" height="10" fill="#A2B8B1" />
<rect x="650" y="550" width="20" height="160" fill="#254351" />
<rect x="670" y="550" width="20" height="10" fill="#3C5F66" />
<rect x="690" y="550" width="10" height="10" fill="#254351" />
<rect x="790" y="550" width="10" height="10" fill="#3C5F66" />
<rect x="810" y="550" width="40" height="10" fill="#3C5F66" />
<rect x="1060" y="550" width="20" height="20" fill="#3C5F66" />
<rect x="1190" y="550" width="90" height="10" fill="#254351" />
<rect x="90" y="560" width="40" height="30" fill="#254351" />
<rect x="250" y="560" width="10" height="10" fill="#3C5F66" />
<rect x="360" y="560" width="40" height="10" fill="#719797" />
<rect x="400" y="560" width="10" height="10" fill="#A2B8B1" />
<rect x="520" y="560" width="30" height="10" fill="#3C5F66" />
<rect x="560" y="560" width="20" height="10" fill="#3C5F66" />
<rect x="670" y="560" width="10" height="10" fill="#719797" />
<rect x="680" y="560" width="10" height="10" fill="#A2B8B1" />
<rect x="690" y="560" width="20" height="20" fill="#3C5F66" />
<rect x="710" y="560" width="20" height="120" fill="#254351" />
<rect x="790" y="560" width="50" height="10" fill="#A2B8B1" />
<rect x="840" y="560" width="10" height="20" fill="#3C5F66" />
<rect x="1190" y="560" width="10" height="150" fill="#254351" />
<rect x="1200" y="560" width="60" height="10" fill="#3C5F66" />
<rect x="1260" y="560" width="20" height="190" fill="#254351" />
<rect x="70" y="570" width="20" height="280" fill="#254351" />
<rect x="130" y="570" width="20" height="200" fill="#254351" />
<rect x="250" y="570" width="10" height="40" fill="#A2B8B1" />
<rect x="360" y="570" width="50" height="10" fill="#3C5F66" />
<rect x="520" y="570" width="10" height="20" fill="#3C5F66" />
<rect x="530" y="570" width="30" height="10" fill="#A2B8B1" />
<rect x="560" y="570" width="10" height="40" fill="#3C5F66" />
<rect x="570" y="570" width="10" height="10" fill="#A2B8B1" />
<rect x="670" y="570" width="20" height="10" fill="#3C5F66" />
<rect x="790" y="570" width="50" height="10" fill="#3C5F66" />
<rect x="1060" y="570" width="10" height="10" fill="#A2B8B1" />
<rect x="1070" y="570" width="20" height="10" fill="#719797" />
<rect x="1200" y="570" width="20" height="10" fill="#719797" />
<rect x="1220" y="570" width="20" height="10" fill="#A2B8B1" />
<rect x="1240" y="570" width="10" height="20" fill="#3C5F66" />
<rect x="1250" y="570" width="10" height="10" fill="#719797" />
<rect x="1330" y="570" width="50" height="30" fill="#254351" />
<rect x="1460" y="570" width="80" height="10" fill="#254351" />
<rect x="230" y="580" width="10" height="10" fill="#A2B8B1" />
<rect x="360" y="580" width="40" height="10" fill="#A2B8B1" />
<rect x="400" y="580" width="10" height="10" fill="#719797" />
<rect x="530" y="580" width="30" height="10" fill="#3C5F66" />
<rect x="570" y="580" width="10" height="10" fill="#3C5F66" />
<rect x="670" y="580" width="10" height="20" fill="#3C5F66" />
<rect x="680" y="580" width="20" height="10" fill="#A2B8B1" />
<rect x="700" y="580" width="10" height="10" fill="#719797" />
<rect x="790" y="580" width="10" height="20" fill="#3C5F66" />
<rect x="800" y="580" width="30" height="10" fill="#A2B8B1" />
<rect x="830" y="580" width="10" height="20" fill="#3C5F66" />
<rect x="840" y="580" width="10" height="10" fill="#A2B8B1" />
<rect x="1060" y="580" width="30" height="20" fill="#3C5F66" />
<rect x="1200" y="580" width="40" height="10" fill="#3C5F66" />
<rect x="1250" y="580" width="10" height="10" fill="#3C5F66" />
<rect x="1460" y="580" width="20" height="280" fill="#254351" />
<rect x="1480" y="580" width="50" height="10" fill="#3C5F66" />
<rect x="1530" y="580" width="10" height="170" fill="#254351" />
<rect x="90" y="590" width="20" height="60" fill="#3C5F66" />
<rect x="110" y="590" width="10" height="10" fill="#719797" />
<rect x="120" y="590" width="10" height="10" fill="#3C5F66" />
<rect x="230" y="590" width="10" height="10" fill="#3C5F66" />
<rect x="360" y="590" width="50" height="10" fill="#3C5F66" />
<rect x="520" y="590" width="20" height="10" fill="#719797" />
<rect x="540" y="590" width="20" height="10" fill="#A2B8B1" />
<rect x="570" y="590" width="10" height="10" fill="#719797" />
<rect x="680" y="590" width="30" height="10" fill="#3C5F66" />
<rect x="760" y="590" width="10" height="310" fill="#254351" />
<rect x="800" y="590" width="30" height="10" fill="#3C5F66" />
<rect x="840" y="590" width="10" height="10" fill="#3C5F66" />
<rect x="1200" y="590" width="10" height="20" fill="#3C5F66" />
<rect x="1210" y="590" width="10" height="10" fill="#A2B8B1" />
<rect x="1220" y="590" width="20" height="10" fill="#719797" />
<rect x="1240" y="590" width="20" height="10" fill="#A2B8B1" />
<rect x="1480" y="590" width="20" height="30" fill="#3C5F66" />
<rect x="1500" y="590" width="10" height="10" fill="#A2B8B1" />
<rect x="1510" y="590" width="20" height="10" fill="#719797" />
<rect x="110" y="600" width="10" height="10" fill="#3C5F66" />
<rect x="120" y="600" width="10" height="10" fill="#A2B8B1" />
<rect x="230" y="600" width="10" height="10" fill="#A2B8B1" />
<rect x="360" y="600" width="10" height="40" fill="#3C5F66" />
<rect x="370" y="600" width="20" height="10" fill="#A2B8B1" />
<rect x="390" y="600" width="10" height="10" fill="#719797" />
<rect x="400" y="600" width="10" height="20" fill="#3C5F66" />
<rect x="520" y="600" width="40" height="10" fill="#3C5F66" />
<rect x="570" y="600" width="10" height="10" fill="#3C5F66" />
<rect x="670" y="600" width="10" height="10" fill="#A2B8B1" />
<rect x="680" y="600" width="20" height="10" fill="#719797" />
<rect x="700" y="600" width="10" height="20" fill="#3C5F66" />
<rect x="790" y="600" width="20" height="10" fill="#A2B8B1" />
<rect x="810" y="600" width="10" height="20" fill="#3C5F66" />
<rect x="820" y="600" width="30" height="10" fill="#A2B8B1" />
<rect x="870" y="600" width="10" height="300" fill="#254351" />
<rect x="1050" y="600" width="20" height="10" fill="#719797" />
<rect x="1070" y="600" width="20" height="10" fill="#A2B8B1" />
<rect x="1210" y="600" width="50" height="10" fill="#3C5F66" />
<rect x="1330" y="600" width="30" height="160" fill="#254351" />
<rect x="1360" y="600" width="10" height="10" fill="#3C5F66" />
<rect x="1370" y="600" width="10" height="150" fill="#254351" />
<rect x="1500" y="600" width="30" height="20" fill="#3C5F66" />
<rect x="110" y="610" width="10" height="10" fill="#A2B8B1" />
<rect x="120" y="610" width="10" height="30" fill="#3C5F66" />
<rect x="230" y="610" width="10" height="10" fill="#3C5F66" />
<rect x="250" y="610" width="10" height="10" fill="#3C5F66" />
<rect x="370" y="610" width="30" height="10" fill="#3C5F66" />
<rect x="520" y="610" width="10" height="20" fill="#3C5F66" />
<rect x="530" y="610" width="10" height="10" fill="#A2B8B1" />
<rect x="540" y="610" width="20" height="10" fill="#719797" />
<rect x="560" y="610" width="20" height="10" fill="#A2B8B1" />
<rect x="640" y="610" width="10" height="110" fill="#254351" />
<rect x="670" y="610" width="30" height="10" fill="#3C5F66" />
<rect x="730" y="610" width="10" height="70" fill="#254351" />
<rect x="790" y="610" width="20" height="10" fill="#3C5F66" />
<rect x="820" y="610" width="30" height="10" fill="#3C5F66" />
<rect x="1030" y="610" width="10" height="290" fill="#254351" />
<rect x="1050" y="610" width="40" height="10" fill="#3C5F66" />
<rect x="1200" y="610" width="30" height="10" fill="#A2B8B1" />
<rect x="1230" y="610" width="20" height="10" fill="#719797" />
<rect x="1250" y="610" width="10" height="40" fill="#3C5F66" />
<rect x="1360" y="610" width="10" height="10" fill="#A2B8B1" />
<rect x="1400" y="610" width="50" height="10" fill="#254351" />
<rect x="110" y="620" width="10" height="20" fill="#719797" />
<rect x="230" y="620" width="10" height="20" fill="#719797" />
<rect x="250" y="620" width="10" height="30" fill="#A2B8B1" />
<rect x="370" y="620" width="10" height="20" fill="#3C5F66" />
<rect x="380" y="620" width="10" height="10" fill="#719797" />
<rect x="390" y="620" width="20" height="10" fill="#A2B8B1" />
<rect x="490" y="620" width="10" height="170" fill="#254351" />
<rect x="530" y="620" width="50" height="10" fill="#3C5F66" />
<rect x="600" y="620" width="40" height="70" fill="#254351" />
<rect x="670" y="620" width="20" height="10" fill="#3C5F66" />
<rect x="690" y="620" width="10" height="10" fill="#A2B8B1" />
<rect x="700" y="620" width="10" height="10" fill="#719797" />
<rect x="740" y="620" width="20" height="50" fill="#254351" />
<rect x="790" y="620" width="10" height="10" fill="#3C5F66" />
<rect x="800" y="620" width="20" height="10" fill="#A2B8B1" />
<rect x="820" y="620" width="10" height="10" fill="#3C5F66" />
<rect x="830" y="620" width="10" height="10" fill="#A2B8B1" />
<rect x="840" y="620" width="10" height="10" fill="#3C5F66" />
<rect x="880" y="620" width="10" height="280" fill="#254351" />
<rect x="910" y="620" width="10" height="80" fill="#254351" />
<rect x="960" y="620" width="30" height="280" fill="#254351" />
<rect x="1050" y="620" width="10" height="10" fill="#A2B8B1" />
<rect x="1060" y="620" width="10" height="10" fill="#719797" />
<rect x="1070" y="620" width="10" height="20" fill="#3C5F66" />
<rect x="1080" y="620" width="10" height="250" fill="#254351" />
<rect x="1110" y="620" width="10" height="50" fill="#254351" />
<rect x="1180" y="620" width="10" height="90" fill="#254351" />
<rect x="1200" y="620" width="50" height="10" fill="#3C5F66" />
<rect x="1360" y="620" width="10" height="20" fill="#3C5F66" />
<rect x="1400" y="620" width="10" height="120" fill="#254351" />
<rect x="1410" y="620" width="10" height="10" fill="#A2B8B1" />
<rect x="1420" y="620" width="10" height="20" fill="#3C5F66" />
<rect x="1430" y="620" width="20" height="200" fill="#254351" />
<rect x="1480" y="620" width="10" height="10" fill="#719797" />
<rect x="1490" y="620" width="20" height="10" fill="#A2B8B1" />
<rect x="1510" y="620" width="20" height="20" fill="#3C5F66" />
<rect x="380" y="630" width="30" height="10" fill="#3C5F66" />
<rect x="430" y="630" width="10" height="190" fill="#254351" />
<rect x="480" y="630" width="10" height="170" fill="#254351" />
<rect x="520" y="630" width="10" height="150" fill="#254351" />
<rect x="530" y="630" width="30" height="10" fill="#A2B8B1" />
<rect x="560" y="630" width="20" height="10" fill="#719797" />
<rect x="670" y="630" width="40" height="60" fill="#254351" />
<rect x="790" y="630" width="60" height="40" fill="#254351" />
<rect x="890" y="630" width="20" height="30" fill="#254351" />
<rect x="990" y="630" width="40" height="140" fill="#254351" />
<rect x="1050" y="630" width="20" height="10" fill="#3C5F66" />
<rect x="1200" y="630" width="10" height="20" fill="#3C5F66" />
<rect x="1210" y="630" width="20" height="10" fill="#719797" />
<rect x="1230" y="630" width="20" height="10" fill="#A2B8B1" />
<rect x="1410" y="630" width="10" height="10" fill="#3C5F66" />
<rect x="1480" y="630" width="30" height="10" fill="#3C5F66" />
<rect x="110" y="640" width="10" height="40" fill="#3C5F66" />
<rect x="120" y="640" width="10" height="10" fill="#A2B8B1" />
<rect x="230" y="640" width="10" height="20" fill="#A2B8B1" />
<rect x="330" y="640" width="10" height="150" fill="#254351" />
<rect x="360" y="640" width="20" height="10" fill="#A2B8B1" />
<rect x="380" y="640" width="20" height="10" fill="#719797" />
<rect x="400" y="640" width="10" height="20" fill="#3C5F66" />
<rect x="440" y="640" width="10" height="190" fill="#254351" />
<rect x="470" y="640" width="10" height="90" fill="#254351" />
<rect x="530" y="640" width="50" height="90" fill="#254351" />
<rect x="1050" y="640" width="30" height="240" fill="#254351" />
<rect x="1120" y="640" width="10" height="30" fill="#254351" />
<rect x="1170" y="640" width="10" height="60" fill="#254351" />
<rect x="1210" y="640" width="40" height="10" fill="#3C5F66" />
<rect x="1280" y="640" width="10" height="150" fill="#254351" />
<rect x="1320" y="640" width="10" height="130" fill="#254351" />
<rect x="1360" y="640" width="10" height="10" fill="#A2B8B1" />
<rect x="1410" y="640" width="10" height="10" fill="#A2B8B1" />
<rect x="1420" y="640" width="10" height="10" fill="#719797" />
<rect x="1480" y="640" width="20" height="20" fill="#3C5F66" />
<rect x="1500" y="640" width="20" height="10" fill="#719797" />
<rect x="1520" y="640" width="10" height="10" fill="#A2B8B1" />
<rect x="90" y="650" width="10" height="90" fill="#3C5F66" />
<rect x="100" y="650" width="10" height="30" fill="#A2B8B1" />
<rect x="120" y="650" width="10" height="10" fill="#3C5F66" />
<rect x="250" y="650" width="10" height="10" fill="#3C5F66" />
<rect x="360" y="650" width="40" height="20" fill="#3C5F66" />
<rect x="450" y="650" width="20" height="180" fill="#254351" />
<rect x="1130" y="650" width="40" height="30" fill="#254351" />
<rect x="1200" y="650" width="30" height="40" fill="#254351" />
<rect x="1230" y="650" width="10" height="10" fill="#3C5F66" />
<rect x="1240" y="650" width="20" height="10" fill="#719797" />
<rect x="1290" y="650" width="10" height="140" fill="#254351" />
<rect x="1310" y="650" width="10" height="130" fill="#254351" />
<rect x="1360" y="650" width="10" height="20" fill="#3C5F66" />
<rect x="1410" y="650" width="20" height="20" fill="#3C5F66" />
<rect x="1500" y="650" width="30" height="10" fill="#3C5F66" />
<rect x="120" y="660" width="10" height="10" fill="#719797" />
<rect x="230" y="660" width="10" height="20" fill="#3C5F66" />
<rect x="250" y="660" width="10" height="20" fill="#719797" />
<rect x="290" y="660" width="10" height="110" fill="#254351" />
<rect x="320" y="660" width="10" height="120" fill="#254351" />
<rect x="400" y="660" width="10" height="150" fill="#254351" />
<rect x="890" y="660" width="10" height="220" fill="#254351" />
<rect x="900" y="660" width="10" height="40" fill="#719797" />
<rect x="1090" y="660" width="10" height="210" fill="#254351" />
<rect x="1100" y="660" width="10" height="10" fill="#719797" />
<rect x="1230" y="660" width="30" height="80" fill="#254351" />
<rect x="1300" y="660" width="10" height="120" fill="#254351" />
<rect x="1390" y="660" width="10" height="80" fill="#254351" />
<rect x="1480" y="660" width="10" height="10" fill="#719797" />
<rect x="1490" y="660" width="10" height="10" fill="#A2B8B1" />
<rect x="1500" y="660" width="10" height="20" fill="#3C5F66" />
<rect x="1510" y="660" width="10" height="10" fill="#A2B8B1" />
<rect x="1520" y="660" width="10" height="10" fill="#719797" />
<rect x="1570" y="660" width="30" height="20" fill="#254351" />
<rect x="120" y="670" width="10" height="10" fill="#A2B8B1" />
<rect x="300" y="670" width="20" height="70" fill="#254351" />
<rect x="360" y="670" width="40" height="110" fill="#254351" />
<rect x="740" y="670" width="20" height="10" fill="#719797" />
<rect x="790" y="670" width="50" height="230" fill="#254351" />
<rect x="840" y="670" width="10" height="10" fill="#719797" />
<rect x="930" y="670" width="10" height="180" fill="#254351" />
<rect x="940" y="670" width="10" height="10" fill="#719797" />
<rect x="1100" y="670" width="10" height="190" fill="#254351" />
<rect x="1110" y="670" width="20" height="10" fill="#719797" />
<rect x="1360" y="670" width="10" height="90" fill="#254351" />
<rect x="1380" y="670" width="10" height="80" fill="#254351" />
<rect x="1410" y="670" width="10" height="10" fill="#A2B8B1" />
<rect x="1420" y="670" width="10" height="10" fill="#3C5F66" />
<rect x="1480" y="670" width="20" height="10" fill="#3C5F66" />
<rect x="1510" y="670" width="20" height="10" fill="#3C5F66" />
<rect x="100" y="680" width="10" height="20" fill="#3C5F66" />
<rect x="110" y="680" width="10" height="10" fill="#719797" />
<rect x="120" y="680" width="10" height="30" fill="#3C5F66" />
<rect x="220" y="680" width="10" height="70" fill="#254351" />
<rect x="230" y="680" width="10" height="10" fill="#A2B8B1" />
<rect x="250" y="680" width="10" height="10" fill="#A2B8B1" />
<rect x="710" y="680" width="10" height="10" fill="#254351" />
<rect x="720" y="680" width="20" height="10" fill="#719797" />
<rect x="740" y="680" width="20" height="220" fill="#254351" />
<rect x="840" y="680" width="10" height="220" fill="#254351" />
<rect x="940" y="680" width="10" height="20" fill="#254351" />
<rect x="1110" y="680" width="20" height="180" fill="#254351" />
<rect x="1130" y="680" width="20" height="10" fill="#719797" />
<rect x="1150" y="680" width="20" height="10" fill="#254351" />
<rect x="1410" y="680" width="20" height="60" fill="#254351" />
<rect x="1450" y="680" width="10" height="180" fill="#254351" />
<rect x="1480" y="680" width="10" height="10" fill="#A2B8B1" />
<rect x="1490" y="680" width="10" height="20" fill="#3C5F66" />
<rect x="1500" y="680" width="10" height="10" fill="#A2B8B1" />
<rect x="1510" y="680" width="20" height="10" fill="#719797" />
<rect x="1570" y="680" width="10" height="90" fill="#254351" />
<rect x="1580" y="680" width="20" height="10" fill="#3C5F66" />
<rect x="110" y="690" width="10" height="10" fill="#A2B8B1" />
<rect x="190" y="690" width="10" height="120" fill="#254351" />
<rect x="230" y="690" width="40" height="60" fill="#254351" />
<rect x="600" y="690" width="10" height="50" fill="#254351" />
<rect x="610" y="690" width="10" height="10" fill="#719797" />
<rect x="620" y="690" width="20" height="40" fill="#254351" />
<rect x="670" y="690" width="30" height="10" fill="#254351" />
<rect x="700" y="690" width="20" height="10" fill="#719797" />
<rect x="720" y="690" width="20" height="210" fill="#254351" />
<rect x="1130" y="690" width="20" height="160" fill="#254351" />
<rect x="1150" y="690" width="10" height="10" fill="#719797" />
<rect x="1160" y="690" width="10" height="10" fill="#254351" />
<rect x="1200" y="690" width="20" height="30" fill="#254351" />
<rect x="1220" y="690" width="10" height="10" fill="#719797" />
<rect x="1480" y="690" width="10" height="10" fill="#3C5F66" />
<rect x="1500" y="690" width="30" height="10" fill="#3C5F66" />
<rect x="1540" y="690" width="10" height="120" fill="#254351" />
<rect x="1580" y="690" width="10" height="10" fill="#719797" />
<rect x="1590" y="690" width="10" height="20" fill="#3C5F66" />
<rect x="100" y="700" width="10" height="30" fill="#719797" />
<rect x="110" y="700" width="10" height="40" fill="#3C5F66" />
<rect x="150" y="700" width="10" height="120" fill="#254351" />
<rect x="580" y="700" width="10" height="50" fill="#254351" />
<rect x="590" y="700" width="10" height="10" fill="#3C5F66" />
<rect x="610" y="700" width="10" height="40" fill="#254351" />
<rect x="670" y="700" width="10" height="10" fill="#254351" />
<rect x="680" y="700" width="20" height="10" fill="#719797" />
<rect x="700" y="700" width="20" height="40" fill="#254351" />
<rect x="900" y="700" width="10" height="90" fill="#254351" />
<rect x="910" y="700" width="10" height="70" fill="#719797" />
<rect x="940" y="700" width="10" height="10" fill="#3C5F66" />
<rect x="1150" y="700" width="10" height="100" fill="#254351" />
<rect x="1160" y="700" width="20" height="10" fill="#719797" />
<rect x="1220" y="700" width="10" height="30" fill="#254351" />
<rect x="1480" y="700" width="40" height="120" fill="#254351" />
<rect x="1520" y="700" width="10" height="10" fill="#3C5F66" />
<rect x="1560" y="700" width="10" height="100" fill="#254351" />
<rect x="1580" y="700" width="10" height="20" fill="#3C5F66" />
<rect x="120" y="710" width="10" height="10" fill="#A2B8B1" />
<rect x="160" y="710" width="30" height="80" fill="#254351" />
<rect x="590" y="710" width="10" height="30" fill="#254351" />
<rect x="650" y="710" width="10" height="10" fill="#254351" />
<rect x="660" y="710" width="20" height="10" fill="#719797" />
<rect x="680" y="710" width="20" height="190" fill="#254351" />
<rect x="940" y="710" width="10" height="190" fill="#254351" />
<rect x="1160" y="710" width="20" height="130" fill="#254351" />
<rect x="1180" y="710" width="20" height="10" fill="#719797" />
<rect x="1520" y="710" width="10" height="110" fill="#254351" />
<rect x="1550" y="710" width="10" height="90" fill="#254351" />
<rect x="1590" y="710" width="10" height="10" fill="#A2B8B1" />
<rect x="120" y="720" width="10" height="10" fill="#3C5F66" />
<rect x="640" y="720" width="20" height="10" fill="#719797" />
<rect x="660" y="720" width="20" height="150" fill="#254351" />
<rect x="950" y="720" width="10" height="10" fill="#719797" />
<rect x="1180" y="720" width="20" height="110" fill="#254351" />
<rect x="1200" y="720" width="20" height="10" fill="#719797" />
<rect x="1580" y="720" width="20" height="60" fill="#254351" />
<rect x="60" y="730" width="10" height="130" fill="#254351" />
<rect x="100" y="730" width="10" height="10" fill="#3C5F66" />
<rect x="120" y="730" width="10" height="110" fill="#254351" />
<rect x="470" y="730" width="10" height="10" fill="#719797" />
<rect x="530" y="730" width="20" height="40" fill="#254351" />
<rect x="550" y="730" width="10" height="10" fill="#719797" />
<rect x="560" y="730" width="20" height="20" fill="#254351" />
<rect x="620" y="730" width="20" height="10" fill="#719797" />
<rect x="640" y="730" width="20" height="130" fill="#254351" />
<rect x="950" y="730" width="10" height="170" fill="#254351" />
<rect x="1200" y="730" width="20" height="40" fill="#254351" />
<rect x="1220" y="730" width="10" height="10" fill="#719797" />
<rect x="90" y="740" width="30" height="60" fill="#254351" />
<rect x="300" y="740" width="10" height="10" fill="#719797" />
<rect x="310" y="740" width="10" height="40" fill="#254351" />
<rect x="470" y="740" width="10" height="60" fill="#254351" />
<rect x="550" y="740" width="10" height="20" fill="#254351" />
<rect x="590" y="740" width="30" height="10" fill="#719797" />
<rect x="620" y="740" width="20" height="110" fill="#254351" />
<rect x="700" y="740" width="10" height="160" fill="#254351" />
<rect x="710" y="740" width="10" height="10" fill="#719797" />
<rect x="1220" y="740" width="10" height="70" fill="#254351" />
<rect x="1230" y="740" width="20" height="10" fill="#719797" />
<rect x="1250" y="740" width="10" height="10" fill="#254351" />
<rect x="1390" y="740" width="30" height="20" fill="#719797" />
<rect x="1420" y="740" width="10" height="110" fill="#254351" />
<rect x="50" y="750" width="10" height="60" fill="#254351" />
<rect x="200" y="750" width="10" height="50" fill="#254351" />
<rect x="210" y="750" width="30" height="20" fill="#719797" />
<rect x="240" y="750" width="30" height="10" fill="#254351" />
<rect x="300" y="750" width="10" height="30" fill="#254351" />
<rect x="500" y="750" width="10" height="40" fill="#254351" />
<rect x="510" y="750" width="10" height="10" fill="#3C5F66" />
<rect x="560" y="750" width="10" height="10" fill="#254351" />
<rect x="570" y="750" width="20" height="10" fill="#719797" />
<rect x="590" y="750" width="30" height="70" fill="#254351" />
<rect x="710" y="750" width="10" height="150" fill="#254351" />
<rect x="1230" y="750" width="20" height="60" fill="#254351" />
<rect x="1250" y="750" width="20" height="10" fill="#719797" />
<rect x="1270" y="750" width="10" height="10" fill="#254351" />
<rect x="1370" y="750" width="20" height="20" fill="#719797" />
<rect x="1530" y="750" width="10" height="10" fill="#3C5F66" />
<rect x="240" y="760" width="30" height="20" fill="#719797" />
<rect x="510" y="760" width="10" height="20" fill="#254351" />
<rect x="550" y="760" width="20" height="10" fill="#719797" />
<rect x="570" y="760" width="20" height="110" fill="#254351" />
<rect x="850" y="760" width="10" height="140" fill="#254351" />
<rect x="860" y="760" width="10" height="10" fill="#719797" />
<rect x="1250" y="760" width="20" height="40" fill="#254351" />
<rect x="1270" y="760" width="10" height="10" fill="#719797" />
<rect x="1330" y="760" width="10" height="10" fill="#254351" />
<rect x="1340" y="760" width="30" height="20" fill="#719797" />
<rect x="1390" y="760" width="10" height="10" fill="#719797" />
<rect x="1400" y="760" width="20" height="90" fill="#254351" />
<rect x="1530" y="760" width="10" height="50" fill="#254351" />
<rect x="30" y="770" width="20" height="100" fill="#254351" />
<rect x="130" y="770" width="10" height="60" fill="#254351" />
<rect x="140" y="770" width="10" height="10" fill="#3C5F66" />
<rect x="210" y="770" width="20" height="30" fill="#254351" />
<rect x="230" y="770" width="10" height="10" fill="#719797" />
<rect x="270" y="770" width="30" height="20" fill="#719797" />
<rect x="530" y="770" width="20" height="10" fill="#719797" />
<rect x="550" y="770" width="20" height="90" fill="#254351" />
<rect x="860" y="770" width="10" height="130" fill="#254351" />
<rect x="910" y="770" width="10" height="130" fill="#254351" />
<rect x="920" y="770" width="10" height="80" fill="#719797" />
<rect x="990" y="770" width="10" height="130" fill="#254351" />
<rect x="1000" y="770" width="10" height="10" fill="#719797" />
<rect x="1010" y="770" width="20" height="130" fill="#254351" />
<rect x="1200" y="770" width="10" height="50" fill="#254351" />
<rect x="1210" y="770" width="10" height="10" fill="#3C5F66" />
<rect x="1270" y="770" width="10" height="20" fill="#254351" />
<rect x="1320" y="770" width="20" height="20" fill="#719797" />
<rect x="1370" y="770" width="10" height="10" fill="#719797" />
<rect x="1380" y="770" width="20" height="70" fill="#254351" />
<rect x="1570" y="770" width="10" height="10" fill="#719797" />
<rect x="10" y="780" width="20" height="90" fill="#254351" />
<rect x="140" y="780" width="10" height="50" fill="#254351" />
<rect x="230" y="780" width="30" height="50" fill="#254351" />
<rect x="260" y="780" width="10" height="10" fill="#719797" />
<rect x="300" y="780" width="30" height="20" fill="#719797" />
<rect x="360" y="780" width="20" height="20" fill="#254351" />
<rect x="380" y="780" width="10" height="10" fill="#719797" />
<rect x="390" y="780" width="10" height="30" fill="#254351" />
<rect x="510" y="780" width="20" height="10" fill="#719797" />
<rect x="530" y="780" width="20" height="80" fill="#254351" />
<rect x="1000" y="780" width="10" height="120" fill="#254351" />
<rect x="1210" y="780" width="10" height="40" fill="#254351" />
<rect x="1300" y="780" width="20" height="20" fill="#719797" />
<rect x="1340" y="780" width="10" height="10" fill="#719797" />
<rect x="1350" y="780" width="30" height="60" fill="#254351" />
<rect x="1570" y="780" width="20" height="10" fill="#254351" />
<rect x="1590" y="780" width="10" height="30" fill="#719797" />
<rect x="0" y="790" width="10" height="90" fill="#254351" />
<rect x="160" y="790" width="10" height="30" fill="#254351" />
<rect x="170" y="790" width="10" height="10" fill="#719797" />
<rect x="180" y="790" width="10" height="20" fill="#254351" />
<rect x="260" y="790" width="30" height="110" fill="#254351" />
<rect x="290" y="790" width="10" height="10" fill="#719797" />
<rect x="330" y="790" width="20" height="20" fill="#719797" />
<rect x="350" y="790" width="10" height="10" fill="#254351" />
<rect x="380" y="790" width="10" height="20" fill="#254351" />
<rect x="490" y="790" width="20" height="10" fill="#719797" />
<rect x="510" y="790" width="20" height="60" fill="#254351" />
<rect x="900" y="790" width="10" height="10" fill="#3C5F66" />
<rect x="1270" y="790" width="30" height="20" fill="#719797" />
<rect x="1320" y="790" width="10" height="10" fill="#719797" />
<rect x="1330" y="790" width="20" height="40" fill="#254351" />
<rect x="1570" y="790" width="20" height="20" fill="#719797" />
<rect x="90" y="800" width="20" height="40" fill="#254351" />
<rect x="110" y="800" width="10" height="10" fill="#719797" />
<rect x="170" y="800" width="10" height="20" fill="#254351" />
<rect x="200" y="800" width="20" height="10" fill="#719797" />
<rect x="220" y="800" width="10" height="100" fill="#254351" />
<rect x="290" y="800" width="30" height="100" fill="#254351" />
<rect x="320" y="800" width="10" height="10" fill="#719797" />
<rect x="350" y="800" width="30" height="20" fill="#719797" />
<rect x="470" y="800" width="20" height="10" fill="#719797" />
<rect x="490" y="800" width="20" height="50" fill="#254351" />
<rect x="900" y="800" width="10" height="40" fill="#254351" />
<rect x="1150" y="800" width="10" height="10" fill="#719797" />
<rect x="1250" y="800" width="20" height="20" fill="#719797" />
<rect x="1300" y="800" width="10" height="10" fill="#719797" />
<rect x="1310" y="800" width="20" height="30" fill="#254351" />
<rect x="1550" y="800" width="20" height="20" fill="#719797" />
<rect x="50" y="810" width="10" height="10" fill="#719797" />
<rect x="110" y="810" width="10" height="30" fill="#254351" />
<rect x="180" y="810" width="20" height="10" fill="#719797" />
<rect x="200" y="810" width="20" height="90" fill="#254351" />
<rect x="320" y="810" width="20" height="40" fill="#254351" />
<rect x="340" y="810" width="10" height="10" fill="#719797" />
<rect x="380" y="810" width="30" height="20" fill="#719797" />
<rect x="470" y="810" width="20" height="30" fill="#254351" />
<rect x="1150" y="810" width="10" height="30" fill="#254351" />
<rect x="1220" y="810" width="30" height="20" fill="#719797" />
<rect x="1270" y="810" width="10" height="10" fill="#719797" />
<rect x="1280" y="810" width="30" height="90" fill="#254351" />
<rect x="1530" y="810" width="20" height="20" fill="#719797" />
<rect x="1570" y="810" width="10" height="10" fill="#719797" />
<rect x="1580" y="810" width="20" height="40" fill="#254351" />
<rect x="50" y="820" width="10" height="40" fill="#254351" />
<rect x="150" y="820" width="30" height="10" fill="#719797" />
<rect x="180" y="820" width="20" height="30" fill="#254351" />
<rect x="340" y="820" width="30" height="50" fill="#254351" />
<rect x="370" y="820" width="10" height="10" fill="#719797" />
<rect x="410" y="820" width="30" height="20" fill="#719797" />
<rect x="590" y="820" width="10" height="10" fill="#719797" />
<rect x="600" y="820" width="20" height="60" fill="#254351" />
<rect x="1200" y="820" width="20" height="20" fill="#719797" />
<rect x="1250" y="820" width="10" height="10" fill="#719797" />
<rect x="1260" y="820" width="20" height="20" fill="#254351" />
<rect x="1430" y="820" width="10" height="40" fill="#254351" />
<rect x="1440" y="820" width="10" height="10" fill="#719797" />
<rect x="1480" y="820" width="30" height="30" fill="#254351" />
<rect x="1510" y="820" width="20" height="20" fill="#719797" />
<rect x="1550" y="820" width="10" height="10" fill="#719797" />
<rect x="1560" y="820" width="20" height="40" fill="#254351" />
<rect x="130" y="830" width="20" height="10" fill="#719797" />
<rect x="150" y="830" width="30" height="70" fill="#254351" />
<rect x="230" y="830" width="10" height="10" fill="#719797" />
<rect x="240" y="830" width="20" height="60" fill="#254351" />
<rect x="370" y="830" width="30" height="20" fill="#254351" />
<rect x="400" y="830" width="10" height="10" fill="#719797" />
<rect x="440" y="830" width="30" height="20" fill="#719797" />
<rect x="590" y="830" width="10" height="40" fill="#254351" />
<rect x="1180" y="830" width="20" height="20" fill="#719797" />
<rect x="1220" y="830" width="10" height="10" fill="#719797" />
<rect x="1230" y="830" width="30" height="70" fill="#254351" />
<rect x="1310" y="830" width="10" height="70" fill="#254351" />
<rect x="1320" y="830" width="30" height="20" fill="#719797" />
<rect x="1440" y="830" width="10" height="30" fill="#254351" />
<rect x="1530" y="830" width="10" height="10" fill="#719797" />
<rect x="1540" y="830" width="20" height="50" fill="#254351" />
<rect x="90" y="840" width="10" height="10" fill="#254351" />
<rect x="100" y="840" width="30" height="10" fill="#719797" />
<rect x="130" y="840" width="20" height="40" fill="#254351" />
<rect x="230" y="840" width="10" height="60" fill="#254351" />
<rect x="400" y="840" width="30" height="40" fill="#254351" />
<rect x="430" y="840" width="10" height="10" fill="#719797" />
<rect x="470" y="840" width="20" height="20" fill="#719797" />
<rect x="900" y="840" width="10" height="10" fill="#719797" />
<rect x="1150" y="840" width="30" height="20" fill="#719797" />
<rect x="1200" y="840" width="10" height="10" fill="#719797" />
<rect x="1210" y="840" width="20" height="60" fill="#254351" />
<rect x="1260" y="840" width="10" height="10" fill="#3C5F66" />
<rect x="1270" y="840" width="10" height="40" fill="#254351" />
<rect x="1350" y="840" width="40" height="20" fill="#719797" />
<rect x="1390" y="840" width="10" height="10" fill="#254351" />
<rect x="1510" y="840" width="30" height="40" fill="#254351" />
<rect x="70" y="850" width="30" height="10" fill="#719797" />
<rect x="100" y="850" width="30" height="50" fill="#254351" />
<rect x="180" y="850" width="10" height="50" fill="#254351" />
<rect x="190" y="850" width="10" height="10" fill="#3C5F66" />
<rect x="320" y="850" width="10" height="10" fill="#719797" />
<rect x="330" y="850" width="10" height="40" fill="#254351" />
<rect x="370" y="850" width="20" height="10" fill="#254351" />
<rect x="390" y="850" width="10" height="10" fill="#719797" />
<rect x="430" y="850" width="30" height="50" fill="#254351" />
<rect x="460" y="850" width="10" height="10" fill="#719797" />
<rect x="490" y="850" width="10" height="40" fill="#254351" />
<rect x="500" y="850" width="30" height="20" fill="#719797" />
<rect x="620" y="850" width="10" height="10" fill="#3C5F66" />
<rect x="630" y="850" width="10" height="40" fill="#254351" />
<rect x="900" y="850" width="10" height="50" fill="#254351" />
<rect x="920" y="850" width="10" height="50" fill="#254351" />
<rect x="930" y="850" width="10" height="40" fill="#719797" />
<rect x="1040" y="850" width="10" height="10" fill="#3C5F66" />
<rect x="1130" y="850" width="20" height="20" fill="#719797" />
<rect x="1180" y="850" width="10" height="10" fill="#719797" />
<rect x="1190" y="850" width="20" height="40" fill="#254351" />
<rect x="1260" y="850" width="10" height="50" fill="#254351" />
<rect x="1320" y="850" width="20" height="50" fill="#254351" />
<rect x="1340" y="850" width="10" height="10" fill="#719797" />
<rect x="1390" y="850" width="40" height="20" fill="#719797" />
<rect x="1480" y="850" width="10" height="20" fill="#254351" />
<rect x="1490" y="850" width="10" height="10" fill="#3C5F66" />
<rect x="1500" y="850" width="10" height="20" fill="#254351" />
<rect x="1580" y="850" width="10" height="40" fill="#254351" />
<rect x="1590" y="850" width="10" height="10" fill="#719797" />
<rect x="50" y="860" width="20" height="10" fill="#719797" />
<rect x="70" y="860" width="30" height="20" fill="#254351" />
<rect x="190" y="860" width="10" height="40" fill="#254351" />
<rect x="320" y="860" width="10" height="30" fill="#254351" />
<rect x="370" y="860" width="20" height="10" fill="#719797" />
<rect x="390" y="860" width="10" height="40" fill="#254351" />
<rect x="460" y="860" width="30" height="40" fill="#254351" />
<rect x="530" y="860" width="40" height="20" fill="#719797" />
<rect x="620" y="860" width="10" height="20" fill="#254351" />
<rect x="640" y="860" width="10" height="10" fill="#3C5F66" />
<rect x="650" y="860" width="10" height="30" fill="#254351" />
<rect x="1040" y="860" width="10" height="30" fill="#254351" />
<rect x="1100" y="860" width="30" height="20" fill="#719797" />
<rect x="1150" y="860" width="10" height="10" fill="#719797" />
<rect x="1160" y="860" width="30" height="40" fill="#254351" />
<rect x="1340" y="860" width="40" height="40" fill="#254351" />
<rect x="1380" y="860" width="10" height="10" fill="#719797" />
<rect x="1430" y="860" width="40" height="20" fill="#719797" />
<rect x="1470" y="860" width="10" height="10" fill="#254351" />
<rect x="1490" y="860" width="10" height="10" fill="#254351" />
<rect x="1560" y="860" width="10" height="10" fill="#3C5F66" />
<rect x="1570" y="860" width="10" height="30" fill="#254351" />
<rect x="1590" y="860" width="10" height="40" fill="#254351" />
<rect x="10" y="870" width="10" height="10" fill="#254351" />
<rect x="20" y="870" width="30" height="10" fill="#719797" />
<rect x="50" y="870" width="20" height="30" fill="#254351" />
<rect x="340" y="870" width="10" height="10" fill="#254351" />
<rect x="350" y="870" width="20" height="10" fill="#719797" />
<rect x="370" y="870" width="20" height="30" fill="#254351" />
<rect x="500" y="870" width="20" height="30" fill="#254351" />
<rect x="520" y="870" width="10" height="10" fill="#719797" />
<rect x="570" y="870" width="30" height="20" fill="#719797" />
<rect x="640" y="870" width="10" height="20" fill="#254351" />
<rect x="660" y="870" width="10" height="20" fill="#254351" />
<rect x="670" y="870" width="10" height="10" fill="#719797" />
<rect x="1080" y="870" width="20" height="20" fill="#719797" />
<rect x="1130" y="870" width="10" height="10" fill="#719797" />
<rect x="1140" y="870" width="20" height="30" fill="#254351" />
<rect x="1380" y="870" width="40" height="30" fill="#254351" />
<rect x="1420" y="870" width="10" height="10" fill="#719797" />
<rect x="1470" y="870" width="40" height="20" fill="#719797" />
<rect x="1560" y="870" width="10" height="20" fill="#254351" />
<rect x="0" y="880" width="20" height="10" fill="#719797" />
<rect x="20" y="880" width="30" height="20" fill="#254351" />
<rect x="70" y="880" width="10" height="20" fill="#254351" />
<rect x="80" y="880" width="10" height="10" fill="#3C5F66" />
<rect x="90" y="880" width="10" height="20" fill="#254351" />
<rect x="130" y="880" width="10" height="10" fill="#719797" />
<rect x="140" y="880" width="10" height="20" fill="#254351" />
<rect x="340" y="880" width="10" height="10" fill="#719797" />
<rect x="350" y="880" width="20" height="20" fill="#254351" />
<rect x="400" y="880" width="20" height="20" fill="#254351" />
<rect x="420" y="880" width="10" height="10" fill="#719797" />
<rect x="520" y="880" width="40" height="20" fill="#254351" />
<rect x="560" y="880" width="10" height="10" fill="#719797" />
<rect x="600" y="880" width="30" height="20" fill="#719797" />
<rect x="670" y="880" width="10" height="20" fill="#254351" />
<rect x="890" y="880" width="10" height="10" fill="#3C5F66" />
<rect x="1050" y="880" width="10" height="10" fill="#254351" />
<rect x="1060" y="880" width="20" height="20" fill="#719797" />
<rect x="1100" y="880" width="10" height="10" fill="#719797" />
<rect x="1110" y="880" width="30" height="20" fill="#254351" />
<rect x="1270" y="880" width="10" height="10" fill="#719797" />
<rect x="1420" y="880" width="40" height="20" fill="#254351" />
<rect x="1460" y="880" width="10" height="10" fill="#719797" />
<rect x="1510" y="880" width="40" height="20" fill="#719797" />
<rect x="1550" y="880" width="10" height="10" fill="#254351" />
<rect x="0" y="890" width="20" height="10" fill="#254351" />
<rect x="80" y="890" width="10" height="10" fill="#254351" />
<rect x="130" y="890" width="10" height="10" fill="#254351" />
<rect x="240" y="890" width="10" height="10" fill="#254351" />
<rect x="250" y="890" width="10" height="10" fill="#719797" />
<rect x="320" y="890" width="20" height="10" fill="#719797" />
<rect x="340" y="890" width="10" height="10" fill="#254351" />
<rect x="420" y="890" width="10" height="10" fill="#254351" />
<rect x="490" y="890" width="10" height="10" fill="#3C5F66" />
<rect x="560" y="890" width="30" height="10" fill="#254351" />
<rect x="590" y="890" width="10" height="10" fill="#719797" />
<rect x="630" y="890" width="40" height="10" fill="#719797" />
<rect x="890" y="890" width="10" height="10" fill="#254351" />
<rect x="930" y="890" width="10" height="10" fill="#254351" />
<rect x="1040" y="890" width="20" height="10" fill="#719797" />
<rect x="1080" y="890" width="10" height="10" fill="#719797" />
<rect x="1090" y="890" width="20" height="10" fill="#254351" />
<rect x="1190" y="890" width="10" height="10" fill="#3C5F66" />
<rect x="1200" y="890" width="10" height="10" fill="#254351" />
<rect x="1270" y="890" width="10" height="10" fill="#254351" />
<rect x="1460" y="890" width="40" height="10" fill="#254351" />
<rect x="1500" y="890" width="10" height="10" fill="#719797" />
<rect x="1550" y="890" width="40" height="10" fill="#719797" />
</svg>