<?xml version="1.0" encoding="UTF-8" ?>
<svg version="1.1" width="1600" height="900" xmlns="http://www.w3.org/2000/svg" shape-rendering="crispEdges">
<rect x="0" y="650" width="10" height="10" fill="#230019" />
<rect x="20" y="650" width="10" height="10" fill="#230019" />
<rect x="40" y="650" width="10" height="10" fill="#230019" />
<rect x="60" y="650" width="10" height="10" fill="#230019" />
<rect x="80" y="650" width="10" height="10" fill="#230019" />
<rect x="100" y="650" width="10" height="10" fill="#230019" />
<rect x="120" y="650" width="10" height="10" fill="#230019" />
<rect x="140" y="650" width="10" height="10" fill="#230019" />
<rect x="160" y="650" width="10" height="10" fill="#230019" />
<rect x="180" y="650" width="10" height="10" fill="#230019" />
<rect x="200" y="650" width="10" height="10" fill="#230019" />
<rect x="220" y="650" width="10" height="10" fill="#230019" />
<rect x="240" y="650" width="10" height="10" fill="#230019" />
<rect x="260" y="650" width="10" height="10" fill="#230019" />
<rect x="280" y="650" width="10" height="10" fill="#230019" />
<rect x="300" y="650" width="10" height="10" fill="#230019" />
<rect x="320" y="650" width="10" height="10" fill="#230019" />
<rect x="340" y="650" width="10" height="10" fill="#230019" />
<rect x="360" y="650" width="10" height="10" fill="#230019" />
<rect x="380" y="650" width="10" height="10" fill="#230019" />
<rect x="400" y="650" width="10" height="10" fill="#230019" />
<rect x="420" y="650" width="10" height="10" fill="#230019" />
<rect x="440" y="650" width="10" height="10" fill="#230019" />
<rect x="460" y="650" width="10" height="10" fill="#230019" />
<rect x="480" y="650" width="10" height="10" fill="#230019" />
<rect x="500" y="650" width="10" height="10" fill="#230019" />
<rect x="520" y="650" width="10" height="10" fill="#230019" />
<rect x="540" y="650" width="10" height="10" fill="#230019" />
<rect x="560" y="650" width="10" height="10" fill="#230019" />
<rect x="580" y="650" width="10" height="10" fill="#230019" />
<rect x="600" y="650" width="10" height="10" fill="#230019" />
<rect x="620" y="650" width="10" height="10" fill="#230019" />
<rect x="640" y="650" width="10" height="10" fill="#230019" />
<rect x="660" y="650" width="10" height="10" fill="#230019" />
<rect x="680" y="650" width="10" height="10" fill="#230019" />
<rect x="700" y="650" width="10" height="10" fill="#230019" />
<rect x="720" y="650" width="10" height="10" fill="#230019" />
<rect x="740" y="650" width="10" height="10" fill="#230019" />
<rect x="760" y="650" width="10" height="10" fill="#230019" />
<rect x="780" y="650" width="10" height="10" fill="#230019" />
<rect x="800" y="650" width="10" height="10" fill="#230019" />
<rect x="820" y="650" width="10" height="10" fill="#230019" />
<rect x="840" y="650" width="10" height="10" fill="#230019" />
<rect x="860" y="650" width="10" height="10" fill="#230019" />
<rect x="880" y="650" width="10" height="10" fill="#230019" />
<rect x="900" y="650" width="10" height="10" fill="#230019" />
<rect x="920" y="650" width="10" height="10" fill="#230019" />
<rect x="940" y="650" width="10" height="10" fill="#230019" />
<rect x="960" y="650" width="10" height="10" fill="#230019" />
<rect x="980" y="650" width="10" height="10" fill="#230019" />
<rect x="1000" y="650" width="10" height="10" fill="#230019" />
<rect x="1020" y="650" width="10" height="10" fill="#230019" />
<rect x="1040" y="650" width="10" height="10" fill="#230019" />
<rect x="1060" y="650" width="10" height="10" fill="#230019" />
<rect x="1080" y="650" width="10" height="10" fill="#230019" />
<rect x="1100" y="650" width="10" height="10" fill="#230019" />
<rect x="1120" y="650" width="10" height="10" fill="#230019" />
<rect x="1140" y="650" width="10" height="10" fill="#230019" />
<rect x="1160" y="650" width="10" height="10" fill="#230019" />
<rect x="1180" y="650" width="10" height="10" fill="#230019" />
<rect x="1200" y="650" width="10" height="10" fill="#230019" />
<rect x="1220" y="650" width="10" height="10" fill="#230019" />
<rect x="1240" y="650" width="10" height="10" fill="#230019" />
<rect x="1260" y="650" width="10" height="10" fill="#230019" />
<rect x="1280" y="650" width="10" height="10" fill="#230019" />
<rect x="1300" y="650" width="10" height="10" fill="#230019" />
<rect x="1320" y="650" width="10" height="10" fill="#230019" />
<rect x="1340" y="650" width="10" height="10" fill="#230019" />
<rect x="1360" y="650" width="10" height="10" fill="#230019" />
<rect x="1380" y="650" width="10" height="10" fill="#230019" />
<rect x="1400" y="650" width="10" height="10" fill="#230019" />
<rect x="1420" y="650" width="10" height="10" fill="#230019" />
<rect x="1440" y="650" width="10" height="10" fill="#230019" />
<rect x="1460" y="650" width="10" height="10" fill="#230019" />
<rect x="1480" y="650" width="10" height="10" fill="#230019" />
<rect x="1500" y="650" width="10" height="10" fill="#230019" />
<rect x="1520" y="650" width="10" height="10" fill="#230019" />
<rect x="1540" y="650" width="10" height="10" fill="#230019" />
<rect x="1560" y="650" width="10" height="10" fill="#230019" />
<rect x="1580" y="650" width="10" height="10" fill="#230019" />
<rect x="0" y="670" width="10" height="10" fill="#230019" />
<rect x="20" y="670" width="10" height="10" fill="#230019" />
<rect x="40" y="670" width="10" height="10" fill="#230019" />
<rect x="60" y="670" width="10" height="10" fill="#230019" />
<rect x="80" y="670" width="10" height="10" fill="#230019" />
<rect x="100" y="670" width="10" height="10" fill="#230019" />
<rect x="120" y="670" width="10" height="10" fill="#230019" />
<rect x="140" y="670" width="10" height="10" fill="#230019" />
<rect x="160" y="670" width="10" height="10" fill="#230019" />
<rect x="180" y="670" width="10" height="10" fill="#230019" />
<rect x="200" y="670" width="10" height="10" fill="#230019" />
<rect x="220" y="670" width="10" height="10" fill="#230019" />
<rect x="240" y="670" width="10" height="10" fill="#230019" />
<rect x="260" y="670" width="10" height="10" fill="#230019" />
<rect x="280" y="670" width="10" height="10" fill="#230019" />
<rect x="300" y="670" width="10" height="10" fill="#230019" />
<rect x="320" y="670" width="10" height="10" fill="#230019" />
<rect x="340" y="670" width="10" height="10" fill="#230019" />
<rect x="360" y="670" width="10" height="10" fill="#230019" />
<rect x="380" y="670" width="10" height="10" fill="#230019" />
<rect x="400" y="670" width="10" height="10" fill="#230019" />
<rect x="420" y="670" width="10" height="10" fill="#230019" />
<rect x="440" y="670" width="10" height="10" fill="#230019" />
<rect x="460" y="670" width="10" height="10" fill="#230019" />
<rect x="480" y="670" width="10" height="10" fill="#230019" />
<rect x="500" y="670" width="10" height="10" fill="#230019" />
<rect x="520" y="670" width="10" height="10" fill="#230019" />
<rect x="540" y="670" width="10" height="10" fill="#230019" />
<rect x="560" y="670" width="10" height="10" fill="#230019" />
<rect x="580" y="670" width="10" height="10" fill="#230019" />
<rect x="600" y="670" width="10" height="10" fill="#230019" />
<rect x="620" y="670" width="10" height="10" fill="#230019" />
<rect x="640" y="670" width="10" height="10" fill="#230019" />
<rect x="660" y="670" width="10" height="10" fill="#230019" />
<rect x="680" y="670" width="10" height="10" fill="#230019" />
<rect x="700" y="670" width="10" height="10" fill="#230019" />
<rect x="720" y="670" width="10" height="10" fill="#230019" />
<rect x="740" y="670" width="10" height="10" fill="#230019" />
<rect x="760" y="670" width="10" height="10" fill="#230019" />
<rect x="780" y="670" width="10" height="10" fill="#230019" />
<rect x="800" y="670" width="10" height="10" fill="#230019" />
<rect x="820" y="670" width="10" height="10" fill="#230019" />
<rect x="840" y="670" width="10" height="10" fill="#230019" />
<rect x="860" y="670" width="10" height="10" fill="#230019" />
<rect x="880" y="670" width="10" height="10" fill="#230019" />
<rect x="900" y="670" width="10" height="10" fill="#230019" />
<rect x="920" y="670" width="10" height="10" fill="#230019" />
<rect x="940" y="670" width="10" height="10" fill="#230019" />
<rect x="960" y="670" width="10" height="10" fill="#230019" />
<rect x="980" y="670" width="10" height="10" fill="#230019" />
<rect x="1000" y="670" width="10" height="10" fill="#230019" />
<rect x="1020" y="670" width="10" height="10" fill="#230019" />
<rect x="1040" y="670" width="10" height="10" fill="#230019" />
<rect x="1060" y="670" width="10" height="10" fill="#230019" />
<rect x="1080" y="670" width="10" height="10" fill="#230019" />
<rect x="1100" y="670" width="10" height="10" fill="#230019" />
<rect x="1120" y="670" width="10" height="10" fill="#230019" />
<rect x="1140" y="670" width="10" height="10" fill="#230019" />
<rect x="1160" y="670" width="10" height="10" fill="#230019" />
<rect x="1180" y="670" width="10" height="10" fill="#230019" />
<rect x="1200" y="670" width="10" height="10" fill="#230019" />
<rect x="1220" y="670" width="10" height="10" fill="#230019" />
<rect x="1240" y="670" width="10" height="10" fill="#230019" />
<rect x="1260" y="670" width="10" height="10" fill="#230019" />
<rect x="1280" y="670" width="10" height="10" fill="#230019" />
<rect x="1300" y="670" width="10" height="10" fill="#230019" />
<rect x="1320" y="670" width="10" height="10" fill="#230019" />
<rect x="1340" y="670" width="10" height="10" fill="#230019" />
<rect x="1360" y="670" width="10" height="10" fill="#230019" />
<rect x="1380" y="670" width="10" height="10" fill="#230019" />
<rect x="1400" y="670" width="10" height="10" fill="#230019" />
<rect x="1420" y="670" width="10" height="10" fill="#230019" />
<rect x="1440" y="670" width="10" height="10" fill="#230019" />
<rect x="1460" y="670" width="10" height="10" fill="#230019" />
<rect x="1480" y="670" width="10" height="10" fill="#230019" />
<rect x="1500" y="670" width="10" height="10" fill="#230019" />
<rect x="1520" y="670" width="10" height="10" fill="#230019" />
<rect x="1540" y="670" width="10" height="10" fill="#230019" />
<rect x="1560" y="670" width="10" height="10" fill="#230019" />
<rect x="1580" y="670" width="10" height="10" fill="#230019" />
<rect x="10" y="680" width="10" height="30" fill="#230019" />
<rect x="30" y="680" width="10" height="10" fill="#230019" />
<rect x="50" y="680" width="10" height="30" fill="#230019" />
<rect x="70" y="680" width="10" height="10" fill="#230019" />
<rect x="90" y="680" width="10" height="30" fill="#230019" />
<rect x="110" y="680" width="10" height="10" fill="#230019" />
<rect x="130" y="680" width="10" height="30" fill="#230019" />
<rect x="150" y="680" width="10" height="10" fill="#230019" />
<rect x="170" y="680" width="10" height="30" fill="#230019" />
<rect x="190" y="680" width="10" height="10" fill="#230019" />
<rect x="210" y="680" width="10" height="30" fill="#230019" />
<rect x="230" y="680" width="10" height="10" fill="#230019" />
<rect x="250" y="680" width="10" height="30" fill="#230019" />
<rect x="270" y="680" width="10" height="10" fill="#230019" />
<rect x="290" y="680" width="10" height="30" fill="#230019" />
<rect x="310" y="680" width="10" height="10" fill="#230019" />
<rect x="330" y="680" width="10" height="30" fill="#230019" />
<rect x="350" y="680" width="10" height="10" fill="#230019" />
<rect x="370" y="680" width="10" height="30" fill="#230019" />
<rect x="390" y="680" width="10" height="10" fill="#230019" />
<rect x="410" y="680" width="10" height="30" fill="#230019" />
<rect x="430" y="680" width="10" height="10" fill="#230019" />
<rect x="450" y="680" width="10" height="30" fill="#230019" />
<rect x="470" y="680" width="10" height="10" fill="#230019" />
<rect x="490" y="680" width="10" height="30" fill="#230019" />
<rect x="510" y="680" width="10" height="10" fill="#230019" />
<rect x="530" y="680" width="10" height="30" fill="#230019" />
<rect x="550" y="680" width="10" height="10" fill="#230019" />
<rect x="570" y="680" width="10" height="30" fill="#230019" />
<rect x="590" y="680" width="10" height="10" fill="#230019" />
<rect x="610" y="680" width="10" height="30" fill="#230019" />
<rect x="630" y="680" width="10" height="10" fill="#230019" />
<rect x="650" y="680" width="10" height="30" fill="#230019" />
<rect x="670" y="680" width="10" height="10" fill="#230019" />
<rect x="690" y="680" width="10" height="30" fill="#230019" />
<rect x="710" y="680" width="10" height="10" fill="#230019" />
<rect x="730" y="680" width="10" height="30" fill="#230019" />
<rect x="750" y="680" width="10" height="10" fill="#230019" />
<rect x="770" y="680" width="10" height="30" fill="#230019" />
<rect x="790" y="680" width="10" height="10" fill="#230019" />
<rect x="810" y="680" width="10" height="30" fill="#230019" />
<rect x="830" y="680" width="10" height="10" fill="#230019" />
<rect x="850" y="680" width="10" height="30" fill="#230019" />
<rect x="870" y="680" width="10" height="10" fill="#230019" />
<rect x="890" y="680" width="10" height="30" fill="#230019" />
<rect x="910" y="680" width="10" height="10" fill="#230019" />
<rect x="930" y="680" width="10" height="30" fill="#230019" />
<rect x="950" y="680" width="10" height="10" fill="#230019" />
<rect x="970" y="680" width="10" height="30" fill="#230019" />
<rect x="990" y="680" width="10" height="10" fill="#230019" />
<rect x="1010" y="680" width="10" height="30" fill="#230019" />
<rect x="1030" y="680" width="10" height="10" fill="#230019" />
<rect x="1050" y="680" width="10" height="30" fill="#230019" />
<rect x="1070" y="680" width="10" height="10" fill="#230019" />
<rect x="1090" y="680" width="10" height="30" fill="#230019" />
<rect x="1110" y="680" width="10" height="10" fill="#230019" />
<rect x="1130" y="680" width="10" height="30" fill="#230019" />
<rect x="1150" y="680" width="10" height="10" fill="#230019" />
<rect x="1170" y="680" width="10" height="30" fill="#230019" />
<rect x="1190" y="680" width="10" height="10" fill="#230019" />
<rect x="1210" y="680" width="10" height="30" fill="#230019" />
<rect x="1230" y="680" width="10" height="10" fill="#230019" />
<rect x="1250" y="680" width="10" height="30" fill="#230019" />
<rect x="1270" y="680" width="10" height="10" fill="#230019" />
<rect x="1290" y="680" width="10" height="30" fill="#230019" />
<rect x="1310" y="680" width="10" height="10" fill="#230019" />
<rect x="1330" y="680" width="10" height="30" fill="#230019" />
<rect x="1350" y="680" width="10" height="10" fill="#230019" />
<rect x="1370" y="680" width="10" height="30" fill="#230019" />
<rect x="1390" y="680" width="10" height="10" fill="#230019" />
<rect x="1410" y="680" width="10" height="30" fill="#230019" />
<rect x="1430" y="680" width="10" height="10" fill="#230019" />
<rect x="1450" y="680" width="10" height="30" fill="#230019" />
<rect x="1470" y="680" width="10" height="10" fill="#230019" />
<rect x="1490" y="680" width="10" height="30" fill="#230019" />
<rect x="1510" y="680" width="10" height="10" fill="#230019" />
<rect x="1530" y="680" width="10" height="30" fill="#230019" />
<rect x="1550" y="680" width="10" height="10" fill="#230019" />
<rect x="1570" y="680" width="10" height="30" fill="#230019" />
<rect x="1590" y="680" width="10" height="10" fill="#230019" />
<rect x="0" y="690" width="10" height="10" fill="#230019" />
<rect x="20" y="690" width="10" height="10" fill="#230019" />
<rect x="40" y="690" width="10" height="10" fill="#230019" />
<rect x="60" y="690" width="10" height="10" fill="#230019" />
<rect x="80" y="690" width="10" height="10" fill="#230019" />
<rect x="100" y="690" width="10" height="10" fill="#230019" />
<rect x="120" y="690" width="10" height="10" fill="#230019" />
<rect x="140" y="690" width="10" height="10" fill="#230019" />
<rect x="160" y="690" width="10" height="10" fill="#230019" />
<rect x="180" y="690" width="10" height="10" fill="#230019" />
<rect x="200" y="690" width="10" height="10" fill="#230019" />
<rect x="220" y="690" width="10" height="10" fill="#230019" />
<rect x="240" y="690" width="10" height="10" fill="#230019" />
<rect x="260" y="690" width="10" height="10" fill="#230019" />
<rect x="280" y="690" width="10" height="10" fill="#230019" />
<rect x="300" y="690" width="10" height="10" fill="#230019" />
<rect x="320" y="690" width="10" height="10" fill="#230019" />
<rect x="340" y="690" width="10" height="10" fill="#230019" />
<rect x="360" y="690" width="10" height="10" fill="#230019" />
<rect x="380" y="690" width="10" height="10" fill="#230019" />
<rect x="400" y="690" width="10" height="10" fill="#230019" />
<rect x="420" y="690" width="10" height="10" fill="#230019" />
<rect x="440" y="690" width="10" height="10" fill="#230019" />
<rect x="460" y="690" width="10" height="10" fill="#230019" />
<rect x="480" y="690" width="10" height="10" fill="#230019" />
<rect x="500" y="690" width="10" height="10" fill="#230019" />
<rect x="520" y="690" width="10" height="10" fill="#230019" />
<rect x="540" y="690" width="10" height="10" fill="#230019" />
<rect x="560" y="690" width="10" height="10" fill="#230019" />
<rect x="580" y="690" width="10" height="10" fill="#230019" />
<rect x="600" y="690" width="10" height="10" fill="#230019" />
<rect x="620" y="690" width="10" height="10" fill="#230019" />
<rect x="640" y="690" width="10" height="10" fill="#230019" />
<rect x="660" y="690" width="10" height="10" fill="#230019" />
<rect x="680" y="690" width="10" height="10" fill="#230019" />
<rect x="700" y="690" width="10" height="10" fill="#230019" />
<rect x="720" y="690" width="10" height="10" fill="#230019" />
<rect x="740" y="690" width="10" height="10" fill="#230019" />
<rect x="760" y="690" width="10" height="10" fill="#230019" />
<rect x="780" y="690" width="10" height="10" fill="#230019" />
<rect x="800" y="690" width="10" height="10" fill="#230019" />
<rect x="820" y="690" width="10" height="10" fill="#230019" />
<rect x="840" y="690" width="10" height="10" fill="#230019" />
<rect x="860" y="690" width="10" height="10" fill="#230019" />
<rect x="880" y="690" width="10" height="10" fill="#230019" />
<rect x="900" y="690" width="10" height="10" fill="#230019" />
<rect x="920" y="690" width="10" height="10" fill="#230019" />
<rect x="940" y="690" width="10" height="10" fill="#230019" />
<rect x="960" y="690" width="10" height="10" fill="#230019" />
<rect x="980" y="690" width="10" height="10" fill="#230019" />
<rect x="1000" y="690" width="10" height="10" fill="#230019" />
<rect x="1020" y="690" width="10" height="10" fill="#230019" />
<rect x="1040" y="690" width="10" height="10" fill="#230019" />
<rect x="1060" y="690" width="10" height="10" fill="#230019" />
<rect x="1080" y="690" width="10" height="10" fill="#230019" />
<rect x="1100" y="690" width="10" height="10" fill="#230019" />
<rect x="1120" y="690" width="10" height="10" fill="#230019" />
<rect x="1140" y="690" width="10" height="10" fill="#230019" />
<rect x="1160" y="690" width="10" height="10" fill="#230019" />
<rect x="1180" y="690" width="10" height="10" fill="#230019" />
<rect x="1200" y="690" width="10" height="10" fill="#230019" />
<rect x="1220" y="690" width="10" height="10" fill="#230019" />
<rect x="1240" y="690" width="10" height="10" fill="#230019" />
<rect x="1260" y="690" width="10" height="10" fill="#230019" />
<rect x="1280" y="690" width="10" height="10" fill="#230019" />
<rect x="1300" y="690" width="10" height="10" fill="#230019" />
<rect x="1320" y="690" width="10" height="10" fill="#230019" />
<rect x="1340" y="690" width="10" height="10" fill="#230019" />
<rect x="1360" y="690" width="10" height="10" fill="#230019" />
<rect x="1380" y="690" width="10" height="10" fill="#230019" />
<rect x="1400" y="690" width="10" height="10" fill="#230019" />
<rect x="1420" y="690" width="10" height="10" fill="#230019" />
<rect x="1440" y="690" width="10" height="10" fill="#230019" />
<rect x="1460" y="690" width="10" height="10" fill="#230019" />
<rect x="1480" y="690" width="10" height="10" fill="#230019" />
<rect x="1500" y="690" width="10" height="10" fill="#230019" />
<rect x="1520" y="690" width="10" height="10" fill="#230019" />
<rect x="1540" y="690" width="10" height="10" fill="#230019" />
<rect x="1560" y="690" width="10" height="10" fill="#230019" />
<rect x="1580" y="690" width="10" height="10" fill="#230019" />
<rect x="30" y="700" width="10" height="200" fill="#230019" />
<rect x="70" y="700" width="10" height="200" fill="#230019" />
<rect x="110" y="700" width="10" height="200" fill="#230019" />
<rect x="150" y="700" width="10" height="200" fill="#230019" />
<rect x="190" y="700" width="10" height="200" fill="#230019" />
<rect x="230" y="700" width="10" height="200" fill="#230019" />
<rect x="270" y="700" width="10" height="200" fill="#230019" />
<rect x="310" y="700" width="10" height="200" fill="#230019" />
<rect x="350" y="700" width="10" height="200" fill="#230019" />
<rect x="390" y="700" width="10" height="200" fill="#230019" />
<rect x="430" y="700" width="10" height="200" fill="#230019" />
<rect x="470" y="700" width="10" height="200" fill="#230019" />
<rect x="510" y="700" width="10" height="200" fill="#230019" />
<rect x="550" y="700" width="10" height="200" fill="#230019" />
<rect x="590" y="700" width="10" height="200" fill="#230019" />
<rect x="630" y="700" width="10" height="200" fill="#230019" />
<rect x="670" y="700" width="10" height="200" fill="#230019" />
<rect x="710" y="700" width="10" height="200" fill="#230019" />
<rect x="750" y="700" width="10" height="200" fill="#230019" />
<rect x="790" y="700" width="10" height="200" fill="#230019" />
<rect x="830" y="700" width="10" height="200" fill="#230019" />
<rect x="870" y="700" width="10" height="200" fill="#230019" />
<rect x="910" y="700" width="10" height="200" fill="#230019" />
<rect x="950" y="700" width="10" height="200" fill="#230019" />
<rect x="990" y="700" width="10" height="200" fill="#230019" />
<rect x="1030" y="700" width="10" height="200" fill="#230019" />
<rect x="1070" y="700" width="10" height="200" fill="#230019" />
<rect x="1110" y="700" width="10" height="200" fill="#230019" />
<rect x="1150" y="700" width="10" height="200" fill="#230019" />
<rect x="1190" y="700" width="10" height="200" fill="#230019" />
<rect x="1230" y="700" width="10" height="200" fill="#230019" />
<rect x="1270" y="700" width="10" height="200" fill="#230019" />
<rect x="1310" y="700" width="10" height="200" fill="#230019" />
<rect x="1350" y="700" width="10" height="200" fill="#230019" />
<rect x="1390" y="700" width="10" height="200" fill="#230019" />
<rect x="1430" y="700" width="10" height="200" fill="#230019" />
<rect x="1470" y="700" width="10" height="200" fill="#230019" />
<rect x="1510" y="700" width="10" height="200" fill="#230019" />
<rect x="1550" y="700" width="10" height="200" fill="#230019" />
<rect x="1590" y="700" width="10" height="200" fill="#230019" />
<rect x="0" y="710" width="10" height="30" fill="#230019" />
<rect x="20" y="710" width="10" height="10" fill="#230019" />
<rect x="40" y="710" width="10" height="30" fill="#230019" />
<rect x="60" y="710" width="10" height="10" fill="#230019" />
<rect x="80" y="710" width="10" height="30" fill="#230019" />
<rect x="100" y="710" width="10" height="10" fill="#230019" />
<rect x="120" y="710" width="10" height="30" fill="#230019" />
<rect x="140" y="710" width="10" height="10" fill="#230019" />
<rect x="160" y="710" width="10" height="30" fill="#230019" />
<rect x="180" y="710" width="10" height="10" fill="#230019" />
<rect x="200" y="710" width="10" height="30" fill="#230019" />
<rect x="220" y="710" width="10" height="10" fill="#230019" />
<rect x="240" y="710" width="10" height="30" fill="#230019" />
<rect x="260" y="710" width="10" height="10" fill="#230019" />
<rect x="280" y="710" width="10" height="30" fill="#230019" />
<rect x="300" y="710" width="10" height="10" fill="#230019" />
<rect x="320" y="710" width="10" height="30" fill="#230019" />
<rect x="340" y="710" width="10" height="10" fill="#230019" />
<rect x="360" y="710" width="10" height="30" fill="#230019" />
<rect x="380" y="710" width="10" height="10" fill="#230019" />
<rect x="400" y="710" width="10" height="30" fill="#230019" />
<rect x="420" y="710" width="10" height="10" fill="#230019" />
<rect x="440" y="710" width="10" height="30" fill="#230019" />
<rect x="460" y="710" width="10" height="10" fill="#230019" />
<rect x="480" y="710" width="10" height="30" fill="#230019" />
<rect x="500" y="710" width="10" height="10" fill="#230019" />
<rect x="520" y="710" width="10" height="30" fill="#230019" />
<rect x="540" y="710" width="10" height="10" fill="#230019" />
<rect x="560" y="710" width="10" height="30" fill="#230019" />
<rect x="580" y="710" width="10" height="10" fill="#230019" />
<rect x="600" y="710" width="10" height="30" fill="#230019" />
<rect x="620" y="710" width="10" height="10" fill="#230019" />
<rect x="640" y="710" width="10" height="30" fill="#230019" />
<rect x="660" y="710" width="10" height="10" fill="#230019" />
<rect x="680" y="710" width="10" height="30" fill="#230019" />
<rect x="700" y="710" width="10" height="10" fill="#230019" />
<rect x="720" y="710" width="10" height="30" fill="#230019" />
<rect x="740" y="710" width="10" height="10" fill="#230019" />
<rect x="760" y="710" width="10" height="30" fill="#230019" />
<rect x="780" y="710" width="10" height="10" fill="#230019" />
<rect x="800" y="710" width="10" height="30" fill="#230019" />
<rect x="820" y="710" width="10" height="10" fill="#230019" />
<rect x="840" y="710" width="10" height="30" fill="#230019" />
<rect x="860" y="710" width="10" height="10" fill="#230019" />
<rect x="880" y="710" width="10" height="30" fill="#230019" />
<rect x="900" y="710" width="10" height="10" fill="#230019" />
<rect x="920" y="710" width="10" height="30" fill="#230019" />
<rect x="940" y="710" width="10" height="10" fill="#230019" />
<rect x="960" y="710" width="10" height="30" fill="#230019" />
<rect x="980" y="710" width="10" height="10" fill="#230019" />
<rect x="1000" y="710" width="10" height="30" fill="#230019" />
<rect x="1020" y="710" width="10" height="10" fill="#230019" />
<rect x="1040" y="710" width="10" height="30" fill="#230019" />
<rect x="1060" y="710" width="10" height="10" fill="#230019" />
<rect x="1080" y="710" width="10" height="30" fill="#230019" />
<rect x="1100" y="710" width="10" height="10" fill="#230019" />
<rect x="1120" y="710" width="10" height="30" fill="#230019" />
<rect x="1140" y="710" width="10" height="10" fill="#230019" />
<rect x="1160" y="710" width="10" height="30" fill="#230019" />
<rect x="1180" y="710" width="10" height="10" fill="#230019" />
<rect x="1200" y="710" width="10" height="30" fill="#230019" />
<rect x="1220" y="710" width="10" height="10" fill="#230019" />
<rect x="1240" y="710" width="10" height="30" fill="#230019" />
<rect x="1260" y="710" width="10" height="10" fill="#230019" />
<rect x="1280" y="710" width="10" height="30" fill="#230019" />
<rect x="1300" y="710" width="10" height="10" fill="#230019" />
<rect x="1320" y="710" width="10" height="30" fill="#230019" />
<rect x="1340" y="710" width="10" height="10" fill="#230019" />
<rect x="1360" y="710" width="10" height="30" fill="#230019" />
<rect x="1380" y="710" width="10" height="10" fill="#230019" />
<rect x="1400" y="710" width="10" height="30" fill="#230019" />
<rect x="1420" y="710" width="10" height="10" fill="#230019" />
<rect x="1440" y="710" width="10" height="30" fill="#230019" />
<rect x="1460" y="710" width="10" height="10" fill="#230019" />
<rect x="1480" y="710" width="10" height="30" fill="#230019" />
<rect x="1500" y="710" width="10" height="10" fill="#230019" />
<rect x="1520" y="710" width="10" height="30" fill="#230019" />
<rect x="1540" y="710" width="10" height="10" fill="#230019" />
<rect x="1560" y="710" width="10" height="30" fill="#230019" />
<rect x="1580" y="710" width="10" height="10" fill="#230019" />
<rect x="10" y="720" width="10" height="180" fill="#230019" />
<rect x="50" y="720" width="10" height="180" fill="#230019" />
<rect x="90" y="720" width="10" height="180" fill="#230019" />
<rect x="130" y="720" width="10" height="180" fill="#230019" />
<rect x="170" y="720" width="10" height="180" fill="#230019" />
<rect x="210" y="720" width="10" height="180" fill="#230019" />
<rect x="250" y="720" width="10" height="180" fill="#230019" />
<rect x="290" y="720" width="10" height="180" fill="#230019" />
<rect x="330" y="720" width="10" height="180" fill="#230019" />
<rect x="370" y="720" width="10" height="180" fill="#230019" />
<rect x="410" y="720" width="10" height="180" fill="#230019" />
<rect x="450" y="720" width="10" height="180" fill="#230019" />
<rect x="490" y="720" width="10" height="180" fill="#230019" />
<rect x="530" y="720" width="10" height="180" fill="#230019" />
<rect x="570" y="720" width="10" height="180" fill="#230019" />
<rect x="610" y="720" width="10" height="180" fill="#230019" />
<rect x="650" y="720" width="10" height="180" fill="#230019" />
<rect x="690" y="720" width="10" height="180" fill="#230019" />
<rect x="730" y="720" width="10" height="180" fill="#230019" />
<rect x="770" y="720" width="10" height="180" fill="#230019" />
<rect x="810" y="720" width="10" height="180" fill="#230019" />
<rect x="850" y="720" width="10" height="180" fill="#230019" />
<rect x="890" y="720" width="10" height="180" fill="#230019" />
<rect x="930" y="720" width="10" height="180" fill="#230019" />
<rect x="970" y="720" width="10" height="180" fill="#230019" />
<rect x="1010" y="720" width="10" height="180" fill="#230019" />
<rect x="1050" y="720" width="10" height="180" fill="#230019" />
<rect x="1090" y="720" width="10" height="180" fill="#230019" />
<rect x="1130" y="720" width="10" height="180" fill="#230019" />
<rect x="1170" y="720" width="10" height="180" fill="#230019" />
<rect x="1210" y="720" width="10" height="180" fill="#230019" />
<rect x="1250" y="720" width="10" height="180" fill="#230019" />
<rect x="1290" y="720" width="10" height="180" fill="#230019" />
<rect x="1330" y="720" width="10" height="180" fill="#230019" />
<rect x="1370" y="720" width="10" height="180" fill="#230019" />
<rect x="1410" y="720" width="10" height="180" fill="#230019" />
<rect x="1450" y="720" width="10" height="180" fill="#230019" />
<rect x="1490" y="720" width="10" height="180" fill="#230019" />
<rect x="1530" y="720" width="10" height="180" fill="#230019" />
<rect x="1570" y="720" width="10" height="180" fill="#230019" />
<rect x="20" y="730" width="10" height="170" fill="#230019" />
<rect x="60" y="730" width="10" height="170" fill="#230019" />
<rect x="100" y="730" width="10" height="170" fill="#230019" />
<rect x="140" y="730" width="10" height="170" fill="#230019" />
<rect x="180" y="730" width="10" height="170" fill="#230019" />
<rect x="220" y="730" width="10" height="170" fill="#230019" />
<rect x="260" y="730" width="10" height="170" fill="#230019" />
<rect x="300" y="730" width="10" height="170" fill="#230019" />
<rect x="340" y="730" width="10" height="170" fill="#230019" />
<rect x="380" y="730" width="10" height="170" fill="#230019" />
<rect x="420" y="730" width="10" height="170" fill="#230019" />
<rect x="460" y="730" width="10" height="170" fill="#230019" />
<rect x="500" y="730" width="10" height="170" fill="#230019" />
<rect x="540" y="730" width="10" height="170" fill="#230019" />
<rect x="580" y="730" width="10" height="170" fill="#230019" />
<rect x="620" y="730" width="10" height="170" fill="#230019" />
<rect x="660" y="730" width="10" height="170" fill="#230019" />
<rect x="700" y="730" width="10" height="170" fill="#230019" />
<rect x="740" y="730" width="10" height="170" fill="#230019" />
<rect x="780" y="730" width="10" height="170" fill="#230019" />
<rect x="820" y="730" width="10" height="170" fill="#230019" />
<rect x="860" y="730" width="10" height="170" fill="#230019" />
<rect x="900" y="730" width="10" height="170" fill="#230019" />
<rect x="940" y="730" width="10" height="170" fill="#230019" />
<rect x="980" y="730" width="10" height="170" fill="#230019" />
<rect x="1020" y="730" width="10" height="170" fill="#230019" />
<rect x="1060" y="730" width="10" height="170" fill="#230019" />
<rect x="1100" y="730" width="10" height="170" fill="#230019" />
<rect x="1140" y="730" width="10" height="170" fill="#230019" />
<rect x="1180" y="730" width="10" height="170" fill="#230019" />
<rect x="1220" y="730" width="10" height="170" fill="#230019" />
<rect x="1260" y="730" width="10" height="170" fill="#230019" />
<rect x="1300" y="730" width="10" height="170" fill="#230019" />
<rect x="1340" y="730" width="10" height="170" fill="#230019" />
<rect x="1380" y="730" width="10" height="170" fill="#230019" />
<rect x="1420" y="730" width="10" height="170" fill="#230019" />
<rect x="1460" y="730" width="10" height="170" fill="#230019" />
<rect x="1500" y="730" width="10" height="170" fill="#230019" />
<rect x="1540" y="730" width="10" height="170" fill="#230019" />
<rect x="1580" y="730" width="10" height="170" fill="#230019" />
<rect x="0" y="750" width="10" height="150" fill="#230019" />
<rect x="40" y="750" width="10" height="150" fill="#230019" />
<rect x="80" y="750" width="10" height="150" fill="#230019" />
<rect x="120" y="750" width="10" height="150" fill="#230019" />
<rect x="160" y="750" width="10" height="150" fill="#230019" />
<rect x="200" y="750" width="10" height="150" fill="#230019" />
<rect x="240" y="750" width="10" height="150" fill="#230019" />
<rect x="280" y="750" width="10" height="150" fill="#230019" />
<rect x="320" y="750" width="10" height="150" fill="#230019" />
<rect x="360" y="750" width="10" height="150" fill="#230019" />
<rect x="400" y="750" width="10" height="150" fill="#230019" />
<rect x="440" y="750" width="10" height="150" fill="#230019" />
<rect x="480" y="750" width="10" height="150" fill="#230019" />
<rect x="520" y="750" width="10" height="150" fill="#230019" />
<rect x="560" y="750" width="10" height="150" fill="#230019" />
<rect x="600" y="750" width="10" height="150" fill="#230019" />
<rect x="640" y="750" width="10" height="150" fill="#230019" />
<rect x="680" y="750" width="10" height="150" fill="#230019" />
<rect x="720" y="750" width="10" height="150" fill="#230019" />
<rect x="760" y="750" width="10" height="150" fill="#230019" />
<rect x="800" y="750" width="10" height="150" fill="#230019" />
<rect x="840" y="750" width="10" height="150" fill="#230019" />
<rect x="880" y="750" width="10" height="150" fill="#230019" />
<rect x="920" y="750" width="10" height="150" fill="#230019" />
<rect x="960" y="750" width="10" height="150" fill="#230019" />
<rect x="1000" y="750" width="10" height="150" fill="#230019" />
<rect x="1040" y="750" width="10" height="150" fill="#230019" />
<rect x="1080" y="750" width="10" height="150" fill="#230019" />
<rect x="1120" y="750" width="10" height="150" fill="#230019" />
<rect x="1160" y="750" width="10" height="150" fill="#230019" />
<rect x="1200" y="750" width="10" height="150" fill="#230019" />
<rect x="1240" y="750" width="10" height="150" fill="#230019" />
<rect x="1280" y="750" width="10" height="150" fill="#230019" />
<rect x="1320" y="750" width="10" height="150" fill="#230019" />
<rect x="1360" y="750" width="10" height="150" fill="#230019" />
<rect x="1400" y="750" width="10" height="150" fill="#230019" />
<rect x="1440" y="750" width="10" height="150" fill="#230019" />
<rect x="1480" y="750" width="10" height="150" fill="#230019" />
<rect x="1520" y="750" width="10" height="150" fill="#230019" />
<rect x="1560" y="750" width="10" height="150" fill="#230019" />
</svg>