<?xml version="1.0" encoding="UTF-8" ?>
<svg version="1.1" width="1600" height="900" xmlns="http://www.w3.org/2000/svg" shape-rendering="crispEdges">
<rect x="1060" y="0" width="20" height="900" fill="#230019" />
<rect x="1080" y="0" width="520" height="90" fill="#1F2439" />
<rect x="1080" y="90" width="140" height="10" fill="#1F2439" />
<rect x="1220" y="90" width="10" height="10" fill="#19374B" />
<rect x="1230" y="90" width="10" height="10" fill="#1F2439" />
<rect x="1240" y="90" width="10" height="10" fill="#19374B" />
<rect x="1250" y="90" width="10" height="10" fill="#1F2439" />
<rect x="1260" y="90" width="10" height="10" fill="#19374B" />
<rect x="1270" y="90" width="10" height="10" fill="#1F2439" />
<rect x="1280" y="90" width="10" height="10" fill="#19374B" />
<rect x="1290" y="90" width="10" height="10" fill="#1F2439" />
<rect x="1300" y="90" width="10" height="10" fill="#19374B" />
<rect x="1310" y="90" width="10" height="10" fill="#1F2439" />
<rect x="1320" y="90" width="10" height="10" fill="#19374B" />
<rect x="1330" y="90" width="10" height="10" fill="#1F2439" />
<rect x="1340" y="90" width="10" height="10" fill="#19374B" />
<rect x="1350" y="90" width="10" height="10" fill="#1F2439" />
<rect x="1360" y="90" width="10" height="10" fill="#19374B" />
<rect x="1370" y="90" width="10" height="10" fill="#1F2439" />
<rect x="1380" y="90" width="10" height="10" fill="#19374B" />
<rect x="1390" y="90" width="10" height="10" fill="#1F2439" />
<rect x="1400" y="90" width="10" height="10" fill="#19374B" />
<rect x="1410" y="90" width="10" height="10" fill="#1F2439" />
<rect x="1420" y="90" width="10" height="10" fill="#19374B" />
<rect x="1430" y="90" width="10" height="10" fill="#1F2439" />
<rect x="1440" y="90" width="10" height="10" fill="#19374B" />
<rect x="1450" y="90" width="10" height="10" fill="#1F2439" />
<rect x="1460" y="90" width="10" height="10" fill="#19374B" />
<rect x="1470" y="90" width="130" height="10" fill="#1F2439" />
<rect x="1080" y="100" width="110" height="10" fill="#1F2439" />
<rect x="1190" y="100" width="10" height="10" fill="#19374B" />
<rect x="1200" y="100" width="10" height="10" fill="#1F2439" />
<rect x="1210" y="100" width="10" height="10" fill="#19374B" />
<rect x="1220" y="100" width="10" height="10" fill="#1F2439" />
<rect x="1230" y="100" width="10" height="10" fill="#19374B" />
<rect x="1240" y="100" width="10" height="10" fill="#1F2439" />
<rect x="1250" y="100" width="10" height="40" fill="#19374B" />
<rect x="1260" y="100" width="10" height="10" fill="#1F2439" />
<rect x="1270" y="100" width="10" height="40" fill="#19374B" />
<rect x="1280" y="100" width="10" height="10" fill="#1F2439" />
<rect x="1290" y="100" width="10" height="40" fill="#19374B" />
<rect x="1300" y="100" width="10" height="10" fill="#1F2439" />
<rect x="1310" y="100" width="10" height="40" fill="#19374B" />
<rect x="1320" y="100" width="10" height="10" fill="#1F2439" />
<rect x="1330" y="100" width="10" height="40" fill="#19374B" />
<rect x="1340" y="100" width="10" height="10" fill="#1F2439" />
<rect x="1350" y="100" width="10" height="40" fill="#19374B" />
<rect x="1360" y="100" width="10" height="10" fill="#1F2439" />
<rect x="1370" y="100" width="10" height="40" fill="#19374B" />
<rect x="1380" y="100" width="10" height="10" fill="#1F2439" />
<rect x="1390" y="100" width="10" height="40" fill="#19374B" />
<rect x="1400" y="100" width="10" height="10" fill="#1F2439" />
<rect x="1410" y="100" width="10" height="40" fill="#19374B" />
<rect x="1420" y="100" width="10" height="10" fill="#1F2439" />
<rect x="1430" y="100" width="10" height="40" fill="#19374B" />
<rect x="1440" y="100" width="10" height="10" fill="#1F2439" />
<rect x="1450" y="100" width="10" height="10" fill="#19374B" />
<rect x="1460" y="100" width="10" height="10" fill="#1F2439" />
<rect x="1470" y="100" width="10" height="10" fill="#19374B" />
<rect x="1480" y="100" width="10" height="10" fill="#1F2439" />
<rect x="1490" y="100" width="10" height="10" fill="#19374B" />
<rect x="1500" y="100" width="100" height="10" fill="#1F2439" />
<rect x="1080" y="110" width="80" height="10" fill="#1F2439" />
<rect x="1160" y="110" width="10" height="10" fill="#19374B" />
<rect x="1170" y="110" width="10" height="10" fill="#1F2439" />
<rect x="1180" y="110" width="10" height="40" fill="#19374B" />
<rect x="1190" y="110" width="10" height="10" fill="#1F2439" />
<rect x="1200" y="110" width="10" height="40" fill="#19374B" />
<rect x="1210" y="110" width="10" height="10" fill="#1F2439" />
<rect x="1220" y="110" width="10" height="40" fill="#19374B" />
<rect x="1230" y="110" width="10" height="10" fill="#1F2439" />
<rect x="1240" y="110" width="10" height="40" fill="#19374B" />
<rect x="1260" y="110" width="10" height="40" fill="#19374B" />
<rect x="1280" y="110" width="10" height="40" fill="#19374B" />
<rect x="1300" y="110" width="10" height="40" fill="#19374B" />
<rect x="1320" y="110" width="10" height="40" fill="#19374B" />
<rect x="1340" y="110" width="10" height="40" fill="#19374B" />
<rect x="1360" y="110" width="10" height="40" fill="#19374B" />
<rect x="1380" y="110" width="10" height="40" fill="#19374B" />
<rect x="1400" y="110" width="10" height="40" fill="#19374B" />
<rect x="1420" y="110" width="10" height="40" fill="#19374B" />
<rect x="1440" y="110" width="10" height="40" fill="#19374B" />
<rect x="1450" y="110" width="10" height="10" fill="#1F2439" />
<rect x="1460" y="110" width="10" height="40" fill="#19374B" />
<rect x="1470" y="110" width="10" height="10" fill="#1F2439" />
<rect x="1480" y="110" width="10" height="40" fill="#19374B" />
<rect x="1490" y="110" width="10" height="10" fill="#1F2439" />
<rect x="1500" y="110" width="10" height="40" fill="#19374B" />
<rect x="1510" y="110" width="10" height="10" fill="#1F2439" />
<rect x="1520" y="110" width="10" height="10" fill="#19374B" />
<rect x="1530" y="110" width="70" height="10" fill="#1F2439" />
<rect x="1080" y="120" width="50" height="10" fill="#1F2439" />
<rect x="1130" y="120" width="10" height="10" fill="#19374B" />
<rect x="1140" y="120" width="10" height="10" fill="#1F2439" />
<rect x="1150" y="120" width="10" height="60" fill="#19374B" />
<rect x="1160" y="120" width="10" height="10" fill="#1F2439" />
<rect x="1170" y="120" width="10" height="40" fill="#19374B" />
<rect x="1190" y="120" width="10" height="40" fill="#19374B" />
<rect x="1210" y="120" width="10" height="20" fill="#19374B" />
<rect x="1230" y="120" width="10" height="20" fill="#19374B" />
<rect x="1450" y="120" width="10" height="20" fill="#19374B" />
<rect x="1470" y="120" width="10" height="20" fill="#19374B" />
<rect x="1490" y="120" width="10" height="40" fill="#19374B" />
<rect x="1510" y="120" width="10" height="40" fill="#19374B" />
<rect x="1520" y="120" width="10" height="10" fill="#1F2439" />
<rect x="1530" y="120" width="10" height="60" fill="#19374B" />
<rect x="1540" y="120" width="10" height="10" fill="#1F2439" />
<rect x="1550" y="120" width="10" height="10" fill="#19374B" />
<rect x="1560" y="120" width="40" height="10" fill="#1F2439" />
<rect x="1080" y="130" width="40" height="10" fill="#1F2439" />
<rect x="1120" y="130" width="10" height="10" fill="#19374B" />
<rect x="1130" y="130" width="10" height="10" fill="#1F2439" />
<rect x="1140" y="130" width="10" height="120" fill="#19374B" />
<rect x="1160" y="130" width="10" height="40" fill="#19374B" />
<rect x="1520" y="130" width="10" height="40" fill="#19374B" />
<rect x="1540" y="130" width="10" height="120" fill="#19374B" />
<rect x="1550" y="130" width="10" height="10" fill="#1F2439" />
<rect x="1560" y="130" width="10" height="10" fill="#19374B" />
<rect x="1570" y="130" width="30" height="10" fill="#1F2439" />
<rect x="1080" y="140" width="30" height="70" fill="#1F2439" />
<rect x="1110" y="140" width="10" height="10" fill="#19374B" />
<rect x="1120" y="140" width="10" height="10" fill="#1F2439" />
<rect x="1130" y="140" width="10" height="160" fill="#19374B" />
<rect x="1210" y="140" width="10" height="10" fill="#254351" />
<rect x="1230" y="140" width="10" height="30" fill="#254351" />
<rect x="1250" y="140" width="10" height="30" fill="#254351" />
<rect x="1270" y="140" width="10" height="30" fill="#254351" />
<rect x="1290" y="140" width="10" height="30" fill="#254351" />
<rect x="1310" y="140" width="10" height="30" fill="#254351" />
<rect x="1330" y="140" width="10" height="30" fill="#254351" />
<rect x="1350" y="140" width="10" height="30" fill="#254351" />
<rect x="1370" y="140" width="10" height="30" fill="#254351" />
<rect x="1390" y="140" width="10" height="30" fill="#254351" />
<rect x="1410" y="140" width="10" height="30" fill="#254351" />
<rect x="1430" y="140" width="10" height="30" fill="#254351" />
<rect x="1450" y="140" width="10" height="30" fill="#254351" />
<rect x="1470" y="140" width="10" height="10" fill="#254351" />
<rect x="1550" y="140" width="10" height="160" fill="#19374B" />
<rect x="1560" y="140" width="10" height="10" fill="#1F2439" />
<rect x="1570" y="140" width="10" height="10" fill="#19374B" />
<rect x="1580" y="140" width="20" height="70" fill="#1F2439" />
<rect x="1110" y="150" width="10" height="10" fill="#1F2439" />
<rect x="1120" y="150" width="10" height="470" fill="#19374B" />
<rect x="1180" y="150" width="10" height="10" fill="#254351" />
<rect x="1200" y="150" width="10" height="30" fill="#254351" />
<rect x="1210" y="150" width="10" height="10" fill="#19374B" />
<rect x="1220" y="150" width="10" height="30" fill="#254351" />
<rect x="1240" y="150" width="10" height="30" fill="#254351" />
<rect x="1260" y="150" width="10" height="30" fill="#254351" />
<rect x="1280" y="150" width="10" height="30" fill="#254351" />
<rect x="1300" y="150" width="10" height="30" fill="#254351" />
<rect x="1320" y="150" width="10" height="30" fill="#254351" />
<rect x="1340" y="150" width="10" height="30" fill="#254351" />
<rect x="1360" y="150" width="10" height="30" fill="#254351" />
<rect x="1380" y="150" width="10" height="30" fill="#254351" />
<rect x="1400" y="150" width="10" height="30" fill="#254351" />
<rect x="1420" y="150" width="10" height="30" fill="#254351" />
<rect x="1440" y="150" width="10" height="30" fill="#254351" />
<rect x="1460" y="150" width="10" height="30" fill="#254351" />
<rect x="1470" y="150" width="10" height="10" fill="#19374B" />
<rect x="1480" y="150" width="10" height="30" fill="#254351" />
<rect x="1500" y="150" width="10" height="10" fill="#254351" />
<rect x="1560" y="150" width="10" height="470" fill="#19374B" />
<rect x="1570" y="150" width="10" height="10" fill="#1F2439" />
<rect x="1110" y="160" width="10" height="10" fill="#19374B" />
<rect x="1170" y="160" width="10" height="10" fill="#254351" />
<rect x="1180" y="160" width="10" height="10" fill="#19374B" />
<rect x="1190" y="160" width="10" height="50" fill="#254351" />
<rect x="1210" y="160" width="10" height="20" fill="#254351" />
<rect x="1470" y="160" width="10" height="20" fill="#254351" />
<rect x="1490" y="160" width="10" height="50" fill="#254351" />
<rect x="1500" y="160" width="10" height="10" fill="#19374B" />
<rect x="1510" y="160" width="10" height="10" fill="#254351" />
<rect x="1570" y="160" width="10" height="10" fill="#19374B" />
<rect x="1110" y="170" width="10" height="10" fill="#1F2439" />
<rect x="1160" y="170" width="10" height="10" fill="#254351" />
<rect x="1170" y="170" width="10" height="10" fill="#19374B" />
<rect x="1180" y="170" width="10" height="90" fill="#254351" />
<rect x="1230" y="170" width="10" height="10" fill="#3C5F66" />
<rect x="1250" y="170" width="10" height="10" fill="#3C5F66" />
<rect x="1270" y="170" width="10" height="10" fill="#3C5F66" />
<rect x="1290" y="170" width="10" height="10" fill="#3C5F66" />
<rect x="1310" y="170" width="10" height="10" fill="#3C5F66" />
<rect x="1330" y="170" width="10" height="10" fill="#3C5F66" />
<rect x="1350" y="170" width="10" height="10" fill="#3C5F66" />
<rect x="1370" y="170" width="10" height="10" fill="#3C5F66" />
<rect x="1390" y="170" width="10" height="10" fill="#3C5F66" />
<rect x="1410" y="170" width="10" height="10" fill="#3C5F66" />
<rect x="1430" y="170" width="10" height="10" fill="#3C5F66" />
<rect x="1450" y="170" width="10" height="10" fill="#3C5F66" />
<rect x="1500" y="170" width="10" height="90" fill="#254351" />
<rect x="1510" y="170" width="10" height="10" fill="#19374B" />
<rect x="1520" y="170" width="10" height="10" fill="#254351" />
<rect x="1570" y="170" width="10" height="10" fill="#1F2439" />
<rect x="1110" y="180" width="10" height="10" fill="#19374B" />
<rect x="1150" y="180" width="10" height="10" fill="#254351" />
<rect x="1160" y="180" width="10" height="10" fill="#19374B" />
<rect x="1170" y="180" width="10" height="110" fill="#254351" />
<rect x="1200" y="180" width="290" height="10" fill="#230019" />
<rect x="1510" y="180" width="10" height="110" fill="#254351" />
<rect x="1520" y="180" width="10" height="10" fill="#19374B" />
<rect x="1530" y="180" width="10" height="10" fill="#254351" />
<rect x="1570" y="180" width="10" height="10" fill="#19374B" />
<rect x="1110" y="190" width="10" height="10" fill="#1F2439" />
<rect x="1150" y="190" width="10" height="10" fill="#19374B" />
<rect x="1160" y="190" width="10" height="390" fill="#254351" />
<rect x="1200" y="190" width="10" height="710" fill="#230019" />
<rect x="1210" y="190" width="270" height="20" fill="#557B78" />
<rect x="1480" y="190" width="10" height="710" fill="#230019" />
<rect x="1520" y="190" width="10" height="390" fill="#254351" />
<rect x="1530" y="190" width="10" height="10" fill="#19374B" />
<rect x="1570" y="190" width="10" height="10" fill="#1F2439" />
<rect x="1110" y="200" width="10" height="10" fill="#19374B" />
<rect x="1150" y="200" width="10" height="10" fill="#254351" />
<rect x="1530" y="200" width="10" height="10" fill="#254351" />
<rect x="1570" y="200" width="10" height="10" fill="#19374B" />
<rect x="1080" y="210" width="20" height="30" fill="#1F2439" />
<rect x="1100" y="210" width="10" height="10" fill="#19374B" />
<rect x="1110" y="210" width="10" height="10" fill="#1F2439" />
<rect x="1150" y="210" width="10" height="10" fill="#19374B" />
<rect x="1190" y="210" width="10" height="10" fill="#3C5F66" />
<rect x="1210" y="210" width="20" height="570" fill="#557B78" />
<rect x="1230" y="210" width="230" height="90" fill="#3C5F66" />
<rect x="1460" y="210" width="20" height="570" fill="#557B78" />
<rect x="1490" y="210" width="10" height="10" fill="#3C5F66" />
<rect x="1530" y="210" width="10" height="10" fill="#19374B" />
<rect x="1570" y="210" width="10" height="10" fill="#1F2439" />
<rect x="1580" y="210" width="10" height="10" fill="#19374B" />
<rect x="1590" y="210" width="10" height="30" fill="#1F2439" />
<rect x="1100" y="220" width="10" height="10" fill="#1F2439" />
<rect x="1110" y="220" width="10" height="10" fill="#19374B" />
<rect x="1150" y="220" width="10" height="10" fill="#254351" />
<rect x="1190" y="220" width="10" height="10" fill="#254351" />
<rect x="1490" y="220" width="10" height="10" fill="#254351" />
<rect x="1530" y="220" width="10" height="10" fill="#254351" />
<rect x="1570" y="220" width="10" height="10" fill="#19374B" />
<rect x="1580" y="220" width="10" height="10" fill="#1F2439" />
<rect x="1100" y="230" width="10" height="10" fill="#19374B" />
<rect x="1110" y="230" width="10" height="10" fill="#1F2439" />
<rect x="1150" y="230" width="10" height="10" fill="#19374B" />
<rect x="1190" y="230" width="10" height="10" fill="#3C5F66" />
<rect x="1490" y="230" width="10" height="10" fill="#3C5F66" />
<rect x="1530" y="230" width="10" height="10" fill="#19374B" />
<rect x="1570" y="230" width="10" height="10" fill="#1F2439" />
<rect x="1580" y="230" width="10" height="10" fill="#19374B" />
<rect x="1080" y="240" width="10" height="30" fill="#1F2439" />
<rect x="1090" y="240" width="10" height="10" fill="#19374B" />
<rect x="1100" y="240" width="10" height="10" fill="#1F2439" />
<rect x="1110" y="240" width="10" height="230" fill="#19374B" />
<rect x="1150" y="240" width="10" height="10" fill="#254351" />
<rect x="1190" y="240" width="10" height="10" fill="#254351" />
<rect x="1490" y="240" width="10" height="10" fill="#254351" />
<rect x="1530" y="240" width="10" height="10" fill="#254351" />
<rect x="1570" y="240" width="10" height="230" fill="#19374B" />
<rect x="1580" y="240" width="10" height="10" fill="#1F2439" />
<rect x="1590" y="240" width="10" height="10" fill="#19374B" />
<rect x="1090" y="250" width="10" height="10" fill="#1F2439" />
<rect x="1100" y="250" width="10" height="10" fill="#19374B" />
<rect x="1140" y="250" width="10" height="10" fill="#254351" />
<rect x="1150" y="250" width="10" height="10" fill="#19374B" />
<rect x="1190" y="250" width="10" height="10" fill="#3C5F66" />
<rect x="1490" y="250" width="10" height="10" fill="#3C5F66" />
<rect x="1530" y="250" width="10" height="10" fill="#19374B" />
<rect x="1540" y="250" width="10" height="10" fill="#254351" />
<rect x="1580" y="250" width="10" height="10" fill="#19374B" />
<rect x="1590" y="250" width="10" height="10" fill="#1F2439" />
<rect x="1090" y="260" width="10" height="10" fill="#19374B" />
<rect x="1100" y="260" width="10" height="10" fill="#1F2439" />
<rect x="1140" y="260" width="10" height="10" fill="#19374B" />
<rect x="1150" y="260" width="10" height="210" fill="#254351" />
<rect x="1180" y="260" width="10" height="10" fill="#3C5F66" />
<rect x="1190" y="260" width="10" height="10" fill="#254351" />
<rect x="1490" y="260" width="10" height="10" fill="#254351" />
<rect x="1500" y="260" width="10" height="10" fill="#3C5F66" />
<rect x="1530" y="260" width="10" height="210" fill="#254351" />
<rect x="1540" y="260" width="10" height="10" fill="#19374B" />
<rect x="1580" y="260" width="10" height="10" fill="#1F2439" />
<rect x="1590" y="260" width="10" height="10" fill="#19374B" />
<rect x="1080" y="270" width="10" height="10" fill="#19374B" />
<rect x="1090" y="270" width="10" height="10" fill="#1F2439" />
<rect x="1100" y="270" width="10" height="10" fill="#19374B" />
<rect x="1140" y="270" width="10" height="10" fill="#254351" />
<rect x="1180" y="270" width="10" height="10" fill="#254351" />
<rect x="1190" y="270" width="10" height="90" fill="#3C5F66" />
<rect x="1490" y="270" width="10" height="90" fill="#3C5F66" />
<rect x="1500" y="270" width="10" height="10" fill="#254351" />
<rect x="1540" y="270" width="10" height="10" fill="#254351" />
<rect x="1580" y="270" width="10" height="10" fill="#19374B" />
<rect x="1590" y="270" width="10" height="10" fill="#1F2439" />
<rect x="1080" y="280" width="10" height="10" fill="#1F2439" />
<rect x="1090" y="280" width="10" height="10" fill="#19374B" />
<rect x="1100" y="280" width="10" height="10" fill="#1F2439" />
<rect x="1140" y="280" width="10" height="10" fill="#19374B" />
<rect x="1180" y="280" width="10" height="10" fill="#3C5F66" />
<rect x="1500" y="280" width="10" height="10" fill="#3C5F66" />
<rect x="1540" y="280" width="10" height="10" fill="#19374B" />
<rect x="1580" y="280" width="10" height="10" fill="#1F2439" />
<rect x="1590" y="280" width="10" height="10" fill="#19374B" />
<rect x="1080" y="290" width="10" height="10" fill="#19374B" />
<rect x="1090" y="290" width="10" height="10" fill="#1F2439" />
<rect x="1100" y="290" width="10" height="150" fill="#19374B" />
<rect x="1140" y="290" width="10" height="10" fill="#254351" />
<rect x="1170" y="290" width="10" height="10" fill="#3C5F66" />
<rect x="1180" y="290" width="10" height="10" fill="#254351" />
<rect x="1500" y="290" width="10" height="10" fill="#254351" />
<rect x="1510" y="290" width="10" height="10" fill="#3C5F66" />
<rect x="1540" y="290" width="10" height="10" fill="#254351" />
<rect x="1580" y="290" width="10" height="150" fill="#19374B" />
<rect x="1590" y="290" width="10" height="10" fill="#1F2439" />
<rect x="1080" y="300" width="10" height="10" fill="#1F2439" />
<rect x="1090" y="300" width="10" height="10" fill="#19374B" />
<rect x="1130" y="300" width="10" height="10" fill="#254351" />
<rect x="1140" y="300" width="10" height="10" fill="#19374B" />
<rect x="1170" y="300" width="10" height="10" fill="#254351" />
<rect x="1180" y="300" width="10" height="10" fill="#3C5F66" />
<rect x="1230" y="300" width="10" height="150" fill="#3C5F66" />
<rect x="1240" y="300" width="210" height="20" fill="#230019" />
<rect x="1450" y="300" width="10" height="150" fill="#3C5F66" />
<rect x="1500" y="300" width="10" height="10" fill="#3C5F66" />
<rect x="1510" y="300" width="10" height="10" fill="#254351" />
<rect x="1540" y="300" width="10" height="10" fill="#19374B" />
<rect x="1550" y="300" width="10" height="10" fill="#254351" />
<rect x="1590" y="300" width="10" height="10" fill="#19374B" />
<rect x="1080" y="310" width="10" height="10" fill="#19374B" />
<rect x="1090" y="310" width="10" height="10" fill="#1F2439" />
<rect x="1130" y="310" width="10" height="10" fill="#19374B" />
<rect x="1140" y="310" width="10" height="130" fill="#254351" />
<rect x="1170" y="310" width="10" height="10" fill="#3C5F66" />
<rect x="1180" y="310" width="10" height="10" fill="#254351" />
<rect x="1500" y="310" width="10" height="10" fill="#254351" />
<rect x="1510" y="310" width="10" height="10" fill="#3C5F66" />
<rect x="1540" y="310" width="10" height="130" fill="#254351" />
<rect x="1550" y="310" width="10" height="10" fill="#19374B" />
<rect x="1590" y="310" width="10" height="10" fill="#1F2439" />
<rect x="1080" y="320" width="10" height="10" fill="#1F2439" />
<rect x="1090" y="320" width="10" height="10" fill="#19374B" />
<rect x="1130" y="320" width="10" height="10" fill="#254351" />
<rect x="1170" y="320" width="10" height="10" fill="#254351" />
<rect x="1180" y="320" width="10" height="10" fill="#3C5F66" />
<rect x="1240" y="320" width="10" height="120" fill="#3C5F66" />
<rect x="1250" y="320" width="10" height="60" fill="#230019" />
<rect x="1260" y="320" width="170" height="10" fill="#557B78" />
<rect x="1430" y="320" width="10" height="60" fill="#230019" />
<rect x="1440" y="320" width="10" height="120" fill="#3C5F66" />
<rect x="1500" y="320" width="10" height="10" fill="#3C5F66" />
<rect x="1510" y="320" width="10" height="10" fill="#254351" />
<rect x="1550" y="320" width="10" height="10" fill="#254351" />
<rect x="1590" y="320" width="10" height="10" fill="#19374B" />
<rect x="1080" y="330" width="10" height="10" fill="#19374B" />
<rect x="1090" y="330" width="10" height="10" fill="#1F2439" />
<rect x="1130" y="330" width="10" height="10" fill="#19374B" />
<rect x="1170" y="330" width="10" height="10" fill="#3C5F66" />
<rect x="1180" y="330" width="10" height="10" fill="#254351" />
<rect x="1260" y="330" width="170" height="10" fill="#719797" />
<rect x="1500" y="330" width="10" height="10" fill="#254351" />
<rect x="1510" y="330" width="10" height="10" fill="#3C5F66" />
<rect x="1550" y="330" width="10" height="10" fill="#19374B" />
<rect x="1590" y="330" width="10" height="10" fill="#1F2439" />
<rect x="1080" y="340" width="10" height="10" fill="#1F2439" />
<rect x="1090" y="340" width="10" height="10" fill="#19374B" />
<rect x="1130" y="340" width="10" height="10" fill="#254351" />
<rect x="1170" y="340" width="10" height="10" fill="#254351" />
<rect x="1180" y="340" width="10" height="10" fill="#3C5F66" />
<rect x="1260" y="340" width="10" height="20" fill="#A2B8B1" />
<rect x="1270" y="340" width="150" height="10" fill="#719797" />
<rect x="1420" y="340" width="10" height="20" fill="#A2B8B1" />
<rect x="1500" y="340" width="10" height="10" fill="#3C5F66" />
<rect x="1510" y="340" width="10" height="10" fill="#254351" />
<rect x="1550" y="340" width="10" height="10" fill="#254351" />
<rect x="1590" y="340" width="10" height="10" fill="#19374B" />
<rect x="1080" y="350" width="10" height="10" fill="#19374B" />
<rect x="1090" y="350" width="10" height="10" fill="#1F2439" />
<rect x="1130" y="350" width="10" height="10" fill="#19374B" />
<rect x="1170" y="350" width="10" height="10" fill="#3C5F66" />
<rect x="1180" y="350" width="10" height="10" fill="#254351" />
<rect x="1270" y="350" width="150" height="10" fill="#A2B8B1" />
<rect x="1500" y="350" width="10" height="10" fill="#254351" />
<rect x="1510" y="350" width="10" height="10" fill="#3C5F66" />
<rect x="1550" y="350" width="10" height="10" fill="#19374B" />
<rect x="1590" y="350" width="10" height="10" fill="#1F2439" />
<rect x="1080" y="360" width="10" height="10" fill="#1F2439" />
<rect x="1090" y="360" width="10" height="10" fill="#19374B" />
<rect x="1130" y="360" width="10" height="10" fill="#254351" />
<rect x="1170" y="360" width="10" height="10" fill="#254351" />
<rect x="1180" y="360" width="10" height="10" fill="#3C5F66" />
<rect x="1190" y="360" width="10" height="10" fill="#254351" />
<rect x="1260" y="360" width="170" height="20" fill="#230019" />
<rect x="1490" y="360" width="10" height="10" fill="#254351" />
<rect x="1500" y="360" width="10" height="10" fill="#3C5F66" />
<rect x="1510" y="360" width="10" height="10" fill="#254351" />
<rect x="1550" y="360" width="10" height="10" fill="#254351" />
<rect x="1590" y="360" width="10" height="10" fill="#19374B" />
<rect x="1080" y="370" width="10" height="10" fill="#19374B" />
<rect x="1090" y="370" width="10" height="10" fill="#1F2439" />
<rect x="1130" y="370" width="10" height="10" fill="#19374B" />
<rect x="1170" y="370" width="10" height="10" fill="#3C5F66" />
<rect x="1180" y="370" width="10" height="10" fill="#254351" />
<rect x="1190" y="370" width="10" height="10" fill="#3C5F66" />
<rect x="1490" y="370" width="10" height="10" fill="#3C5F66" />
<rect x="1500" y="370" width="10" height="10" fill="#254351" />
<rect x="1510" y="370" width="10" height="10" fill="#3C5F66" />
<rect x="1550" y="370" width="10" height="10" fill="#19374B" />
<rect x="1590" y="370" width="10" height="10" fill="#1F2439" />
<rect x="1080" y="380" width="10" height="400" fill="#1F2439" />
<rect x="1090" y="380" width="10" height="10" fill="#19374B" />
<rect x="1130" y="380" width="10" height="10" fill="#254351" />
<rect x="1170" y="380" width="10" height="210" fill="#254351" />
<rect x="1180" y="380" width="10" height="10" fill="#3C5F66" />
<rect x="1190" y="380" width="10" height="10" fill="#254351" />
<rect x="1250" y="380" width="190" height="70" fill="#3C5F66" />
<rect x="1490" y="380" width="10" height="10" fill="#254351" />
<rect x="1500" y="380" width="10" height="10" fill="#3C5F66" />
<rect x="1510" y="380" width="10" height="210" fill="#254351" />
<rect x="1550" y="380" width="10" height="10" fill="#254351" />
<rect x="1590" y="380" width="10" height="10" fill="#19374B" />
<rect x="1090" y="390" width="10" height="10" fill="#1F2439" />
<rect x="1130" y="390" width="10" height="10" fill="#19374B" />
<rect x="1180" y="390" width="10" height="10" fill="#254351" />
<rect x="1190" y="390" width="10" height="10" fill="#3C5F66" />
<rect x="1490" y="390" width="10" height="10" fill="#3C5F66" />
<rect x="1500" y="390" width="10" height="10" fill="#254351" />
<rect x="1550" y="390" width="10" height="10" fill="#19374B" />
<rect x="1590" y="390" width="10" height="10" fill="#1F2439" />
<rect x="1090" y="400" width="10" height="10" fill="#19374B" />
<rect x="1130" y="400" width="10" height="10" fill="#254351" />
<rect x="1180" y="400" width="10" height="10" fill="#3C5F66" />
<rect x="1190" y="400" width="10" height="10" fill="#254351" />
<rect x="1490" y="400" width="10" height="10" fill="#254351" />
<rect x="1500" y="400" width="10" height="10" fill="#3C5F66" />
<rect x="1550" y="400" width="10" height="10" fill="#254351" />
<rect x="1590" y="400" width="10" height="10" fill="#19374B" />
<rect x="1090" y="410" width="10" height="10" fill="#1F2439" />
<rect x="1130" y="410" width="10" height="10" fill="#19374B" />
<rect x="1180" y="410" width="10" height="10" fill="#254351" />
<rect x="1190" y="410" width="10" height="10" fill="#3C5F66" />
<rect x="1490" y="410" width="10" height="10" fill="#3C5F66" />
<rect x="1500" y="410" width="10" height="10" fill="#254351" />
<rect x="1550" y="410" width="10" height="10" fill="#19374B" />
<rect x="1590" y="410" width="10" height="10" fill="#1F2439" />
<rect x="1090" y="420" width="10" height="10" fill="#19374B" />
<rect x="1130" y="420" width="10" height="10" fill="#254351" />
<rect x="1180" y="420" width="10" height="10" fill="#3C5F66" />
<rect x="1190" y="420" width="10" height="10" fill="#254351" />
<rect x="1490" y="420" width="10" height="10" fill="#254351" />
<rect x="1500" y="420" width="10" height="10" fill="#3C5F66" />
<rect x="1550" y="420" width="10" height="10" fill="#254351" />
<rect x="1590" y="420" width="10" height="10" fill="#19374B" />
<rect x="1090" y="430" width="10" height="10" fill="#1F2439" />
<rect x="1130" y="430" width="10" height="10" fill="#19374B" />
<rect x="1180" y="430" width="10" height="170" fill="#254351" />
<rect x="1190" y="430" width="10" height="10" fill="#3C5F66" />
<rect x="1490" y="430" width="10" height="10" fill="#3C5F66" />
<rect x="1500" y="430" width="10" height="170" fill="#254351" />
<rect x="1550" y="430" width="10" height="10" fill="#19374B" />
<rect x="1590" y="430" width="10" height="10" fill="#1F2439" />
<rect x="1090" y="440" width="10" height="10" fill="#19374B" />
<rect x="1100" y="440" width="10" height="10" fill="#1F2439" />
<rect x="1130" y="440" width="10" height="10" fill="#254351" />
<rect x="1140" y="440" width="10" height="10" fill="#19374B" />
<rect x="1190" y="440" width="10" height="170" fill="#254351" />
<rect x="1240" y="440" width="10" height="10" fill="#254351" />
<rect x="1440" y="440" width="10" height="10" fill="#254351" />
<rect x="1490" y="440" width="10" height="170" fill="#254351" />
<rect x="1540" y="440" width="10" height="10" fill="#19374B" />
<rect x="1550" y="440" width="10" height="10" fill="#254351" />
<rect x="1580" y="440" width="10" height="10" fill="#1F2439" />
<rect x="1590" y="440" width="10" height="10" fill="#19374B" />
<rect x="1090" y="450" width="10" height="10" fill="#1F2439" />
<rect x="1100" y="450" width="10" height="10" fill="#19374B" />
<rect x="1130" y="450" width="10" height="180" fill="#19374B" />
<rect x="1140" y="450" width="10" height="10" fill="#254351" />
<rect x="1230" y="450" width="10" height="200" fill="#254351" />
<rect x="1240" y="450" width="10" height="10" fill="#3C5F66" />
<rect x="1250" y="450" width="10" height="10" fill="#254351" />
<rect x="1260" y="450" width="170" height="10" fill="#3C5F66" />
<rect x="1430" y="450" width="10" height="10" fill="#254351" />
<rect x="1440" y="450" width="10" height="10" fill="#3C5F66" />
<rect x="1450" y="450" width="10" height="200" fill="#254351" />
<rect x="1540" y="450" width="10" height="10" fill="#254351" />
<rect x="1550" y="450" width="10" height="180" fill="#19374B" />
<rect x="1580" y="450" width="10" height="10" fill="#19374B" />
<rect x="1590" y="450" width="10" height="10" fill="#1F2439" />
<rect x="1090" y="460" width="10" height="10" fill="#19374B" />
<rect x="1100" y="460" width="10" height="10" fill="#1F2439" />
<rect x="1140" y="460" width="10" height="10" fill="#19374B" />
<rect x="1240" y="460" width="10" height="200" fill="#254351" />
<rect x="1250" y="460" width="10" height="10" fill="#3C5F66" />
<rect x="1260" y="460" width="10" height="50" fill="#254351" />
<rect x="1270" y="460" width="10" height="10" fill="#3C5F66" />
<rect x="1280" y="460" width="10" height="40" fill="#254351" />
<rect x="1290" y="460" width="10" height="10" fill="#3C5F66" />
<rect x="1300" y="460" width="10" height="200" fill="#254351" />
<rect x="1310" y="460" width="10" height="10" fill="#3C5F66" />
<rect x="1320" y="460" width="10" height="200" fill="#254351" />
<rect x="1330" y="460" width="10" height="10" fill="#3C5F66" />
<rect x="1340" y="460" width="10" height="200" fill="#254351" />
<rect x="1350" y="460" width="10" height="10" fill="#3C5F66" />
<rect x="1360" y="460" width="10" height="200" fill="#254351" />
<rect x="1370" y="460" width="10" height="10" fill="#3C5F66" />
<rect x="1380" y="460" width="10" height="200" fill="#254351" />
<rect x="1390" y="460" width="10" height="10" fill="#3C5F66" />
<rect x="1400" y="460" width="10" height="200" fill="#254351" />
<rect x="1410" y="460" width="10" height="10" fill="#3C5F66" />
<rect x="1420" y="460" width="10" height="200" fill="#254351" />
<rect x="1430" y="460" width="10" height="10" fill="#3C5F66" />
<rect x="1440" y="460" width="10" height="200" fill="#254351" />
<rect x="1540" y="460" width="10" height="10" fill="#19374B" />
<rect x="1580" y="460" width="10" height="10" fill="#1F2439" />
<rect x="1590" y="460" width="10" height="10" fill="#19374B" />
<rect x="1090" y="470" width="10" height="310" fill="#1F2439" />
<rect x="1100" y="470" width="10" height="10" fill="#19374B" />
<rect x="1110" y="470" width="10" height="10" fill="#1F2439" />
<rect x="1140" y="470" width="10" height="10" fill="#254351" />
<rect x="1150" y="470" width="10" height="10" fill="#19374B" />
<rect x="1250" y="470" width="10" height="200" fill="#254351" />
<rect x="1270" y="470" width="10" height="30" fill="#254351" />
<rect x="1290" y="470" width="10" height="40" fill="#254351" />
<rect x="1310" y="470" width="10" height="200" fill="#254351" />
<rect x="1330" y="470" width="10" height="200" fill="#254351" />
<rect x="1350" y="470" width="10" height="200" fill="#254351" />
<rect x="1370" y="470" width="10" height="200" fill="#254351" />
<rect x="1390" y="470" width="10" height="200" fill="#254351" />
<rect x="1410" y="470" width="10" height="200" fill="#254351" />
<rect x="1430" y="470" width="10" height="200" fill="#254351" />
<rect x="1530" y="470" width="10" height="10" fill="#19374B" />
<rect x="1540" y="470" width="10" height="10" fill="#254351" />
<rect x="1570" y="470" width="10" height="10" fill="#1F2439" />
<rect x="1580" y="470" width="10" height="10" fill="#19374B" />
<rect x="1590" y="470" width="10" height="310" fill="#1F2439" />
<rect x="1100" y="480" width="10" height="300" fill="#1F2439" />
<rect x="1110" y="480" width="10" height="10" fill="#19374B" />
<rect x="1140" y="480" width="10" height="160" fill="#19374B" />
<rect x="1150" y="480" width="10" height="10" fill="#254351" />
<rect x="1530" y="480" width="10" height="10" fill="#254351" />
<rect x="1540" y="480" width="10" height="160" fill="#19374B" />
<rect x="1570" y="480" width="10" height="10" fill="#19374B" />
<rect x="1580" y="480" width="10" height="300" fill="#1F2439" />
<rect x="1110" y="490" width="10" height="10" fill="#1F2439" />
<rect x="1150" y="490" width="10" height="10" fill="#19374B" />
<rect x="1530" y="490" width="10" height="10" fill="#19374B" />
<rect x="1570" y="490" width="10" height="10" fill="#1F2439" />
<rect x="1110" y="500" width="10" height="10" fill="#19374B" />
<rect x="1150" y="500" width="10" height="10" fill="#254351" />
<rect x="1270" y="500" width="20" height="10" fill="#230019" />
<rect x="1530" y="500" width="10" height="10" fill="#254351" />
<rect x="1570" y="500" width="10" height="10" fill="#19374B" />
<rect x="1110" y="510" width="10" height="10" fill="#1F2439" />
<rect x="1150" y="510" width="10" height="10" fill="#19374B" />
<rect x="1260" y="510" width="10" height="20" fill="#230019" />
<rect x="1270" y="510" width="20" height="20" fill="#1F2439" />
<rect x="1290" y="510" width="10" height="20" fill="#230019" />
<rect x="1530" y="510" width="10" height="10" fill="#19374B" />
<rect x="1570" y="510" width="10" height="10" fill="#1F2439" />
<rect x="1110" y="520" width="10" height="10" fill="#19374B" />
<rect x="1150" y="520" width="10" height="10" fill="#254351" />
<rect x="1530" y="520" width="10" height="10" fill="#254351" />
<rect x="1570" y="520" width="10" height="10" fill="#19374B" />
<rect x="1110" y="530" width="10" height="10" fill="#1F2439" />
<rect x="1150" y="530" width="10" height="10" fill="#19374B" />
<rect x="1260" y="530" width="10" height="130" fill="#254351" />
<rect x="1270" y="530" width="20" height="10" fill="#230019" />
<rect x="1290" y="530" width="10" height="140" fill="#254351" />
<rect x="1530" y="530" width="10" height="10" fill="#19374B" />
<rect x="1570" y="530" width="10" height="10" fill="#1F2439" />
<rect x="1110" y="540" width="10" height="10" fill="#19374B" />
<rect x="1150" y="540" width="10" height="10" fill="#254351" />
<rect x="1270" y="540" width="20" height="120" fill="#254351" />
<rect x="1530" y="540" width="10" height="10" fill="#254351" />
<rect x="1570" y="540" width="10" height="10" fill="#19374B" />
<rect x="1110" y="550" width="10" height="10" fill="#1F2439" />
<rect x="1150" y="550" width="10" height="10" fill="#19374B" />
<rect x="1530" y="550" width="10" height="10" fill="#19374B" />
<rect x="1570" y="550" width="10" height="10" fill="#1F2439" />
<rect x="1110" y="560" width="10" height="10" fill="#19374B" />
<rect x="1150" y="560" width="10" height="10" fill="#254351" />
<rect x="1530" y="560" width="10" height="10" fill="#254351" />
<rect x="1570" y="560" width="10" height="10" fill="#19374B" />
<rect x="1110" y="570" width="10" height="10" fill="#1F2439" />
<rect x="1150" y="570" width="10" height="10" fill="#19374B" />
<rect x="1530" y="570" width="10" height="10" fill="#19374B" />
<rect x="1570" y="570" width="10" height="10" fill="#1F2439" />
<rect x="1110" y="580" width="10" height="10" fill="#19374B" />
<rect x="1150" y="580" width="10" height="10" fill="#254351" />
<rect x="1160" y="580" width="10" height="10" fill="#19374B" />
<rect x="1520" y="580" width="10" height="10" fill="#19374B" />
<rect x="1530" y="580" width="10" height="10" fill="#254351" />
<rect x="1570" y="580" width="10" height="10" fill="#19374B" />
<rect x="1110" y="590" width="10" height="10" fill="#1F2439" />
<rect x="1150" y="590" width="10" height="60" fill="#19374B" />
<rect x="1160" y="590" width="10" height="10" fill="#254351" />
<rect x="1170" y="590" width="10" height="10" fill="#19374B" />
<rect x="1510" y="590" width="10" height="10" fill="#19374B" />
<rect x="1520" y="590" width="10" height="10" fill="#254351" />
<rect x="1530" y="590" width="10" height="60" fill="#19374B" />
<rect x="1570" y="590" width="10" height="10" fill="#1F2439" />
<rect x="1110" y="600" width="10" height="10" fill="#19374B" />
<rect x="1160" y="600" width="10" height="60" fill="#19374B" />
<rect x="1170" y="600" width="10" height="10" fill="#254351" />
<rect x="1180" y="600" width="10" height="10" fill="#19374B" />
<rect x="1500" y="600" width="10" height="10" fill="#19374B" />
<rect x="1510" y="600" width="10" height="10" fill="#254351" />
<rect x="1520" y="600" width="10" height="60" fill="#19374B" />
<rect x="1570" y="600" width="10" height="10" fill="#19374B" />
<rect x="1110" y="610" width="10" height="10" fill="#1F2439" />
<rect x="1170" y="610" width="10" height="60" fill="#19374B" />
<rect x="1180" y="610" width="10" height="10" fill="#254351" />
<rect x="1190" y="610" width="10" height="10" fill="#19374B" />
<rect x="1490" y="610" width="10" height="10" fill="#19374B" />
<rect x="1500" y="610" width="10" height="10" fill="#254351" />
<rect x="1510" y="610" width="10" height="60" fill="#19374B" />
<rect x="1570" y="610" width="10" height="10" fill="#1F2439" />
<rect x="1110" y="620" width="10" height="10" fill="#19374B" />
<rect x="1120" y="620" width="10" height="10" fill="#1F2439" />
<rect x="1180" y="620" width="10" height="60" fill="#19374B" />
<rect x="1190" y="620" width="10" height="10" fill="#254351" />
<rect x="1490" y="620" width="10" height="10" fill="#254351" />
<rect x="1500" y="620" width="10" height="60" fill="#19374B" />
<rect x="1560" y="620" width="10" height="10" fill="#1F2439" />
<rect x="1570" y="620" width="10" height="10" fill="#19374B" />
<rect x="1110" y="630" width="10" height="150" fill="#1F2439" />
<rect x="1120" y="630" width="10" height="10" fill="#19374B" />
<rect x="1130" y="630" width="10" height="10" fill="#1F2439" />
<rect x="1190" y="630" width="10" height="60" fill="#19374B" />
<rect x="1490" y="630" width="10" height="60" fill="#19374B" />
<rect x="1550" y="630" width="10" height="10" fill="#1F2439" />
<rect x="1560" y="630" width="10" height="10" fill="#19374B" />
<rect x="1570" y="630" width="10" height="150" fill="#1F2439" />
<rect x="1120" y="640" width="10" height="140" fill="#1F2439" />
<rect x="1130" y="640" width="10" height="10" fill="#19374B" />
<rect x="1140" y="640" width="10" height="10" fill="#1F2439" />
<rect x="1540" y="640" width="10" height="10" fill="#1F2439" />
<rect x="1550" y="640" width="10" height="10" fill="#19374B" />
<rect x="1560" y="640" width="10" height="140" fill="#1F2439" />
<rect x="1130" y="650" width="10" height="130" fill="#1F2439" />
<rect x="1140" y="650" width="10" height="10" fill="#19374B" />
<rect x="1150" y="650" width="10" height="10" fill="#1F2439" />
<rect x="1230" y="650" width="10" height="10" fill="#19374B" />
<rect x="1450" y="650" width="10" height="10" fill="#19374B" />
<rect x="1530" y="650" width="10" height="10" fill="#1F2439" />
<rect x="1540" y="650" width="10" height="10" fill="#19374B" />
<rect x="1550" y="650" width="10" height="130" fill="#1F2439" />
<rect x="1140" y="660" width="10" height="120" fill="#1F2439" />
<rect x="1150" y="660" width="10" height="10" fill="#19374B" />
<rect x="1160" y="660" width="10" height="10" fill="#1F2439" />
<rect x="1230" y="660" width="10" height="10" fill="#254351" />
<rect x="1240" y="660" width="10" height="60" fill="#19374B" />
<rect x="1260" y="660" width="10" height="60" fill="#19374B" />
<rect x="1270" y="660" width="10" height="10" fill="#254351" />
<rect x="1280" y="660" width="10" height="60" fill="#19374B" />
<rect x="1300" y="660" width="10" height="60" fill="#19374B" />
<rect x="1320" y="660" width="10" height="60" fill="#19374B" />
<rect x="1340" y="660" width="10" height="60" fill="#19374B" />
<rect x="1360" y="660" width="10" height="60" fill="#19374B" />
<rect x="1380" y="660" width="10" height="60" fill="#19374B" />
<rect x="1400" y="660" width="10" height="60" fill="#19374B" />
<rect x="1420" y="660" width="10" height="60" fill="#19374B" />
<rect x="1440" y="660" width="10" height="60" fill="#19374B" />
<rect x="1450" y="660" width="10" height="10" fill="#254351" />
<rect x="1520" y="660" width="10" height="10" fill="#1F2439" />
<rect x="1530" y="660" width="10" height="10" fill="#19374B" />
<rect x="1540" y="660" width="10" height="120" fill="#1F2439" />
<rect x="1150" y="670" width="10" height="110" fill="#1F2439" />
<rect x="1160" y="670" width="10" height="10" fill="#19374B" />
<rect x="1170" y="670" width="10" height="10" fill="#1F2439" />
<rect x="1230" y="670" width="10" height="40" fill="#19374B" />
<rect x="1250" y="670" width="10" height="40" fill="#19374B" />
<rect x="1270" y="670" width="10" height="40" fill="#19374B" />
<rect x="1290" y="670" width="10" height="40" fill="#19374B" />
<rect x="1310" y="670" width="10" height="40" fill="#19374B" />
<rect x="1330" y="670" width="10" height="40" fill="#19374B" />
<rect x="1350" y="670" width="10" height="40" fill="#19374B" />
<rect x="1370" y="670" width="10" height="40" fill="#19374B" />
<rect x="1390" y="670" width="10" height="40" fill="#19374B" />
<rect x="1410" y="670" width="10" height="40" fill="#19374B" />
<rect x="1430" y="670" width="10" height="40" fill="#19374B" />
<rect x="1450" y="670" width="10" height="40" fill="#19374B" />
<rect x="1510" y="670" width="10" height="10" fill="#1F2439" />
<rect x="1520" y="670" width="10" height="10" fill="#19374B" />
<rect x="1530" y="670" width="10" height="110" fill="#1F2439" />
<rect x="1160" y="680" width="10" height="100" fill="#1F2439" />
<rect x="1170" y="680" width="10" height="10" fill="#19374B" />
<rect x="1180" y="680" width="10" height="10" fill="#1F2439" />
<rect x="1500" y="680" width="10" height="10" fill="#1F2439" />
<rect x="1510" y="680" width="10" height="10" fill="#19374B" />
<rect x="1520" y="680" width="10" height="100" fill="#1F2439" />
<rect x="1170" y="690" width="10" height="90" fill="#1F2439" />
<rect x="1180" y="690" width="10" height="10" fill="#19374B" />
<rect x="1190" y="690" width="10" height="10" fill="#1F2439" />
<rect x="1490" y="690" width="10" height="10" fill="#1F2439" />
<rect x="1500" y="690" width="10" height="10" fill="#19374B" />
<rect x="1510" y="690" width="10" height="90" fill="#1F2439" />
<rect x="1180" y="700" width="10" height="80" fill="#1F2439" />
<rect x="1190" y="700" width="10" height="10" fill="#19374B" />
<rect x="1490" y="700" width="10" height="10" fill="#19374B" />
<rect x="1500" y="700" width="10" height="80" fill="#1F2439" />
<rect x="1190" y="710" width="10" height="70" fill="#1F2439" />
<rect x="1230" y="710" width="10" height="50" fill="#1F2439" />
<rect x="1250" y="710" width="10" height="50" fill="#1F2439" />
<rect x="1270" y="710" width="10" height="50" fill="#1F2439" />
<rect x="1290" y="710" width="10" height="50" fill="#1F2439" />
<rect x="1310" y="710" width="10" height="50" fill="#1F2439" />
<rect x="1330" y="710" width="10" height="50" fill="#1F2439" />
<rect x="1350" y="710" width="10" height="50" fill="#1F2439" />
<rect x="1370" y="710" width="10" height="50" fill="#1F2439" />
<rect x="1390" y="710" width="10" height="50" fill="#1F2439" />
<rect x="1410" y="710" width="10" height="50" fill="#1F2439" />
<rect x="1430" y="710" width="10" height="50" fill="#1F2439" />
<rect x="1450" y="710" width="10" height="50" fill="#1F2439" />
<rect x="1490" y="710" width="10" height="70" fill="#1F2439" />
<rect x="1240" y="720" width="10" height="40" fill="#1F2439" />
<rect x="1260" y="720" width="10" height="40" fill="#1F2439" />
<rect x="1280" y="720" width="10" height="40" fill="#1F2439" />
<rect x="1300" y="720" width="10" height="40" fill="#1F2439" />
<rect x="1320" y="720" width="10" height="40" fill="#1F2439" />
<rect x="1340" y="720" width="10" height="40" fill="#1F2439" />
<rect x="1360" y="720" width="10" height="40" fill="#1F2439" />
<rect x="1380" y="720" width="10" height="40" fill="#1F2439" />
<rect x="1400" y="720" width="10" height="40" fill="#1F2439" />
<rect x="1420" y="720" width="10" height="40" fill="#1F2439" />
<rect x="1440" y="720" width="10" height="40" fill="#1F2439" />
<rect x="1230" y="760" width="230" height="20" fill="#557B78" />
<rect x="1080" y="780" width="120" height="120" fill="#230019" />
<rect x="1210" y="780" width="270" height="120" fill="#230019" />
<rect x="1490" y="780" width="110" height="120" fill="#230019" />
</svg>