<?xml version="1.0" encoding="UTF-8" ?>
<svg version="1.1" width="1600" height="900" xmlns="http://www.w3.org/2000/svg" shape-rendering="crispEdges">
<rect x="120" y="150" width="20" height="10" fill="#230019" />
<rect x="1550" y="150" width="50" height="10" fill="#230019" />
<rect x="140" y="160" width="20" height="10" fill="#230019" />
<rect x="1510" y="160" width="40" height="10" fill="#230019" />
<rect x="160" y="170" width="10" height="10" fill="#230019" />
<rect x="1380" y="170" width="130" height="10" fill="#230019" />
<rect x="170" y="180" width="20" height="10" fill="#230019" />
<rect x="1260" y="180" width="120" height="10" fill="#230019" />
<rect x="190" y="190" width="20" height="10" fill="#230019" />
<rect x="1150" y="190" width="110" height="10" fill="#230019" />
<rect x="210" y="200" width="20" height="10" fill="#230019" />
<rect x="1050" y="200" width="100" height="10" fill="#230019" />
<rect x="230" y="210" width="30" height="10" fill="#230019" />
<rect x="910" y="210" width="140" height="10" fill="#230019" />
<rect x="260" y="220" width="40" height="10" fill="#230019" />
<rect x="750" y="220" width="160" height="10" fill="#230019" />
<rect x="300" y="230" width="60" height="10" fill="#230019" />
<rect x="620" y="230" width="130" height="10" fill="#230019" />
<rect x="360" y="240" width="260" height="10" fill="#230019" />
</svg>