<?xml version="1.0" encoding="UTF-8" ?>
<svg version="1.1" width="1600" height="900" xmlns="http://www.w3.org/2000/svg" shape-rendering="crispEdges">
<rect x="120" y="150" width="10" height="10" fill="#230019" />
<rect x="130" y="160" width="10" height="10" fill="#230019" />
<rect x="140" y="170" width="10" height="10" fill="#230019" />
<rect x="150" y="180" width="10" height="10" fill="#230019" />
<rect x="160" y="190" width="10" height="10" fill="#230019" />
<rect x="170" y="200" width="20" height="10" fill="#230019" />
<rect x="190" y="210" width="10" height="10" fill="#230019" />
<rect x="1590" y="210" width="10" height="10" fill="#230019" />
<rect x="200" y="220" width="10" height="10" fill="#230019" />
<rect x="1570" y="220" width="20" height="10" fill="#230019" />
<rect x="210" y="230" width="20" height="10" fill="#230019" />
<rect x="1550" y="230" width="20" height="10" fill="#230019" />
<rect x="230" y="240" width="10" height="10" fill="#230019" />
<rect x="1470" y="240" width="80" height="10" fill="#230019" />
<rect x="240" y="250" width="10" height="10" fill="#230019" />
<rect x="1390" y="250" width="80" height="10" fill="#230019" />
<rect x="250" y="260" width="20" height="10" fill="#230019" />
<rect x="1310" y="260" width="80" height="10" fill="#230019" />
<rect x="270" y="270" width="10" height="10" fill="#230019" />
<rect x="1240" y="270" width="70" height="10" fill="#230019" />
<rect x="280" y="280" width="20" height="10" fill="#230019" />
<rect x="1160" y="280" width="80" height="10" fill="#230019" />
<rect x="300" y="290" width="20" height="10" fill="#230019" />
<rect x="1040" y="290" width="120" height="10" fill="#230019" />
<rect x="320" y="300" width="50" height="10" fill="#230019" />
<rect x="910" y="300" width="130" height="10" fill="#230019" />
<rect x="370" y="310" width="60" height="10" fill="#230019" />
<rect x="830" y="310" width="80" height="10" fill="#230019" />
<rect x="430" y="320" width="80" height="10" fill="#230019" />
<rect x="610" y="320" width="220" height="10" fill="#230019" />
<rect x="510" y="330" width="100" height="10" fill="#230019" />
</svg>